<svg xmlns="http://www.w3.org/2000/svg" xmlns:xlink="http://www.w3.org/1999/xlink" width="500" zoomAndPan="magnify" viewBox="0 0 375 374.999991" height="500" preserveAspectRatio="xMidYMid meet" version="1.0"><defs><g/><clipPath id="043c8d792d"><path d="M 217 285 L 257 285 L 257 337.925781 L 217 337.925781 Z M 217 285 " clip-rule="nonzero"/></clipPath><clipPath id="3f6d92a1e1"><path d="M 213 284.675781 L 260 284.675781 L 260 337.925781 L 213 337.925781 Z M 213 284.675781 " clip-rule="nonzero"/></clipPath><clipPath id="63029c88d5"><path d="M 200 285 L 240 285 L 240 337.925781 L 200 337.925781 Z M 200 285 " clip-rule="nonzero"/></clipPath><clipPath id="26a284080e"><path d="M 196 284.675781 L 243 284.675781 L 243 337.925781 L 196 337.925781 Z M 196 284.675781 " clip-rule="nonzero"/></clipPath><clipPath id="62a34bf522"><path d="M 238 293 L 290.375 293 L 290.375 330 L 238 330 Z M 238 293 " clip-rule="nonzero"/></clipPath><clipPath id="fe2b6b94f6"><path d="M 129.875 291 L 163 291 L 163 331 L 129.875 331 Z M 129.875 291 " clip-rule="nonzero"/></clipPath><clipPath id="2cd2a7572a"><path d="M 94 37 L 234.660156 37 L 234.660156 206 L 94 206 Z M 94 37 " clip-rule="nonzero"/></clipPath><clipPath id="0a40c9628d"><path d="M 240.09375 91 L 336 91 L 336 205.675781 L 240.09375 205.675781 Z M 240.09375 91 " clip-rule="nonzero"/></clipPath><clipPath id="705e798d6e"><path d="M 240.09375 90.175781 L 337 90.175781 L 337 205.675781 L 240.09375 205.675781 Z M 240.09375 90.175781 " clip-rule="nonzero"/></clipPath><clipPath id="c3a25d48ef"><path d="M 248.625 118.835938 L 286.496094 118.835938 L 286.496094 156.644531 L 248.625 156.644531 Z M 248.625 118.835938 " clip-rule="nonzero"/></clipPath><clipPath id="c5cf8a0a4b"><path d="M 277.246094 102.0625 L 304.699219 102.0625 L 304.699219 129.210938 L 277.246094 129.210938 Z M 277.246094 102.0625 " clip-rule="nonzero"/></clipPath><clipPath id="89326f3057"><path d="M 168.664062 79.828125 L 223.796875 79.828125 L 223.796875 134.871094 L 168.664062 134.871094 Z M 168.664062 79.828125 " clip-rule="nonzero"/></clipPath><clipPath id="4eac45eef2"><path d="M 142.164062 55.40625 L 182.132812 55.40625 L 182.132812 94.933594 L 142.164062 94.933594 Z M 142.164062 55.40625 " clip-rule="nonzero"/></clipPath></defs><g clip-path="url(#043c8d792d)"><path fill="#65c42f" d="M 217.128906 337.578125 L 227.453125 337.578125 L 256.472656 285.019531 L 246.175781 285.019531 L 217.128906 337.578125 " fill-opacity="1" fill-rule="nonzero"/></g><g clip-path="url(#3f6d92a1e1)"><path stroke-linecap="butt" transform="matrix(0.196744, 0, 0, 0.195853, 127.773762, 210.521823)" fill="none" stroke-linejoin="miter" d="M 454.169155 648.731614 L 506.644497 648.731614 L 654.14329 380.374824 L 601.80693 380.374824 Z M 454.169155 648.731614 " stroke="#65c42f" stroke-width="3.161" stroke-opacity="1" stroke-miterlimit="3.864"/></g><g clip-path="url(#63029c88d5)"><path fill="#00acef" d="M 200.167969 337.578125 L 210.492188 337.578125 L 239.507812 285.019531 L 229.210938 285.019531 L 200.167969 337.578125 " fill-opacity="1" fill-rule="nonzero"/></g><g clip-path="url(#26a284080e)"><path stroke-linecap="butt" transform="matrix(0.196744, 0, 0, 0.195853, 127.773762, 210.521823)" fill="none" stroke-linejoin="miter" d="M 367.961084 648.731614 L 420.436426 648.731614 L 567.915364 380.374824 L 515.579004 380.374824 Z M 367.961084 648.731614 " stroke="#00acef" stroke-width="3.161" stroke-opacity="1" stroke-miterlimit="3.864"/></g><path fill="#231f20" d="M 166.570312 293.0625 L 166.570312 329.480469 L 176.015625 329.480469 L 188.191406 308.46875 L 188.191406 329.480469 L 197.933594 329.480469 L 218.175781 293.0625 L 209.128906 293.0625 L 197.804688 312.828125 L 197.804688 293.0625 L 187.507812 293.0625 L 176.015625 312.433594 L 176.015625 293.0625 L 166.570312 293.0625 " fill-opacity="1" fill-rule="nonzero"/><g clip-path="url(#62a34bf522)"><path fill="#231f20" d="M 238.65625 329.480469 L 247.816406 329.480469 L 259.027344 309.996094 L 259.027344 329.480469 L 268.867188 329.480469 L 280.8125 310.054688 L 280.8125 329.480469 L 290.375 329.480469 L 290.375 293.0625 L 280.8125 293.0625 L 268.867188 314.074219 L 268.867188 293.0625 L 258.800781 293.0625 L 238.65625 329.480469 " fill-opacity="1" fill-rule="nonzero"/></g><g clip-path="url(#fe2b6b94f6)"><path fill="#231f20" d="M 139.632812 317.019531 C 139.703125 320.457031 142.546875 323.222656 146.046875 323.222656 C 149.574219 323.222656 152.433594 321.460938 152.433594 319.285156 C 152.433594 318.027344 151.722656 316.511719 148.820312 315.773438 C 148.820312 315.773438 146.691406 315.117188 145.320312 314.71875 C 143.355469 314.144531 142.195312 313.980469 140.257812 313.3125 C 138.972656 312.867188 138.289062 312.53125 137.015625 312.035156 C 133.078125 309.949219 130.878906 306.550781 131.125 302.691406 C 130.785156 296.347656 137.863281 291.535156 146.175781 291.535156 C 154.488281 291.535156 161.222656 296.527344 161.222656 302.691406 L 161.222656 303.710938 L 151.410156 303.710938 L 151.4375 303.003906 C 151.4375 300.953125 149.082031 299.292969 146.175781 299.292969 L 145.535156 299.320312 C 142.980469 299.320312 140.914062 300.46875 140.914062 301.882812 L 140.914062 302.292969 C 140.914062 303.328125 141.824219 304.265625 143.1875 304.8125 C 144.753906 305.4375 145.550781 305.636719 147.144531 306.089844 C 148.933594 306.597656 149.957031 306.832031 151.722656 307.421875 C 153.605469 308.046875 156.472656 309.230469 156.472656 309.230469 C 159.6875 310.621094 162.246094 313.917969 162.246094 317.050781 C 162.703125 325.289062 156.957031 330.328125 146.0625 330.328125 C 135.222656 330.328125 129.875 325.414062 129.875 317.015625 L 139.632812 317.019531 " fill-opacity="1" fill-rule="nonzero"/></g><path fill="#ffffff" d="M 169.511719 38.304688 C 202.867188 36.660156 233.652344 69.800781 233.652344 103.203125 C 233.652344 129.238281 218.5625 153.574219 218.5625 153.574219 C 204.601562 173.382812 212.144531 204.886719 212.144531 204.886719 L 146.4375 204.886719 C 148.933594 193.625 146.863281 184.3125 146.863281 184.3125 C 113.902344 191.304688 110.246094 185.886719 110.246094 185.886719 C 103.855469 183.378906 106.542969 170.660156 106.542969 170.660156 C 107.273438 168.140625 103.605469 162.890625 103.605469 162.890625 C 102.765625 161.210938 105.59375 157.011719 105.59375 157.011719 C 102.546875 156.589844 101.503906 151.550781 101.503906 151.550781 C 104.441406 148.613281 101.921875 142.308594 101.921875 142.308594 C 92.265625 140.816406 95.671875 133.378906 95.671875 133.378906 C 99.101562 127.203125 99.378906 127.566406 104.871094 118.730469 C 113.335938 105.113281 106.503906 86.273438 114.660156 72.246094 C 121.601562 60.308594 128.421875 51.960938 140.867188 45.410156 C 149.839844 40.683594 159.425781 38.800781 169.511719 38.304688 " fill-opacity="1" fill-rule="nonzero"/><g clip-path="url(#2cd2a7572a)"><path fill="#156082" d="M 169.511719 38.304688 L 169.457031 37.285156 C 170.273438 37.242188 171.085938 37.222656 171.898438 37.222656 C 180.175781 37.222656 188.238281 39.289062 195.671875 42.890625 C 206.820312 48.296875 216.554688 57.152344 223.519531 67.761719 C 230.476562 78.371094 234.671875 90.746094 234.675781 103.203125 C 234.671875 116.417969 230.855469 129.117188 227.054688 138.535156 C 223.25 147.949219 219.449219 154.078125 219.429688 154.109375 L 219.394531 154.160156 C 216.136719 158.785156 214.066406 164.09375 212.8125 169.507812 C 211.5625 174.921875 211.132812 180.433594 211.132812 185.441406 C 211.132812 190.851562 211.632812 195.664062 212.136719 199.121094 C 212.390625 200.851562 212.640625 202.238281 212.828125 203.191406 C 212.921875 203.667969 213 204.035156 213.054688 204.28125 C 213.082031 204.40625 213.101562 204.5 213.117188 204.558594 L 213.132812 204.628906 L 213.140625 204.648438 C 213.210938 204.957031 213.140625 205.273438 212.949219 205.519531 C 212.753906 205.765625 212.460938 205.910156 212.144531 205.910156 L 146.4375 205.910156 C 146.125 205.910156 145.835938 205.769531 145.640625 205.527344 C 145.445312 205.285156 145.371094 204.96875 145.441406 204.667969 C 146.359375 200.519531 146.648438 196.628906 146.648438 193.398438 C 146.648438 190.714844 146.449219 188.488281 146.253906 186.933594 C 146.15625 186.15625 146.054688 185.550781 145.984375 185.140625 C 145.945312 184.9375 145.917969 184.78125 145.894531 184.679688 C 145.886719 184.625 145.878906 184.589844 145.871094 184.566406 L 145.867188 184.539062 L 145.867188 184.53125 L 146.863281 184.3125 L 147.074219 185.308594 C 134.097656 188.0625 125.617188 188.90625 120.054688 188.90625 C 115.746094 188.90625 113.183594 188.402344 111.636719 187.847656 C 110.089844 187.296875 109.542969 186.667969 109.402344 186.457031 L 110.246094 185.886719 L 109.875 186.839844 C 108.847656 186.433594 108 185.792969 107.339844 185.019531 C 106.351562 183.855469 105.769531 182.417969 105.425781 180.933594 C 105.078125 179.441406 104.964844 177.886719 104.964844 176.4375 C 104.964844 173.195312 105.539062 170.492188 105.546875 170.449219 L 105.5625 170.375 C 105.597656 170.261719 105.621094 170.105469 105.621094 169.914062 C 105.625 169.433594 105.46875 168.75 105.207031 168.03125 C 104.816406 166.953125 104.199219 165.796875 103.683594 164.925781 C 103.429688 164.488281 103.195312 164.121094 103.03125 163.867188 C 102.945312 163.738281 102.878906 163.636719 102.835938 163.570312 L 102.785156 163.496094 L 102.769531 163.472656 L 102.691406 163.347656 C 102.492188 162.941406 102.429688 162.523438 102.425781 162.125 C 102.429688 161.457031 102.601562 160.808594 102.820312 160.171875 C 103.15625 159.222656 103.632812 158.308594 104.027344 157.617188 C 104.421875 156.921875 104.738281 156.457031 104.75 156.441406 L 105.59375 157.011719 L 105.453125 158.023438 C 104.417969 157.882812 103.574219 157.339844 102.945312 156.699219 C 101.992188 155.726562 101.417969 154.511719 101.039062 153.527344 C 100.667969 152.546875 100.511719 151.792969 100.503906 151.757812 C 100.433594 151.421875 100.539062 151.070312 100.78125 150.828125 C 101.1875 150.421875 101.464844 149.925781 101.648438 149.34375 C 101.832031 148.761719 101.910156 148.097656 101.910156 147.417969 C 101.910156 146.253906 101.675781 145.050781 101.4375 144.152344 C 101.320312 143.703125 101.199219 143.332031 101.113281 143.074219 C 101.070312 142.945312 101.035156 142.847656 101.007812 142.78125 L 100.980469 142.710938 L 100.976562 142.691406 L 100.972656 142.6875 L 101.285156 142.566406 L 100.976562 142.691406 L 100.972656 142.6875 L 101.285156 142.566406 L 100.976562 142.691406 L 101.921875 142.308594 L 101.765625 143.320312 C 100.273438 143.089844 99.042969 142.71875 98.027344 142.234375 C 96.503906 141.515625 95.476562 140.515625 94.871094 139.433594 C 94.261719 138.355469 94.070312 137.230469 94.070312 136.25 C 94.074219 134.40625 94.714844 133.03125 94.742188 132.953125 L 94.777344 132.886719 C 96.503906 129.78125 97.457031 128.28125 98.648438 126.484375 C 99.835938 124.695312 101.265625 122.597656 104.003906 118.191406 C 106.03125 114.929688 107.15625 111.335938 107.820312 107.523438 C 108.816406 101.796875 108.75 95.59375 109.191406 89.453125 C 109.636719 83.320312 110.597656 77.210938 113.777344 71.734375 C 117.269531 65.730469 120.753906 60.589844 124.957031 56.109375 C 129.160156 51.632812 134.078125 47.828125 140.394531 44.503906 C 149.53125 39.695312 159.285156 37.785156 169.457031 37.285156 L 169.511719 38.304688 L 169.5625 39.324219 C 159.566406 39.816406 150.144531 41.679688 141.34375 46.3125 C 135.210938 49.542969 130.5 53.191406 126.445312 57.507812 C 122.390625 61.824219 118.992188 66.828125 115.542969 72.761719 C 113.585938 76.128906 112.515625 79.804688 111.890625 83.675781 C 110.945312 89.480469 111.027344 95.707031 110.558594 101.816406 C 110.082031 107.921875 109.046875 113.941406 105.738281 119.269531 C 102.984375 123.695312 101.53125 125.839844 100.351562 127.613281 C 99.171875 129.394531 98.273438 130.800781 96.566406 133.875 L 95.671875 133.378906 L 96.601562 133.804688 C 96.566406 133.875 96.105469 134.984375 96.109375 136.25 C 96.109375 136.730469 96.171875 137.226562 96.332031 137.710938 C 96.574219 138.441406 97.007812 139.140625 97.878906 139.785156 C 98.746094 140.421875 100.074219 140.992188 102.078125 141.304688 C 102.433594 141.355469 102.738281 141.597656 102.871094 141.929688 C 102.882812 141.960938 103.148438 142.625 103.414062 143.632812 C 103.679688 144.640625 103.949219 145.992188 103.949219 147.417969 C 103.949219 148.253906 103.855469 149.113281 103.597656 149.949219 C 103.339844 150.785156 102.902344 151.597656 102.226562 152.273438 L 101.503906 151.550781 L 102.503906 151.34375 L 102.335938 151.378906 L 102.503906 151.34375 L 102.335938 151.378906 L 102.503906 151.34375 C 102.507812 151.371094 102.773438 152.570312 103.351562 153.730469 C 103.636719 154.308594 104.003906 154.875 104.414062 155.28125 C 104.828125 155.691406 105.253906 155.933594 105.734375 156 C 106.082031 156.050781 106.382812 156.273438 106.523438 156.59375 C 106.667969 156.917969 106.636719 157.292969 106.441406 157.582031 L 106.4375 157.585938 C 106.386719 157.660156 105.871094 158.445312 105.378906 159.40625 C 105.136719 159.886719 104.898438 160.410156 104.730469 160.898438 C 104.5625 161.386719 104.46875 161.839844 104.472656 162.125 C 104.46875 162.304688 104.5 162.402344 104.515625 162.433594 L 103.605469 162.890625 L 104.441406 162.304688 C 104.457031 162.324219 105.234375 163.4375 106.023438 164.917969 C 106.417969 165.65625 106.816406 166.488281 107.128906 167.335938 C 107.433594 168.1875 107.65625 169.054688 107.660156 169.914062 C 107.660156 170.257812 107.625 170.605469 107.523438 170.945312 L 106.542969 170.660156 L 107.542969 170.871094 L 107.539062 170.894531 C 107.484375 171.15625 107.003906 173.621094 107.003906 176.4375 C 107 178.21875 107.203125 180.140625 107.773438 181.695312 C 108.054688 182.46875 108.429688 183.152344 108.894531 183.695312 C 109.359375 184.242188 109.914062 184.660156 110.621094 184.9375 C 110.8125 185.011719 110.976562 185.144531 111.09375 185.316406 L 110.507812 185.710938 L 111.054688 185.261719 L 111.09375 185.316406 L 110.507812 185.710938 L 111.054688 185.261719 L 110.867188 185.417969 L 111.050781 185.253906 L 111.054688 185.261719 L 110.867188 185.417969 L 111.050781 185.253906 L 111.0625 185.269531 C 111.140625 185.34375 111.605469 185.742188 112.953125 186.125 C 114.300781 186.507812 116.523438 186.867188 120.054688 186.867188 C 125.410156 186.867188 133.769531 186.046875 146.648438 183.3125 C 147.199219 183.195312 147.738281 183.542969 147.859375 184.089844 C 147.871094 184.140625 148.691406 187.835938 148.691406 193.398438 C 148.691406 196.753906 148.390625 200.785156 147.429688 205.109375 L 146.4375 204.886719 L 146.4375 203.867188 L 212.144531 203.867188 L 212.144531 204.886719 L 211.152344 205.125 C 211.140625 205.074219 209.089844 196.511719 209.089844 185.441406 C 209.089844 180.316406 209.527344 174.65625 210.824219 169.046875 C 212.121094 163.441406 214.277344 157.878906 217.726562 152.984375 L 218.5625 153.574219 L 217.691406 153.035156 L 217.703125 153.019531 C 217.910156 152.683594 221.652344 146.546875 225.335938 137.332031 C 229.019531 128.117188 232.632812 115.824219 232.632812 103.203125 C 232.636719 87.210938 225.421875 71.1875 214.191406 59.195312 C 208.578125 53.199219 201.964844 48.210938 194.78125 44.730469 C 187.59375 41.246094 179.832031 39.265625 171.898438 39.265625 C 171.121094 39.265625 170.339844 39.285156 169.5625 39.324219 L 169.511719 38.304688 " fill-opacity="1" fill-rule="nonzero"/></g><g clip-path="url(#0a40c9628d)"><path fill="#156082" d="M 284.652344 91.292969 C 261.835938 90.167969 240.78125 112.835938 240.78125 135.679688 C 240.78125 153.488281 251.105469 170.132812 251.105469 170.132812 C 260.652344 183.679688 255.492188 205.226562 255.492188 205.226562 L 300.433594 205.226562 C 298.726562 197.523438 300.140625 191.15625 300.140625 191.15625 C 322.683594 195.9375 325.183594 192.230469 325.183594 192.230469 C 329.554688 190.519531 327.71875 181.816406 327.71875 181.816406 C 327.21875 180.09375 329.730469 176.503906 329.730469 176.503906 C 330.304688 175.355469 328.367188 172.484375 328.367188 172.484375 C 330.453125 172.195312 331.164062 168.746094 331.164062 168.746094 C 329.15625 166.738281 330.878906 162.429688 330.878906 162.429688 C 337.484375 161.40625 335.152344 156.320312 335.152344 156.320312 C 332.808594 152.09375 332.617188 152.34375 328.863281 146.300781 C 323.074219 136.988281 327.746094 124.101562 322.167969 114.507812 C 317.417969 106.34375 312.753906 100.632812 304.242188 96.152344 C 298.105469 92.921875 291.550781 91.632812 284.652344 91.292969 " fill-opacity="1" fill-rule="nonzero"/></g><g clip-path="url(#705e798d6e)"><path fill="#156082" d="M 284.652344 91.292969 L 284.6875 90.59375 C 284.128906 90.566406 283.574219 90.554688 283.019531 90.554688 C 277.359375 90.554688 271.84375 91.96875 266.757812 94.429688 C 259.132812 98.128906 252.476562 104.183594 247.714844 111.441406 C 242.953125 118.695312 240.085938 127.160156 240.082031 135.679688 C 240.085938 144.71875 242.695312 153.40625 245.296875 159.84375 C 247.898438 166.285156 250.496094 170.476562 250.511719 170.5 L 250.53125 170.53125 C 252.761719 173.695312 254.179688 177.328125 255.035156 181.03125 C 255.890625 184.734375 256.1875 188.503906 256.1875 191.925781 C 256.1875 195.625 255.84375 198.921875 255.496094 201.285156 C 255.324219 202.464844 255.152344 203.414062 255.027344 204.066406 C 254.960938 204.394531 254.90625 204.644531 254.871094 204.8125 C 254.851562 204.898438 254.835938 204.960938 254.828125 205.003906 L 254.8125 205.066406 C 254.761719 205.273438 254.8125 205.492188 254.945312 205.660156 C 255.078125 205.828125 255.277344 205.925781 255.492188 205.925781 L 300.433594 205.925781 C 300.644531 205.925781 300.84375 205.832031 300.980469 205.664062 C 301.113281 205.5 301.160156 205.285156 301.117188 205.074219 C 300.488281 202.238281 300.289062 199.578125 300.289062 197.371094 C 300.289062 195.535156 300.425781 194.011719 300.558594 192.949219 C 300.625 192.417969 300.695312 192 300.742188 191.722656 C 300.769531 191.582031 300.789062 191.476562 300.804688 191.40625 C 300.808594 191.371094 300.816406 191.34375 300.820312 191.328125 L 300.824219 191.308594 L 300.824219 191.304688 L 300.140625 191.15625 L 299.996094 191.835938 C 308.871094 193.71875 314.671875 194.296875 318.476562 194.296875 C 321.421875 194.296875 323.175781 193.953125 324.234375 193.574219 C 325.292969 193.195312 325.667969 192.765625 325.761719 192.621094 L 325.183594 192.230469 L 325.441406 192.882812 C 326.144531 192.605469 326.722656 192.167969 327.171875 191.640625 C 327.851562 190.84375 328.246094 189.859375 328.484375 188.84375 C 328.722656 187.824219 328.800781 186.757812 328.800781 185.769531 C 328.800781 183.550781 328.40625 181.703125 328.402344 181.671875 L 328.386719 181.625 C 328.363281 181.542969 328.351562 181.4375 328.351562 181.308594 C 328.347656 180.980469 328.453125 180.511719 328.632812 180.019531 C 328.898438 179.28125 329.320312 178.492188 329.671875 177.894531 C 329.847656 177.597656 330.007812 177.34375 330.121094 177.171875 C 330.179688 177.085938 330.222656 177.015625 330.253906 176.96875 L 330.289062 176.917969 L 330.300781 176.902344 L 330.351562 176.816406 C 330.488281 176.539062 330.53125 176.253906 330.535156 175.980469 C 330.53125 175.523438 330.414062 175.078125 330.261719 174.644531 C 330.035156 173.996094 329.707031 173.371094 329.4375 172.894531 C 329.167969 172.421875 328.953125 172.101562 328.945312 172.09375 L 328.367188 172.484375 L 328.464844 173.175781 C 329.171875 173.078125 329.746094 172.707031 330.179688 172.269531 C 330.832031 171.605469 331.226562 170.773438 331.484375 170.101562 C 331.738281 169.429688 331.84375 168.914062 331.847656 168.890625 C 331.894531 168.660156 331.824219 168.421875 331.660156 168.253906 C 331.378906 167.976562 331.191406 167.636719 331.066406 167.238281 C 330.941406 166.839844 330.886719 166.386719 330.886719 165.921875 C 330.886719 165.125 331.046875 164.300781 331.210938 163.6875 C 331.289062 163.382812 331.371094 163.125 331.433594 162.949219 C 331.460938 162.863281 331.488281 162.792969 331.503906 162.75 L 331.523438 162.699219 L 331.527344 162.691406 L 331.527344 162.6875 L 331.316406 162.605469 L 331.527344 162.6875 L 331.316406 162.605469 L 331.527344 162.6875 L 330.878906 162.429688 L 330.984375 163.121094 C 332.007812 162.960938 332.847656 162.707031 333.542969 162.375 C 334.585938 161.882812 335.285156 161.199219 335.703125 160.460938 C 336.121094 159.722656 336.25 158.953125 336.25 158.285156 C 336.246094 157.023438 335.808594 156.082031 335.789062 156.027344 L 335.765625 155.980469 C 334.585938 153.859375 333.933594 152.832031 333.117188 151.605469 C 332.304688 150.378906 331.328125 148.945312 329.453125 145.933594 C 328.070312 143.703125 327.296875 141.242188 326.847656 138.632812 C 326.164062 134.71875 326.210938 130.476562 325.90625 126.277344 C 325.601562 122.082031 324.945312 117.902344 322.769531 114.160156 C 320.382812 110.050781 318 106.535156 315.125 103.472656 C 312.25 100.410156 308.886719 97.808594 304.566406 95.535156 C 298.316406 92.242188 291.648438 90.9375 284.6875 90.59375 L 284.617188 91.992188 C 291.453125 92.328125 297.898438 93.601562 303.917969 96.769531 C 308.113281 98.980469 311.335938 101.472656 314.105469 104.425781 C 316.878906 107.378906 319.203125 110.800781 321.5625 114.859375 C 322.902344 117.164062 323.632812 119.675781 324.0625 122.324219 C 324.707031 126.296875 324.652344 130.554688 324.972656 134.734375 C 325.300781 138.90625 326.003906 143.027344 328.269531 146.667969 C 330.152344 149.695312 331.148438 151.160156 331.953125 152.378906 C 332.761719 153.59375 333.375 154.554688 334.542969 156.660156 L 335.152344 156.320312 L 334.519531 156.609375 L 334.519531 156.613281 C 334.542969 156.660156 334.859375 157.417969 334.855469 158.285156 C 334.855469 158.609375 334.8125 158.953125 334.703125 159.28125 C 334.539062 159.78125 334.238281 160.261719 333.644531 160.699219 C 333.050781 161.136719 332.144531 161.527344 330.773438 161.738281 C 330.527344 161.777344 330.320312 161.941406 330.230469 162.167969 C 330.222656 162.1875 330.042969 162.640625 329.859375 163.332031 C 329.675781 164.023438 329.492188 164.945312 329.492188 165.921875 C 329.492188 166.492188 329.554688 167.082031 329.734375 167.652344 C 329.910156 168.222656 330.207031 168.78125 330.671875 169.242188 L 331.164062 168.746094 L 330.480469 168.605469 L 330.597656 168.628906 L 330.480469 168.605469 L 330.597656 168.628906 L 330.480469 168.605469 C 330.476562 168.625 330.296875 169.445312 329.902344 170.238281 C 329.707031 170.636719 329.453125 171.023438 329.175781 171.300781 C 328.890625 171.582031 328.601562 171.746094 328.273438 171.792969 C 328.035156 171.824219 327.828125 171.980469 327.730469 172.199219 C 327.632812 172.417969 327.65625 172.675781 327.789062 172.875 L 327.792969 172.875 C 327.824219 172.925781 328.179688 173.460938 328.515625 174.121094 C 328.679688 174.449219 328.84375 174.808594 328.957031 175.140625 C 329.074219 175.472656 329.136719 175.785156 329.136719 175.980469 C 329.136719 176.101562 329.117188 176.171875 329.105469 176.191406 L 329.730469 176.503906 L 329.15625 176.101562 C 329.148438 176.117188 328.613281 176.878906 328.074219 177.890625 C 327.804688 178.394531 327.53125 178.964844 327.320312 179.542969 C 327.109375 180.128906 326.957031 180.71875 326.953125 181.308594 C 326.953125 181.542969 326.980469 181.78125 327.046875 182.011719 L 327.71875 181.816406 L 327.035156 181.960938 L 327.039062 181.976562 C 327.074219 182.15625 327.402344 183.84375 327.402344 185.769531 C 327.40625 186.988281 327.265625 188.304688 326.878906 189.363281 C 326.683594 189.894531 326.429688 190.359375 326.109375 190.734375 C 325.792969 191.105469 325.414062 191.390625 324.929688 191.582031 C 324.796875 191.632812 324.6875 191.722656 324.605469 191.839844 L 325.007812 192.113281 L 324.632812 191.804688 L 324.605469 191.839844 L 325.007812 192.113281 L 324.632812 191.804688 L 324.761719 191.910156 L 324.636719 191.800781 L 324.632812 191.804688 L 324.761719 191.910156 L 324.636719 191.800781 L 324.628906 191.808594 C 324.574219 191.859375 324.257812 192.132812 323.335938 192.394531 C 322.414062 192.65625 320.894531 192.902344 318.476562 192.902344 C 314.8125 192.902344 309.097656 192.339844 300.289062 190.472656 C 299.914062 190.390625 299.542969 190.628906 299.460938 191 C 299.453125 191.039062 298.894531 193.5625 298.894531 197.371094 C 298.894531 199.664062 299.097656 202.421875 299.753906 205.378906 L 300.433594 205.226562 L 300.433594 204.527344 L 255.492188 204.527344 L 255.492188 205.226562 L 256.171875 205.390625 C 256.179688 205.355469 257.582031 199.5 257.582031 191.925781 C 257.582031 188.421875 257.28125 184.550781 256.394531 180.714844 C 255.507812 176.878906 254.035156 173.078125 251.675781 169.730469 L 251.105469 170.132812 L 251.699219 169.765625 L 251.691406 169.753906 C 251.550781 169.523438 248.988281 165.324219 246.46875 159.023438 C 243.949219 152.722656 241.480469 144.3125 241.480469 135.679688 C 241.476562 124.742188 246.414062 113.785156 254.09375 105.582031 C 257.933594 101.480469 262.453125 98.070312 267.367188 95.6875 C 272.285156 93.304688 277.59375 91.949219 283.019531 91.949219 C 283.550781 91.949219 284.085938 91.964844 284.617188 91.992188 L 284.652344 91.292969 " fill-opacity="1" fill-rule="nonzero"/></g><g clip-path="url(#c3a25d48ef)"><path fill="#ffffff" d="M 281.523438 142.035156 L 283.277344 143.699219 C 283.335938 143.757812 283.390625 143.949219 283.371094 144.019531 C 283.1875 144.5 282.976562 144.972656 282.746094 145.425781 C 282.5 145.90625 282.226562 146.386719 281.929688 146.839844 C 281.886719 146.890625 281.722656 146.988281 281.597656 146.964844 L 279.242188 146.53125 C 278.382812 146.371094 277.285156 146.722656 276.636719 147.34375 C 276.308594 147.660156 275.953125 147.964844 275.582031 148.253906 C 274.855469 148.8125 274.363281 149.820312 274.386719 150.703125 L 274.453125 153.070312 C 274.449219 153.15625 274.351562 153.332031 274.285156 153.375 C 273.78125 153.601562 273.265625 153.800781 272.753906 153.964844 C 272.273438 154.125 271.773438 154.257812 271.277344 154.367188 L 271.273438 154.367188 C 271.175781 154.367188 271.011719 154.285156 270.964844 154.226562 L 269.625 152.28125 C 269.300781 151.8125 268.632812 151.019531 267.808594 151.019531 C 267.789062 151.019531 267.761719 151.019531 267.746094 151.019531 C 267.089844 151.054688 266.429688 151.003906 265.757812 150.914062 C 264.867188 150.796875 263.773438 151.167969 263.175781 151.800781 L 261.566406 153.496094 C 261.53125 153.53125 261.402344 153.59375 261.246094 153.59375 C 260.769531 153.40625 260.296875 153.195312 259.839844 152.964844 C 259.507812 152.792969 259.160156 152.597656 258.75 152.34375 L 258.621094 152.265625 C 258.550781 152.226562 258.480469 152.183594 258.433594 152.15625 C 258.421875 152.140625 258.40625 152.121094 258.390625 152.101562 C 258.320312 152 258.296875 151.863281 258.300781 151.816406 L 258.714844 149.578125 C 258.875 148.707031 258.539062 147.632812 257.898438 146.972656 C 257.546875 146.609375 257.210938 146.21875 256.902344 145.816406 C 256.363281 145.105469 255.382812 144.613281 254.515625 144.613281 C 254.507812 144.613281 254.464844 144.613281 254.453125 144.613281 L 252.171875 144.675781 C 252.089844 144.675781 251.914062 144.574219 251.875 144.511719 C 251.667969 144.046875 251.484375 143.566406 251.324219 143.078125 C 251.152344 142.558594 251.011719 142.023438 250.902344 141.496094 C 250.894531 141.414062 250.980469 141.226562 251.050781 141.175781 L 252.890625 139.90625 C 253.621094 139.40625 254.140625 138.410156 254.152344 137.492188 C 254.164062 136.964844 254.203125 136.441406 254.273438 135.929688 C 254.398438 135.015625 254.039062 133.953125 253.394531 133.34375 L 251.78125 131.8125 C 251.71875 131.75 251.664062 131.554688 251.679688 131.480469 C 251.871094 130.972656 252.097656 130.46875 252.34375 129.976562 C 252.578125 129.519531 252.835938 129.070312 253.101562 128.652344 C 253.144531 128.601562 253.292969 128.53125 253.425781 128.53125 L 255.640625 128.9375 C 256.503906 129.097656 257.597656 128.746094 258.246094 128.125 C 258.621094 127.761719 259.019531 127.421875 259.433594 127.109375 C 260.171875 126.554688 260.667969 125.546875 260.644531 124.664062 L 260.582031 122.394531 C 260.585938 122.308594 260.683594 122.132812 260.742188 122.097656 C 261.214844 121.886719 261.699219 121.703125 262.183594 121.546875 C 262.695312 121.378906 263.226562 121.234375 263.765625 121.125 C 263.867188 121.125 264.035156 121.207031 264.082031 121.269531 L 265.386719 123.164062 C 265.785156 123.742188 266.414062 124.429688 267.15625 124.429688 C 267.152344 124.429688 267.199219 124.429688 267.21875 124.425781 C 267.894531 124.394531 268.578125 124.453125 269.277344 124.550781 C 270.164062 124.675781 271.265625 124.308594 271.863281 123.675781 L 273.453125 122 C 273.488281 121.964844 273.625 121.898438 273.785156 121.898438 C 274.304688 122.097656 274.808594 122.320312 275.289062 122.5625 C 275.742188 122.792969 276.191406 123.050781 276.613281 123.320312 C 276.621094 123.332031 276.632812 123.34375 276.644531 123.355469 C 276.644531 123.359375 276.644531 123.359375 276.644531 123.359375 C 276.648438 123.367188 276.652344 123.375 276.660156 123.382812 C 276.722656 123.492188 276.742188 123.609375 276.738281 123.644531 L 276.308594 125.96875 C 276.148438 126.835938 276.476562 127.910156 277.109375 128.574219 C 277.4375 128.921875 277.746094 129.289062 278.035156 129.664062 C 278.574219 130.375 279.554688 130.871094 280.421875 130.871094 C 280.429688 130.871094 280.472656 130.871094 280.480469 130.871094 L 282.84375 130.804688 C 282.929688 130.804688 283.109375 130.90625 283.152344 130.96875 C 283.375 131.472656 283.574219 131.988281 283.746094 132.507812 C 283.902344 132.984375 284.039062 133.480469 284.148438 133.980469 C 284.152344 134.0625 284.070312 134.242188 284.003906 134.292969 L 282.027344 135.65625 C 281.296875 136.15625 280.773438 137.148438 280.75 138.066406 C 280.738281 138.523438 280.703125 138.992188 280.640625 139.457031 C 280.519531 140.367188 280.882812 141.429688 281.523438 142.035156 Z M 283.316406 137.53125 L 285.296875 136.167969 C 286.121094 135.601562 286.582031 134.453125 286.371094 133.5 C 286.246094 132.917969 286.089844 132.34375 285.910156 131.796875 C 285.714844 131.203125 285.484375 130.613281 285.226562 130.039062 C 284.835938 129.164062 283.832031 128.527344 282.84375 128.527344 C 282.832031 128.527344 282.792969 128.53125 282.785156 128.53125 L 280.421875 128.59375 C 280.277344 128.59375 279.960938 128.4375 279.847656 128.289062 C 279.511719 127.847656 279.148438 127.417969 278.761719 127.011719 C 278.632812 126.871094 278.523438 126.519531 278.546875 126.382812 L 278.976562 124.054688 C 279.085938 123.460938 278.957031 122.800781 278.625 122.238281 C 278.617188 122.21875 278.605469 122.199219 278.59375 122.179688 C 278.535156 122.089844 278.472656 122 278.414062 121.925781 C 278.386719 121.890625 278.355469 121.855469 278.335938 121.832031 C 278.277344 121.765625 278.21875 121.703125 278.167969 121.65625 C 278.066406 121.5625 277.960938 121.480469 277.851562 121.410156 C 277.355469 121.09375 276.839844 120.796875 276.320312 120.535156 C 275.769531 120.253906 275.1875 119.996094 274.59375 119.769531 C 273.695312 119.429688 272.464844 119.730469 271.800781 120.433594 L 270.210938 122.109375 C 270.148438 122.175781 269.886719 122.289062 269.597656 122.296875 C 268.882812 122.195312 268.171875 122.144531 267.476562 122.144531 C 267.414062 122.074219 267.335938 121.980469 267.261719 121.871094 L 265.957031 119.980469 C 265.40625 119.175781 264.238281 118.695312 263.300781 118.894531 C 262.679688 119.023438 262.066406 119.1875 261.476562 119.382812 C 260.921875 119.5625 260.367188 119.773438 259.824219 120.011719 C 258.933594 120.402344 258.28125 121.453125 258.308594 122.453125 L 258.367188 124.722656 C 258.371094 124.859375 258.210938 125.179688 258.0625 125.292969 C 257.578125 125.660156 257.109375 126.058594 256.667969 126.484375 C 256.5625 126.582031 256.292969 126.722656 256.050781 126.699219 L 253.835938 126.289062 C 252.863281 126.113281 251.707031 126.605469 251.191406 127.414062 C 250.878906 127.902344 250.582031 128.417969 250.3125 128.945312 C 250.027344 129.507812 249.773438 130.089844 249.550781 130.675781 C 249.207031 131.585938 249.492188 132.785156 250.214844 133.464844 L 251.828125 134.996094 C 251.925781 135.089844 252.042969 135.433594 252.019531 135.617188 C 251.9375 136.21875 251.886719 136.835938 251.875 137.453125 C 251.875 137.636719 251.707031 137.957031 251.597656 138.03125 L 249.757812 139.300781 C 248.9375 139.863281 248.472656 141.007812 248.671875 141.957031 C 248.800781 142.570312 248.964844 143.1875 249.160156 143.78125 C 249.34375 144.34375 249.554688 144.898438 249.789062 145.429688 C 250.179688 146.320312 251.222656 146.96875 252.230469 146.949219 L 254.515625 146.886719 C 254.660156 146.886719 254.976562 147.042969 255.09375 147.195312 C 255.457031 147.667969 255.847656 148.125 256.261719 148.554688 C 256.390625 148.6875 256.5 149.03125 256.472656 149.164062 L 256.0625 151.402344 C 255.933594 152.109375 256.140625 152.921875 256.59375 153.5 C 256.609375 153.523438 256.636719 153.558594 256.664062 153.585938 C 256.722656 153.660156 256.789062 153.734375 256.859375 153.796875 C 256.957031 153.890625 257.058594 153.972656 257.175781 154.050781 C 257.265625 154.109375 257.355469 154.164062 257.445312 154.214844 L 257.554688 154.285156 C 258.019531 154.570312 258.417969 154.796875 258.808594 154.996094 C 259.332031 155.261719 259.875 155.503906 260.421875 155.714844 C 261.320312 156.0625 262.554688 155.765625 263.21875 155.0625 L 264.828125 153.363281 C 264.902344 153.285156 265.171875 153.171875 265.445312 153.171875 C 265.449219 153.171875 265.453125 153.171875 265.457031 153.171875 C 266.15625 153.265625 266.847656 153.300781 267.53125 153.304688 C 267.59375 153.371094 267.675781 153.460938 267.75 153.574219 L 269.089844 155.519531 C 269.554688 156.191406 270.433594 156.644531 271.273438 156.644531 C 271.441406 156.644531 271.601562 156.628906 271.757812 156.59375 C 272.332031 156.46875 272.90625 156.3125 273.460938 156.132812 C 274.050781 155.9375 274.640625 155.710938 275.21875 155.449219 C 276.109375 155.050781 276.757812 154 276.726562 153.007812 L 276.664062 150.640625 C 276.660156 150.5 276.820312 150.171875 276.976562 150.054688 C 277.410156 149.714844 277.828125 149.355469 278.214844 148.984375 C 278.316406 148.886719 278.59375 148.757812 278.832031 148.773438 L 281.183594 149.203125 C 281.320312 149.230469 281.464844 149.242188 281.609375 149.242188 C 282.492188 149.242188 283.382812 148.78125 283.828125 148.09375 C 284.175781 147.5625 284.496094 147.011719 284.777344 146.457031 C 285.039062 145.933594 285.285156 145.394531 285.496094 144.847656 C 285.847656 143.9375 285.570312 142.734375 284.84375 142.046875 L 283.089844 140.382812 C 282.988281 140.289062 282.871094 139.949219 282.898438 139.757812 C 282.96875 139.210938 283.011719 138.660156 283.027344 138.121094 C 283.03125 137.933594 283.203125 137.609375 283.316406 137.53125 " fill-opacity="1" fill-rule="nonzero"/></g><path fill="#ffffff" d="M 273.066406 140.574219 C 272.300781 142.074219 271.003906 143.1875 269.410156 143.707031 C 268.769531 143.917969 268.113281 144.023438 267.457031 144.023438 C 264.726562 144.023438 262.320312 142.273438 261.472656 139.675781 C 260.953125 138.078125 261.082031 136.371094 261.847656 134.875 C 262.609375 133.375 263.90625 132.261719 265.507812 131.742188 C 266.140625 131.535156 266.796875 131.429688 267.460938 131.429688 C 270.191406 131.429688 272.59375 133.175781 273.441406 135.773438 C 273.960938 137.367188 273.828125 139.074219 273.066406 140.574219 Z M 267.460938 129.152344 C 266.558594 129.152344 265.664062 129.292969 264.800781 129.578125 C 262.625 130.285156 260.855469 131.800781 259.816406 133.84375 C 258.777344 135.882812 258.597656 138.207031 259.308594 140.382812 C 260.464844 143.921875 263.738281 146.296875 267.457031 146.296875 C 268.355469 146.296875 269.25 146.15625 270.113281 145.871094 C 272.289062 145.164062 274.058594 143.648438 275.09375 141.605469 C 276.132812 139.5625 276.316406 137.242188 275.605469 135.066406 C 274.453125 131.527344 271.179688 129.152344 267.460938 129.152344 " fill-opacity="1" fill-rule="nonzero"/><g clip-path="url(#c5cf8a0a4b)"><path fill="#ffffff" d="M 302.1875 118.019531 C 302.089844 118.484375 301.964844 118.953125 301.824219 119.402344 C 301.792969 119.460938 301.667969 119.546875 301.609375 119.558594 L 299.992188 119.6875 C 299.203125 119.75 298.285156 120.261719 297.761719 120.933594 C 297.535156 121.222656 297.28125 121.503906 297.011719 121.765625 C 296.40625 122.359375 295.996094 123.328125 296.015625 124.121094 L 296.058594 125.707031 C 296.058594 125.777344 295.980469 125.914062 295.941406 125.945312 C 295.464844 126.15625 294.980469 126.34375 294.496094 126.503906 C 294.039062 126.652344 293.570312 126.78125 293.117188 126.878906 L 293.117188 128.015625 L 293.117188 126.878906 C 293.039062 126.878906 292.910156 126.816406 292.875 126.773438 L 291.960938 125.441406 C 291.511719 124.789062 290.609375 124.25 289.769531 124.128906 C 289.398438 124.074219 289.027344 123.992188 288.667969 123.890625 C 288.402344 123.816406 288.109375 123.777344 287.796875 123.777344 C 287.433594 123.777344 286.734375 123.832031 286.128906 124.203125 L 284.753906 125.046875 C 284.742188 125.054688 284.691406 125.070312 284.617188 125.070312 L 284.519531 125.0625 C 284.511719 125.0625 284.496094 125.054688 284.476562 125.046875 C 284.101562 124.773438 283.730469 124.46875 283.371094 124.148438 C 282.996094 123.808594 282.625 123.441406 282.304688 123.085938 C 282.300781 123.085938 282.277344 123.027344 282.277344 123.027344 C 282.261719 122.976562 282.253906 122.921875 282.253906 122.875 C 282.257812 122.824219 282.265625 122.792969 282.265625 122.792969 L 282.976562 121.289062 C 283.328125 120.554688 283.375 119.570312 283.097656 118.902344 C 283.019531 118.710938 282.945312 118.519531 282.882812 118.320312 C 282.8125 118.101562 282.75 117.882812 282.699219 117.664062 C 282.519531 116.914062 281.894531 116.121094 281.183594 115.734375 L 279.691406 114.925781 C 279.636719 114.890625 279.558594 114.761719 279.554688 114.714844 C 279.605469 114.234375 279.683594 113.753906 279.78125 113.28125 C 279.886719 112.792969 280.019531 112.289062 280.175781 111.804688 C 280.210938 111.742188 280.335938 111.652344 280.398438 111.644531 L 282.140625 111.503906 C 282.925781 111.441406 283.84375 110.9375 284.375 110.28125 C 284.570312 110.039062 284.777344 109.808594 284.996094 109.59375 C 285.59375 108.996094 285.996094 108.03125 285.976562 107.242188 L 285.925781 105.476562 C 285.929688 105.410156 286.003906 105.277344 286.042969 105.25 C 286.484375 105.054688 286.941406 104.878906 287.394531 104.730469 C 287.882812 104.574219 288.386719 104.4375 288.875 104.335938 C 288.953125 104.335938 289.089844 104.402344 289.125 104.449219 L 290.121094 105.894531 C 290.570312 106.542969 291.46875 107.085938 292.308594 107.210938 C 292.605469 107.257812 292.90625 107.320312 293.207031 107.398438 C 294 107.609375 295.070312 107.46875 295.730469 107.066406 L 297.207031 106.160156 C 297.21875 106.152344 297.273438 106.132812 297.355469 106.132812 C 297.429688 106.132812 297.476562 106.148438 297.472656 106.144531 C 297.886719 106.445312 298.292969 106.769531 298.675781 107.113281 C 299.039062 107.4375 299.382812 107.78125 299.679688 108.097656 C 299.6875 108.113281 299.699219 108.144531 299.707031 108.160156 C 299.738281 108.257812 299.730469 108.359375 299.722656 108.386719 L 298.996094 109.914062 C 298.648438 110.644531 298.613281 111.652344 298.910156 112.371094 C 299 112.582031 299.078125 112.796875 299.148438 113.007812 C 299.210938 113.207031 299.265625 113.402344 299.3125 113.605469 C 299.480469 114.316406 300.101562 115.085938 300.816406 115.476562 L 302.28125 116.269531 C 302.339844 116.304688 302.417969 116.4375 302.421875 116.488281 C 302.371094 117 302.292969 117.515625 302.1875 118.019531 Z M 303.367188 114.265625 L 301.902344 113.472656 C 301.746094 113.386719 301.5625 113.167969 301.53125 113.089844 C 301.472656 112.828125 301.398438 112.570312 301.3125 112.304688 C 301.222656 112.027344 301.121094 111.753906 301.011719 111.496094 C 300.972656 111.382812 300.972656 111.058594 301.050781 110.894531 L 301.777344 109.363281 C 302.042969 108.808594 302.078125 108.09375 301.859375 107.414062 C 301.851562 107.394531 301.832031 107.34375 301.824219 107.324219 C 301.804688 107.273438 301.785156 107.222656 301.777344 107.214844 C 301.75 107.144531 301.714844 107.078125 301.683594 107.019531 L 301.636719 106.9375 C 301.628906 106.921875 301.617188 106.902344 301.605469 106.886719 C 301.539062 106.78125 301.464844 106.683594 301.390625 106.601562 C 301.015625 106.195312 300.617188 105.796875 300.195312 105.421875 C 299.753906 105.023438 299.285156 104.644531 298.800781 104.296875 C 298.054688 103.757812 296.816406 103.726562 296.019531 104.214844 L 294.539062 105.125 C 294.488281 105.15625 294.292969 105.222656 294.03125 105.222656 C 293.890625 105.222656 293.808594 105.203125 293.785156 105.195312 C 293.40625 105.097656 293.023438 105.015625 292.648438 104.960938 C 292.425781 104.925781 292.082031 104.722656 291.996094 104.601562 L 291 103.15625 C 290.460938 102.375 289.332031 101.910156 288.421875 102.105469 C 287.839844 102.226562 287.257812 102.382812 286.691406 102.566406 C 286.160156 102.738281 285.636719 102.941406 285.125 103.164062 C 284.261719 103.546875 283.625 104.5625 283.652344 105.53125 L 283.699219 107.304688 C 283.703125 107.453125 283.546875 107.824219 283.390625 107.980469 C 283.117188 108.25 282.851562 108.542969 282.605469 108.851562 C 282.460938 109.027344 282.109375 109.222656 281.960938 109.234375 L 280.21875 109.375 C 279.257812 109.449219 278.3125 110.183594 278.019531 111.082031 C 277.832031 111.660156 277.675781 112.242188 277.554688 112.808594 C 277.4375 113.355469 277.351562 113.910156 277.289062 114.46875 C 277.1875 115.40625 277.75 116.464844 278.601562 116.925781 L 280.101562 117.738281 C 280.257812 117.824219 280.453125 118.082031 280.480469 118.191406 C 280.546875 118.46875 280.625 118.75 280.714844 119.023438 C 280.800781 119.277344 280.890625 119.523438 280.988281 119.753906 C 281.015625 119.859375 281 120.148438 280.921875 120.3125 L 280.207031 121.816406 C 280.066406 122.113281 279.988281 122.445312 279.980469 122.808594 C 279.96875 123.097656 280.007812 123.386719 280.089844 123.667969 C 280.097656 123.683594 280.117188 123.753906 280.125 123.769531 C 280.160156 123.875 280.203125 123.976562 280.257812 124.085938 C 280.265625 124.105469 280.300781 124.167969 280.308594 124.1875 C 280.390625 124.332031 280.480469 124.457031 280.582031 124.574219 C 280.984375 125.019531 281.410156 125.449219 281.851562 125.84375 C 282.273438 126.222656 282.710938 126.578125 283.152344 126.898438 C 283.25 126.972656 283.359375 127.035156 283.46875 127.089844 C 283.523438 127.117188 283.582031 127.140625 283.6875 127.183594 C 283.703125 127.191406 283.753906 127.207031 283.773438 127.214844 C 283.863281 127.246094 283.957031 127.269531 284.019531 127.28125 C 284.039062 127.285156 284.066406 127.292969 284.082031 127.296875 C 284.179688 127.316406 284.277344 127.328125 284.386719 127.335938 C 284.949219 127.382812 285.503906 127.261719 285.941406 126.992188 L 287.320312 126.144531 C 287.367188 126.117188 287.546875 126.054688 287.796875 126.054688 C 287.9375 126.054688 288.023438 126.078125 288.046875 126.082031 C 288.503906 126.210938 288.972656 126.3125 289.441406 126.378906 C 289.660156 126.414062 290 126.613281 290.082031 126.734375 L 291 128.0625 C 291.449219 128.71875 292.300781 129.15625 293.117188 129.15625 C 293.277344 129.15625 293.433594 129.140625 293.585938 129.105469 C 294.128906 128.988281 294.675781 128.839844 295.203125 128.667969 C 295.761719 128.484375 296.324219 128.269531 296.875 128.019531 C 297.734375 127.632812 298.359375 126.617188 298.335938 125.652344 L 298.292969 124.058594 C 298.289062 123.910156 298.445312 123.550781 298.601562 123.394531 C 298.945312 123.058594 299.265625 122.703125 299.550781 122.335938 C 299.691406 122.164062 300.03125 121.96875 300.175781 121.957031 L 301.789062 121.828125 C 302.753906 121.75 303.699219 121.011719 303.984375 120.109375 C 304.15625 119.570312 304.300781 119.027344 304.414062 118.488281 C 304.535156 117.90625 304.628906 117.308594 304.6875 116.71875 C 304.785156 115.777344 304.214844 114.722656 303.367188 114.265625 " fill-opacity="1" fill-rule="nonzero"/></g><path fill="#ffffff" d="M 294.074219 117.222656 C 293.660156 118.039062 292.953125 118.644531 292.082031 118.929688 C 291.730469 119.042969 291.371094 119.101562 291.015625 119.101562 C 289.527344 119.101562 288.214844 118.148438 287.753906 116.730469 C 287.46875 115.859375 287.542969 114.929688 287.957031 114.113281 C 288.375 113.292969 289.082031 112.6875 289.949219 112.402344 C 290.300781 112.289062 290.660156 112.230469 291.019531 112.230469 C 292.507812 112.230469 293.816406 113.183594 294.277344 114.601562 C 294.5625 115.472656 294.492188 116.402344 294.074219 117.222656 Z M 291.019531 109.957031 C 290.417969 109.957031 289.824219 110.050781 289.246094 110.238281 C 287.796875 110.710938 286.621094 111.71875 285.925781 113.082031 C 285.234375 114.441406 285.117188 115.988281 285.585938 117.4375 C 286.355469 119.792969 288.539062 121.378906 291.015625 121.378906 C 291.613281 121.378906 292.207031 121.28125 292.789062 121.09375 C 294.238281 120.621094 295.417969 119.609375 296.105469 118.253906 C 296.796875 116.894531 296.917969 115.347656 296.445312 113.898438 C 295.675781 111.539062 293.496094 109.957031 291.019531 109.957031 " fill-opacity="1" fill-rule="nonzero"/><g fill="#156082" fill-opacity="1"><g transform="translate(6.086623, 262.563342)"><g><path d="M 58.34375 -35.796875 L 46.640625 0 L 37.734375 0 L 29.859375 -24.234375 L 21.734375 0 L 12.890625 0 L 1.125 -35.796875 L 9.71875 -35.796875 L 17.796875 -10.640625 L 26.234375 -35.796875 L 33.90625 -35.796875 L 42.09375 -10.4375 L 50.421875 -35.796875 Z M 58.34375 -35.796875 "/></g></g></g><g fill="#156082" fill-opacity="1"><g transform="translate(65.545731, 262.563342)"><g><path d="M 3.6875 -27.515625 L 11.65625 -27.515625 L 11.65625 0 L 3.6875 0 Z M 7.671875 -31.34375 C 6.203125 -31.34375 5.007812 -31.769531 4.09375 -32.625 C 3.175781 -33.476562 2.71875 -34.535156 2.71875 -35.796875 C 2.71875 -37.054688 3.175781 -38.113281 4.09375 -38.96875 C 5.007812 -39.820312 6.203125 -40.25 7.671875 -40.25 C 9.140625 -40.25 10.332031 -39.835938 11.25 -39.015625 C 12.175781 -38.203125 12.640625 -37.179688 12.640625 -35.953125 C 12.640625 -34.617188 12.175781 -33.515625 11.25 -32.640625 C 10.332031 -31.773438 9.140625 -31.34375 7.671875 -31.34375 Z M 7.671875 -31.34375 "/></g></g></g><g fill="#156082" fill-opacity="1"><g transform="translate(80.934543, 262.563342)"><g><path d="M 12.9375 0.40625 C 10.65625 0.40625 8.421875 0.125 6.234375 -0.4375 C 4.054688 -1 2.316406 -1.707031 1.015625 -2.5625 L 3.6875 -8.28125 C 4.90625 -7.5 6.382812 -6.859375 8.125 -6.359375 C 9.863281 -5.867188 11.570312 -5.625 13.25 -5.625 C 16.625 -5.625 18.3125 -6.457031 18.3125 -8.125 C 18.3125 -8.914062 17.847656 -9.476562 16.921875 -9.8125 C 16.003906 -10.15625 14.59375 -10.445312 12.6875 -10.6875 C 10.4375 -11.03125 8.578125 -11.421875 7.109375 -11.859375 C 5.640625 -12.304688 4.367188 -13.09375 3.296875 -14.21875 C 2.222656 -15.34375 1.6875 -16.945312 1.6875 -19.03125 C 1.6875 -20.757812 2.1875 -22.296875 3.1875 -23.640625 C 4.195312 -24.992188 5.664062 -26.046875 7.59375 -26.796875 C 9.519531 -27.546875 11.796875 -27.921875 14.421875 -27.921875 C 16.367188 -27.921875 18.300781 -27.707031 20.21875 -27.28125 C 22.144531 -26.851562 23.738281 -26.265625 25 -25.515625 L 22.34375 -19.84375 C 19.925781 -21.207031 17.285156 -21.890625 14.421875 -21.890625 C 12.710938 -21.890625 11.429688 -21.648438 10.578125 -21.171875 C 9.734375 -20.691406 9.3125 -20.078125 9.3125 -19.328125 C 9.3125 -18.472656 9.769531 -17.875 10.6875 -17.53125 C 11.601562 -17.195312 13.070312 -16.875 15.09375 -16.5625 C 17.34375 -16.1875 19.179688 -15.785156 20.609375 -15.359375 C 22.035156 -14.941406 23.273438 -14.171875 24.328125 -13.046875 C 25.390625 -11.921875 25.921875 -10.347656 25.921875 -8.328125 C 25.921875 -6.628906 25.410156 -5.113281 24.390625 -3.78125 C 23.367188 -2.457031 21.878906 -1.425781 19.921875 -0.6875 C 17.960938 0.0390625 15.632812 0.40625 12.9375 0.40625 Z M 12.9375 0.40625 "/></g></g></g><g fill="#156082" fill-opacity="1"><g transform="translate(108.082258, 262.563342)"><g><path d="M 12.9375 0.40625 C 10.65625 0.40625 8.421875 0.125 6.234375 -0.4375 C 4.054688 -1 2.316406 -1.707031 1.015625 -2.5625 L 3.6875 -8.28125 C 4.90625 -7.5 6.382812 -6.859375 8.125 -6.359375 C 9.863281 -5.867188 11.570312 -5.625 13.25 -5.625 C 16.625 -5.625 18.3125 -6.457031 18.3125 -8.125 C 18.3125 -8.914062 17.847656 -9.476562 16.921875 -9.8125 C 16.003906 -10.15625 14.59375 -10.445312 12.6875 -10.6875 C 10.4375 -11.03125 8.578125 -11.421875 7.109375 -11.859375 C 5.640625 -12.304688 4.367188 -13.09375 3.296875 -14.21875 C 2.222656 -15.34375 1.6875 -16.945312 1.6875 -19.03125 C 1.6875 -20.757812 2.1875 -22.296875 3.1875 -23.640625 C 4.195312 -24.992188 5.664062 -26.046875 7.59375 -26.796875 C 9.519531 -27.546875 11.796875 -27.921875 14.421875 -27.921875 C 16.367188 -27.921875 18.300781 -27.707031 20.21875 -27.28125 C 22.144531 -26.851562 23.738281 -26.265625 25 -25.515625 L 22.34375 -19.84375 C 19.925781 -21.207031 17.285156 -21.890625 14.421875 -21.890625 C 12.710938 -21.890625 11.429688 -21.648438 10.578125 -21.171875 C 9.734375 -20.691406 9.3125 -20.078125 9.3125 -19.328125 C 9.3125 -18.472656 9.769531 -17.875 10.6875 -17.53125 C 11.601562 -17.195312 13.070312 -16.875 15.09375 -16.5625 C 17.34375 -16.1875 19.179688 -15.785156 20.609375 -15.359375 C 22.035156 -14.941406 23.273438 -14.171875 24.328125 -13.046875 C 25.390625 -11.921875 25.921875 -10.347656 25.921875 -8.328125 C 25.921875 -6.628906 25.410156 -5.113281 24.390625 -3.78125 C 23.367188 -2.457031 21.878906 -1.425781 19.921875 -0.6875 C 17.960938 0.0390625 15.632812 0.40625 12.9375 0.40625 Z M 12.9375 0.40625 "/></g></g></g><g fill="#156082" fill-opacity="1"><g transform="translate(135.229973, 262.563342)"><g><path d="M 30.640625 -13.65625 C 30.640625 -13.550781 30.585938 -12.832031 30.484375 -11.5 L 9.671875 -11.5 C 10.046875 -9.800781 10.929688 -8.457031 12.328125 -7.46875 C 13.722656 -6.476562 15.460938 -5.984375 17.546875 -5.984375 C 18.972656 -5.984375 20.238281 -6.195312 21.34375 -6.625 C 22.457031 -7.050781 23.488281 -7.722656 24.4375 -8.640625 L 28.6875 -4.046875 C 26.09375 -1.078125 22.3125 0.40625 17.34375 0.40625 C 14.238281 0.40625 11.488281 -0.195312 9.09375 -1.40625 C 6.707031 -2.613281 4.867188 -4.289062 3.578125 -6.4375 C 2.285156 -8.59375 1.640625 -11.03125 1.640625 -13.75 C 1.640625 -16.445312 2.273438 -18.878906 3.546875 -21.046875 C 4.828125 -23.210938 6.582031 -24.898438 8.8125 -26.109375 C 11.050781 -27.316406 13.550781 -27.921875 16.3125 -27.921875 C 19.007812 -27.921875 21.445312 -27.335938 23.625 -26.171875 C 25.8125 -25.015625 27.523438 -23.351562 28.765625 -21.1875 C 30.015625 -19.03125 30.640625 -16.519531 30.640625 -13.65625 Z M 16.359375 -21.890625 C 14.554688 -21.890625 13.039062 -21.375 11.8125 -20.34375 C 10.582031 -19.320312 9.832031 -17.925781 9.5625 -16.15625 L 23.109375 -16.15625 C 22.835938 -17.894531 22.085938 -19.285156 20.859375 -20.328125 C 19.640625 -21.367188 18.140625 -21.890625 16.359375 -21.890625 Z M 16.359375 -21.890625 "/></g></g></g><g fill="#156082" fill-opacity="1"><g transform="translate(167.490248, 262.563342)"><g><path d="M 20.40625 -27.921875 C 23.8125 -27.921875 26.5625 -26.894531 28.65625 -24.84375 C 30.757812 -22.800781 31.8125 -19.769531 31.8125 -15.75 L 31.8125 0 L 23.828125 0 L 23.828125 -14.53125 C 23.828125 -16.707031 23.347656 -18.332031 22.390625 -19.40625 C 21.441406 -20.476562 20.0625 -21.015625 18.25 -21.015625 C 16.238281 -21.015625 14.632812 -20.390625 13.4375 -19.140625 C 12.25 -17.898438 11.65625 -16.054688 11.65625 -13.609375 L 11.65625 0 L 3.6875 0 L 3.6875 -27.515625 L 11.296875 -27.515625 L 11.296875 -24.296875 C 12.359375 -25.453125 13.671875 -26.34375 15.234375 -26.96875 C 16.804688 -27.601562 18.53125 -27.921875 20.40625 -27.921875 Z M 20.40625 -27.921875 "/></g></g></g><g fill="#156082" fill-opacity="1"><g transform="translate(202.818065, 262.563342)"><g><path d="M 12.9375 0.40625 C 10.65625 0.40625 8.421875 0.125 6.234375 -0.4375 C 4.054688 -1 2.316406 -1.707031 1.015625 -2.5625 L 3.6875 -8.28125 C 4.90625 -7.5 6.382812 -6.859375 8.125 -6.359375 C 9.863281 -5.867188 11.570312 -5.625 13.25 -5.625 C 16.625 -5.625 18.3125 -6.457031 18.3125 -8.125 C 18.3125 -8.914062 17.847656 -9.476562 16.921875 -9.8125 C 16.003906 -10.15625 14.59375 -10.445312 12.6875 -10.6875 C 10.4375 -11.03125 8.578125 -11.421875 7.109375 -11.859375 C 5.640625 -12.304688 4.367188 -13.09375 3.296875 -14.21875 C 2.222656 -15.34375 1.6875 -16.945312 1.6875 -19.03125 C 1.6875 -20.757812 2.1875 -22.296875 3.1875 -23.640625 C 4.195312 -24.992188 5.664062 -26.046875 7.59375 -26.796875 C 9.519531 -27.546875 11.796875 -27.921875 14.421875 -27.921875 C 16.367188 -27.921875 18.300781 -27.707031 20.21875 -27.28125 C 22.144531 -26.851562 23.738281 -26.265625 25 -25.515625 L 22.34375 -19.84375 C 19.925781 -21.207031 17.285156 -21.890625 14.421875 -21.890625 C 12.710938 -21.890625 11.429688 -21.648438 10.578125 -21.171875 C 9.734375 -20.691406 9.3125 -20.078125 9.3125 -19.328125 C 9.3125 -18.472656 9.769531 -17.875 10.6875 -17.53125 C 11.601562 -17.195312 13.070312 -16.875 15.09375 -16.5625 C 17.34375 -16.1875 19.179688 -15.785156 20.609375 -15.359375 C 22.035156 -14.941406 23.273438 -14.171875 24.328125 -13.046875 C 25.390625 -11.921875 25.921875 -10.347656 25.921875 -8.328125 C 25.921875 -6.628906 25.410156 -5.113281 24.390625 -3.78125 C 23.367188 -2.457031 21.878906 -1.425781 19.921875 -0.6875 C 17.960938 0.0390625 15.632812 0.40625 12.9375 0.40625 Z M 12.9375 0.40625 "/></g></g></g><g fill="#156082" fill-opacity="1"><g transform="translate(229.979529, 262.563342)"><g><path d="M 54.96875 -35.796875 L 42.90625 0 L 38.921875 0 L 28.4375 -30.53125 L 17.90625 0 L 13.96875 0 L 1.890625 -35.796875 L 5.78125 -35.796875 L 16.109375 -5.015625 L 26.796875 -35.796875 L 30.328125 -35.796875 L 40.859375 -4.859375 L 51.34375 -35.796875 Z M 54.96875 -35.796875 "/></g></g></g><g fill="#156082" fill-opacity="1"><g transform="translate(286.780108, 262.563342)"><g><path d="M 28.484375 -12.328125 L 5.984375 -12.328125 C 6.191406 -9.523438 7.265625 -7.265625 9.203125 -5.546875 C 11.148438 -3.828125 13.601562 -2.96875 16.5625 -2.96875 C 18.238281 -2.96875 19.773438 -3.265625 21.171875 -3.859375 C 22.566406 -4.453125 23.773438 -5.332031 24.796875 -6.5 L 26.84375 -4.140625 C 25.65625 -2.710938 24.164062 -1.625 22.375 -0.875 C 20.582031 -0.125 18.613281 0.25 16.46875 0.25 C 13.707031 0.25 11.257812 -0.332031 9.125 -1.5 C 7 -2.675781 5.335938 -4.304688 4.140625 -6.390625 C 2.953125 -8.472656 2.359375 -10.828125 2.359375 -13.453125 C 2.359375 -16.078125 2.925781 -18.425781 4.0625 -20.5 C 5.207031 -22.582031 6.773438 -24.203125 8.765625 -25.359375 C 10.765625 -26.523438 13.007812 -27.109375 15.5 -27.109375 C 17.988281 -27.109375 20.21875 -26.523438 22.1875 -25.359375 C 24.164062 -24.203125 25.71875 -22.59375 26.84375 -20.53125 C 27.96875 -18.46875 28.53125 -16.109375 28.53125 -13.453125 Z M 15.5 -23.984375 C 12.90625 -23.984375 10.726562 -23.15625 8.96875 -21.5 C 7.21875 -19.851562 6.222656 -17.695312 5.984375 -15.03125 L 25.0625 -15.03125 C 24.820312 -17.695312 23.820312 -19.851562 22.0625 -21.5 C 20.3125 -23.15625 18.125 -23.984375 15.5 -23.984375 Z M 15.5 -23.984375 "/></g></g></g><g fill="#156082" fill-opacity="1"><g transform="translate(317.659994, 262.563342)"><g><path d="M 8.546875 -21.625 C 9.390625 -23.4375 10.65625 -24.800781 12.34375 -25.71875 C 14.03125 -26.644531 16.117188 -27.109375 18.609375 -27.109375 L 18.609375 -23.578125 L 17.75 -23.625 C 14.914062 -23.625 12.695312 -22.753906 11.09375 -21.015625 C 9.488281 -19.273438 8.6875 -16.835938 8.6875 -13.703125 L 8.6875 0 L 5.0625 0 L 5.0625 -26.90625 L 8.546875 -26.90625 Z M 8.546875 -21.625 "/></g></g></g><g fill="#156082" fill-opacity="1"><g transform="translate(338.161378, 262.563342)"><g><path d="M 15.03125 -13.5 L 8.6875 -7.671875 L 8.6875 0 L 5.0625 0 L 5.0625 -37.953125 L 8.6875 -37.953125 L 8.6875 -12.21875 L 24.75 -26.90625 L 29.25 -26.90625 L 17.75 -15.90625 L 30.328125 0 L 25.875 0 Z M 15.03125 -13.5 "/></g></g></g><g fill="#000000" fill-opacity="1"><g transform="translate(79.581801, 320.4795)"><g><path d="M 9.984375 -14.296875 C 11.316406 -14.296875 12.519531 -13.992188 13.59375 -13.390625 C 14.675781 -12.796875 15.519531 -11.945312 16.125 -10.84375 C 16.738281 -9.75 17.046875 -8.5 17.046875 -7.09375 C 17.046875 -5.6875 16.738281 -4.4375 16.125 -3.34375 C 15.519531 -2.25 14.675781 -1.394531 13.59375 -0.78125 C 12.519531 -0.164062 11.316406 0.140625 9.984375 0.140625 C 8.796875 0.140625 7.726562 -0.109375 6.78125 -0.609375 C 5.84375 -1.117188 5.082031 -1.851562 4.5 -2.8125 L 4.5 0 L 2.671875 0 L 2.671875 -20.015625 L 4.59375 -20.015625 L 4.59375 -11.5 C 5.1875 -12.414062 5.941406 -13.109375 6.859375 -13.578125 C 7.785156 -14.054688 8.828125 -14.296875 9.984375 -14.296875 Z M 9.84375 -1.5625 C 10.832031 -1.5625 11.734375 -1.789062 12.546875 -2.25 C 13.359375 -2.707031 13.992188 -3.359375 14.453125 -4.203125 C 14.910156 -5.054688 15.140625 -6.019531 15.140625 -7.09375 C 15.140625 -8.175781 14.910156 -9.140625 14.453125 -9.984375 C 13.992188 -10.828125 13.359375 -11.476562 12.546875 -11.9375 C 11.734375 -12.394531 10.832031 -12.625 9.84375 -12.625 C 8.84375 -12.625 7.941406 -12.394531 7.140625 -11.9375 C 6.335938 -11.476562 5.707031 -10.828125 5.25 -9.984375 C 4.789062 -9.140625 4.5625 -8.175781 4.5625 -7.09375 C 4.5625 -6.019531 4.789062 -5.054688 5.25 -4.203125 C 5.707031 -3.359375 6.335938 -2.707031 7.140625 -2.25 C 7.941406 -1.789062 8.84375 -1.5625 9.84375 -1.5625 Z M 9.84375 -1.5625 "/></g></g></g><g fill="#000000" fill-opacity="1"><g transform="translate(97.876944, 320.4795)"><g><path d="M 14.59375 -14.1875 L 7.5 1.703125 C 6.925781 3.035156 6.257812 3.976562 5.5 4.53125 C 4.75 5.09375 3.84375 5.375 2.78125 5.375 C 2.09375 5.375 1.453125 5.265625 0.859375 5.046875 C 0.265625 4.828125 -0.242188 4.503906 -0.671875 4.078125 L 0.21875 2.640625 C 0.9375 3.359375 1.800781 3.71875 2.8125 3.71875 C 3.457031 3.71875 4.007812 3.535156 4.46875 3.171875 C 4.925781 2.816406 5.351562 2.207031 5.75 1.34375 L 6.375 -0.03125 L 0.03125 -14.1875 L 2.03125 -14.1875 L 7.359375 -2.125 L 12.703125 -14.1875 Z M 14.59375 -14.1875 "/></g></g></g><g clip-path="url(#89326f3057)"><path fill="#156082" d="M 175.902344 113.605469 L 173.351562 116.023438 C 173.265625 116.109375 173.1875 116.390625 173.210938 116.492188 C 173.480469 117.1875 173.789062 117.875 174.125 118.539062 C 174.480469 119.238281 174.882812 119.933594 175.316406 120.597656 C 175.375 120.671875 175.613281 120.8125 175.796875 120.777344 L 179.222656 120.148438 C 180.476562 119.917969 182.074219 120.425781 183.015625 121.328125 C 183.496094 121.789062 184.011719 122.234375 184.550781 122.652344 C 185.609375 123.46875 186.324219 124.933594 186.289062 126.21875 L 186.199219 129.664062 C 186.199219 129.789062 186.347656 130.050781 186.4375 130.105469 C 187.171875 130.4375 187.921875 130.730469 188.667969 130.972656 C 189.371094 131.199219 190.097656 131.398438 190.816406 131.554688 L 190.824219 131.558594 C 190.96875 131.558594 191.207031 131.433594 191.273438 131.347656 L 193.222656 128.519531 C 193.695312 127.832031 194.667969 126.679688 195.867188 126.679688 C 195.894531 126.679688 195.933594 126.683594 195.964844 126.683594 C 196.914062 126.734375 197.875 126.65625 198.855469 126.527344 C 200.148438 126.355469 201.742188 126.898438 202.613281 127.816406 L 204.953125 130.289062 C 205.003906 130.335938 205.195312 130.425781 205.421875 130.429688 C 206.113281 130.15625 206.804688 129.847656 207.46875 129.511719 C 207.957031 129.265625 208.460938 128.980469 209.058594 128.609375 L 209.246094 128.496094 C 209.347656 128.4375 209.445312 128.375 209.515625 128.335938 C 209.53125 128.3125 209.554688 128.285156 209.578125 128.257812 C 209.679688 128.109375 209.71875 127.90625 209.707031 127.839844 L 209.109375 124.582031 C 208.875 123.3125 209.363281 121.753906 210.296875 120.789062 C 210.808594 120.257812 211.296875 119.691406 211.746094 119.105469 C 212.53125 118.074219 213.960938 117.351562 215.21875 117.351562 C 215.234375 117.351562 215.296875 117.351562 215.3125 117.355469 L 218.632812 117.445312 C 218.753906 117.445312 219.011719 117.300781 219.066406 117.207031 C 219.367188 116.53125 219.636719 115.828125 219.867188 115.117188 C 220.113281 114.363281 220.320312 113.585938 220.480469 112.820312 C 220.492188 112.695312 220.367188 112.425781 220.265625 112.351562 L 217.589844 110.503906 C 216.523438 109.773438 215.769531 108.320312 215.746094 106.984375 C 215.734375 106.222656 215.675781 105.457031 215.570312 104.710938 C 215.390625 103.382812 215.917969 101.835938 216.851562 100.953125 L 219.203125 98.71875 C 219.292969 98.632812 219.371094 98.34375 219.347656 98.234375 C 219.070312 97.496094 218.742188 96.761719 218.382812 96.050781 C 218.042969 95.378906 217.667969 94.726562 217.277344 94.117188 C 217.21875 94.046875 217 93.941406 216.808594 93.941406 L 213.585938 94.535156 C 212.328125 94.769531 210.730469 94.257812 209.792969 93.351562 C 209.246094 92.824219 208.660156 92.328125 208.058594 91.875 C 206.988281 91.066406 206.261719 89.601562 206.296875 88.3125 L 206.386719 85.007812 C 206.386719 84.886719 206.242188 84.632812 206.15625 84.574219 C 205.46875 84.273438 204.761719 84.003906 204.058594 83.773438 C 203.3125 83.53125 202.535156 83.324219 201.753906 83.160156 C 201.605469 83.160156 201.359375 83.28125 201.292969 83.375 L 199.394531 86.128906 C 198.816406 86.96875 197.898438 87.972656 196.816406 87.972656 C 196.824219 87.972656 196.757812 87.96875 196.730469 87.96875 C 195.746094 87.921875 194.75 88.003906 193.734375 88.148438 C 192.441406 88.332031 190.835938 87.796875 189.964844 86.875 L 187.652344 84.433594 C 187.601562 84.382812 187.40625 84.289062 187.167969 84.289062 C 186.414062 84.574219 185.675781 84.898438 184.980469 85.257812 C 184.316406 85.589844 183.664062 85.964844 183.054688 86.359375 C 183.039062 86.375 183.023438 86.394531 183.007812 86.410156 C 183.007812 86.414062 183.003906 86.414062 183.003906 86.417969 C 183 86.425781 182.992188 86.4375 182.984375 86.449219 C 182.890625 86.605469 182.863281 86.777344 182.871094 86.828125 L 183.492188 90.214844 C 183.730469 91.476562 183.25 93.039062 182.332031 94.007812 C 181.851562 94.511719 181.402344 95.042969 180.984375 95.59375 C 180.195312 96.628906 178.769531 97.347656 177.507812 97.347656 C 177.496094 97.347656 177.433594 97.347656 177.417969 97.347656 L 173.980469 97.253906 C 173.855469 97.253906 173.59375 97.402344 173.535156 97.492188 C 173.207031 98.222656 172.914062 98.976562 172.671875 99.730469 C 172.441406 100.425781 172.242188 101.152344 172.082031 101.875 C 172.074219 101.992188 172.195312 102.257812 172.292969 102.328125 L 175.171875 104.316406 C 176.230469 105.042969 176.992188 106.488281 177.027344 107.820312 C 177.042969 108.488281 177.097656 109.171875 177.1875 109.847656 C 177.367188 111.175781 176.835938 112.722656 175.902344 113.605469 Z M 173.292969 107.042969 L 170.414062 105.058594 C 169.210938 104.234375 168.539062 102.566406 168.84375 101.175781 C 169.03125 100.328125 169.257812 99.496094 169.519531 98.699219 C 169.800781 97.835938 170.132812 96.972656 170.511719 96.136719 C 171.082031 94.863281 172.542969 93.941406 173.980469 93.941406 C 173.996094 93.941406 174.054688 93.941406 174.066406 93.941406 L 177.507812 94.035156 C 177.71875 94.035156 178.175781 93.808594 178.34375 93.589844 C 178.832031 92.945312 179.363281 92.320312 179.921875 91.730469 C 180.113281 91.527344 180.269531 91.015625 180.234375 90.816406 L 179.609375 87.425781 C 179.453125 86.5625 179.636719 85.601562 180.121094 84.78125 C 180.136719 84.753906 180.152344 84.726562 180.171875 84.699219 C 180.253906 84.5625 180.34375 84.433594 180.425781 84.328125 C 180.46875 84.277344 180.515625 84.222656 180.546875 84.191406 C 180.628906 84.09375 180.714844 84.003906 180.789062 83.9375 C 180.9375 83.796875 181.085938 83.675781 181.246094 83.574219 C 181.96875 83.113281 182.71875 82.683594 183.476562 82.300781 C 184.277344 81.894531 185.125 81.519531 185.992188 81.1875 C 187.296875 80.691406 189.089844 81.132812 190.058594 82.152344 L 192.371094 84.59375 C 192.464844 84.695312 192.839844 84.859375 193.265625 84.867188 C 194.304688 84.71875 195.34375 84.644531 196.351562 84.644531 C 196.441406 84.542969 196.554688 84.410156 196.667969 84.246094 L 198.5625 81.496094 C 199.367188 80.320312 201.066406 79.625 202.429688 79.914062 C 203.335938 80.101562 204.230469 80.34375 205.089844 80.625 C 205.894531 80.886719 206.703125 81.195312 207.488281 81.539062 C 208.785156 82.109375 209.738281 83.636719 209.699219 85.09375 L 209.609375 88.398438 C 209.605469 88.59375 209.839844 89.066406 210.054688 89.226562 C 210.761719 89.761719 211.445312 90.34375 212.089844 90.960938 C 212.242188 91.109375 212.636719 91.3125 212.984375 91.273438 L 216.207031 90.679688 C 217.628906 90.421875 219.308594 91.140625 220.0625 92.316406 C 220.515625 93.027344 220.945312 93.78125 221.335938 94.546875 C 221.753906 95.367188 222.125 96.210938 222.449219 97.0625 C 222.949219 98.390625 222.53125 100.136719 221.484375 101.128906 L 219.132812 103.355469 C 218.988281 103.492188 218.820312 103.992188 218.855469 104.261719 C 218.976562 105.136719 219.046875 106.03125 219.0625 106.929688 C 219.066406 107.199219 219.308594 107.664062 219.46875 107.773438 L 222.144531 109.621094 C 223.339844 110.441406 224.019531 112.105469 223.726562 113.484375 C 223.542969 114.382812 223.300781 115.277344 223.019531 116.144531 C 222.75 116.960938 222.441406 117.769531 222.101562 118.542969 C 221.53125 119.839844 220.011719 120.78125 218.546875 120.757812 L 215.21875 120.667969 C 215.011719 120.667969 214.550781 120.890625 214.378906 121.117188 C 213.851562 121.804688 213.28125 122.46875 212.679688 123.089844 C 212.492188 123.285156 212.335938 123.789062 212.367188 123.980469 L 212.96875 127.238281 C 213.160156 128.265625 212.855469 129.449219 212.195312 130.292969 C 212.171875 130.324219 212.132812 130.375 212.09375 130.417969 C 212.003906 130.527344 211.910156 130.632812 211.808594 130.726562 C 211.667969 130.859375 211.515625 130.980469 211.347656 131.09375 C 211.21875 131.175781 211.089844 131.257812 210.957031 131.335938 L 210.796875 131.433594 C 210.121094 131.851562 209.539062 132.179688 208.96875 132.46875 C 208.207031 132.855469 207.417969 133.207031 206.621094 133.519531 C 205.3125 134.023438 203.515625 133.589844 202.546875 132.566406 L 200.207031 130.09375 C 200.097656 129.980469 199.703125 129.8125 199.308594 129.8125 C 199.300781 129.8125 199.296875 129.8125 199.292969 129.8125 C 198.277344 129.949219 197.265625 130.003906 196.273438 130.007812 C 196.179688 130.105469 196.066406 130.238281 195.953125 130.402344 L 194.003906 133.230469 C 193.324219 134.210938 192.046875 134.871094 190.824219 134.871094 C 190.582031 134.871094 190.347656 134.84375 190.121094 134.796875 C 189.28125 134.613281 188.449219 134.386719 187.640625 134.121094 C 186.78125 133.84375 185.921875 133.507812 185.078125 133.128906 C 183.785156 132.546875 182.84375 131.019531 182.886719 129.574219 L 182.976562 126.128906 C 182.984375 125.925781 182.75 125.449219 182.523438 125.273438 C 181.890625 124.78125 181.285156 124.261719 180.722656 123.71875 C 180.570312 123.574219 180.171875 123.386719 179.820312 123.410156 L 176.398438 124.039062 C 176.195312 124.074219 175.988281 124.09375 175.777344 124.09375 C 174.496094 124.09375 173.199219 123.421875 172.546875 122.421875 C 172.039062 121.644531 171.578125 120.84375 171.167969 120.039062 C 170.78125 119.28125 170.429688 118.488281 170.121094 117.691406 C 169.605469 116.371094 170.015625 114.617188 171.070312 113.617188 L 173.625 111.195312 C 173.769531 111.058594 173.941406 110.566406 173.902344 110.285156 C 173.796875 109.488281 173.734375 108.6875 173.714844 107.90625 C 173.707031 107.632812 173.457031 107.15625 173.292969 107.042969 " fill-opacity="1" fill-rule="nonzero"/></g><path fill="#156082" d="M 188.214844 111.476562 C 189.328125 113.660156 191.21875 115.28125 193.539062 116.039062 C 194.46875 116.339844 195.425781 116.492188 196.382812 116.492188 C 200.359375 116.492188 203.855469 113.949219 205.089844 110.164062 C 205.851562 107.839844 205.660156 105.359375 204.550781 103.175781 C 203.441406 100.996094 201.546875 99.375 199.21875 98.617188 C 198.296875 98.3125 197.339844 98.160156 196.378906 98.160156 C 192.402344 98.160156 188.902344 100.703125 187.671875 104.484375 C 186.910156 106.808594 187.105469 109.289062 188.214844 111.476562 Z M 196.378906 94.84375 C 197.691406 94.84375 198.992188 95.054688 200.25 95.464844 C 203.417969 96.496094 205.992188 98.703125 207.503906 101.675781 C 209.015625 104.644531 209.277344 108.027344 208.242188 111.195312 C 206.5625 116.347656 201.796875 119.808594 196.382812 119.808594 C 195.074219 119.808594 193.773438 119.597656 192.511719 119.1875 C 189.347656 118.15625 186.773438 115.949219 185.261719 112.976562 C 183.75 110.003906 183.484375 106.621094 184.519531 103.457031 C 186.199219 98.304688 190.964844 94.84375 196.378906 94.84375 " fill-opacity="1" fill-rule="nonzero"/><g clip-path="url(#4eac45eef2)"><path fill="#156082" d="M 145.824219 78.640625 C 145.964844 79.316406 146.148438 80 146.351562 80.652344 C 146.398438 80.738281 146.578125 80.867188 146.664062 80.878906 L 149.015625 81.070312 C 150.164062 81.160156 151.5 81.90625 152.265625 82.882812 C 152.59375 83.300781 152.960938 83.710938 153.355469 84.09375 C 154.238281 84.957031 154.835938 86.367188 154.804688 87.523438 L 154.742188 89.832031 C 154.746094 89.933594 154.855469 90.132812 154.914062 90.175781 C 155.605469 90.488281 156.3125 90.761719 157.015625 90.988281 C 157.679688 91.207031 158.367188 91.394531 159.027344 91.539062 L 159.027344 93.191406 L 159.027344 91.539062 C 159.136719 91.539062 159.328125 91.445312 159.378906 91.382812 L 160.710938 89.445312 C 161.367188 88.496094 162.675781 87.710938 163.898438 87.53125 C 164.441406 87.453125 164.980469 87.335938 165.503906 87.191406 C 165.890625 87.078125 166.320312 87.023438 166.773438 87.023438 C 167.300781 87.023438 168.320312 87.105469 169.195312 87.640625 L 171.199219 88.875 C 171.21875 88.882812 171.289062 88.902344 171.402344 88.902344 L 171.539062 88.894531 C 171.550781 88.890625 171.578125 88.878906 171.601562 88.871094 C 172.148438 88.46875 172.691406 88.03125 173.210938 87.5625 C 173.761719 87.070312 174.296875 86.53125 174.769531 86.015625 C 174.769531 86.015625 174.808594 85.933594 174.808594 85.929688 C 174.832031 85.855469 174.839844 85.777344 174.839844 85.707031 C 174.835938 85.636719 174.824219 85.589844 174.824219 85.589844 L 173.789062 83.402344 C 173.277344 82.332031 173.207031 80.898438 173.609375 79.925781 C 173.726562 79.648438 173.832031 79.367188 173.925781 79.078125 C 174.027344 78.757812 174.117188 78.441406 174.195312 78.121094 C 174.457031 77.027344 175.363281 75.875 176.394531 75.316406 L 178.570312 74.136719 C 178.652344 74.085938 178.765625 73.894531 178.773438 73.828125 C 178.695312 73.128906 178.582031 72.429688 178.4375 71.742188 C 178.289062 71.03125 178.089844 70.296875 177.863281 69.589844 C 177.816406 69.503906 177.628906 69.371094 177.539062 69.355469 L 175.003906 69.152344 C 173.863281 69.0625 172.523438 68.332031 171.753906 67.375 C 171.46875 67.023438 171.164062 66.6875 170.847656 66.375 C 169.976562 65.503906 169.390625 64.097656 169.421875 62.953125 L 169.492188 60.378906 C 169.488281 60.285156 169.378906 60.089844 169.324219 60.050781 C 168.679688 59.765625 168.019531 59.511719 167.355469 59.296875 C 166.644531 59.066406 165.910156 58.867188 165.203125 58.71875 C 165.089844 58.71875 164.886719 58.820312 164.835938 58.882812 L 163.386719 60.988281 C 162.734375 61.933594 161.425781 62.722656 160.203125 62.90625 C 159.773438 62.972656 159.332031 63.0625 158.894531 63.179688 C 157.742188 63.484375 156.179688 63.28125 155.222656 62.695312 L 153.074219 61.375 C 153.054688 61.363281 152.976562 61.335938 152.855469 61.335938 C 152.75 61.335938 152.679688 61.359375 152.6875 61.351562 C 152.082031 61.789062 151.492188 62.265625 150.933594 62.765625 C 150.40625 63.238281 149.902344 63.738281 149.46875 64.199219 C 149.460938 64.21875 149.441406 64.265625 149.433594 64.285156 C 149.386719 64.429688 149.398438 64.578125 149.410156 64.617188 L 150.46875 66.84375 C 150.972656 67.90625 151.023438 69.371094 150.589844 70.417969 C 150.460938 70.726562 150.347656 71.039062 150.246094 71.347656 C 150.152344 71.632812 150.070312 71.917969 150.003906 72.214844 C 149.757812 73.253906 148.859375 74.371094 147.816406 74.9375 L 145.683594 76.089844 C 145.601562 76.144531 145.484375 76.339844 145.476562 76.414062 C 145.550781 77.15625 145.667969 77.90625 145.824219 78.640625 Z M 144.101562 73.179688 L 146.238281 72.019531 C 146.464844 71.898438 146.730469 71.574219 146.773438 71.464844 C 146.863281 71.085938 146.96875 70.707031 147.09375 70.320312 C 147.226562 69.914062 147.371094 69.519531 147.53125 69.140625 C 147.589844 68.980469 147.589844 68.503906 147.476562 68.265625 L 146.417969 66.039062 C 146.03125 65.226562 145.980469 64.191406 146.300781 63.203125 C 146.308594 63.175781 146.335938 63.097656 146.347656 63.070312 C 146.378906 62.996094 146.40625 62.925781 146.414062 62.910156 C 146.457031 62.808594 146.507812 62.714844 146.558594 62.625 L 146.621094 62.507812 C 146.636719 62.484375 146.652344 62.457031 146.667969 62.429688 C 146.765625 62.28125 146.875 62.140625 146.984375 62.019531 C 147.527344 61.425781 148.109375 60.84375 148.71875 60.296875 C 149.363281 59.71875 150.046875 59.167969 150.75 58.664062 C 151.835938 57.878906 153.636719 57.832031 154.800781 58.542969 L 156.957031 59.867188 C 157.027344 59.914062 157.316406 60.007812 157.699219 60.007812 C 157.898438 60.007812 158.015625 59.980469 158.050781 59.972656 C 158.605469 59.828125 159.164062 59.710938 159.710938 59.632812 C 160.035156 59.582031 160.535156 59.285156 160.65625 59.105469 L 162.109375 57 C 162.894531 55.863281 164.535156 55.191406 165.859375 55.472656 C 166.710938 55.648438 167.558594 55.875 168.382812 56.144531 C 169.152344 56.394531 169.917969 56.6875 170.660156 57.015625 C 171.917969 57.570312 172.84375 59.050781 172.804688 60.460938 L 172.734375 63.039062 C 172.730469 63.257812 172.957031 63.796875 173.183594 64.023438 C 173.582031 64.417969 173.96875 64.84375 174.328125 65.292969 C 174.535156 65.546875 175.050781 65.832031 175.269531 65.851562 L 177.804688 66.054688 C 179.203125 66.164062 180.578125 67.234375 181.003906 68.539062 C 181.28125 69.382812 181.507812 70.234375 181.679688 71.054688 C 181.847656 71.847656 181.980469 72.660156 182.066406 73.46875 C 182.21875 74.835938 181.394531 76.375 180.15625 77.050781 L 177.972656 78.230469 C 177.742188 78.355469 177.464844 78.734375 177.417969 78.890625 C 177.324219 79.292969 177.207031 79.699219 177.078125 80.101562 C 176.957031 80.46875 176.824219 80.832031 176.683594 81.167969 C 176.640625 81.316406 176.667969 81.738281 176.78125 81.976562 L 177.820312 84.167969 C 178.023438 84.597656 178.136719 85.085938 178.152344 85.609375 C 178.164062 86.03125 178.109375 86.453125 177.988281 86.863281 C 177.980469 86.886719 177.949219 86.988281 177.941406 87.011719 C 177.886719 87.167969 177.824219 87.316406 177.746094 87.472656 C 177.734375 87.5 177.6875 87.589844 177.667969 87.617188 C 177.550781 87.832031 177.421875 88.015625 177.273438 88.183594 C 176.6875 88.832031 176.066406 89.453125 175.425781 90.03125 C 174.8125 90.582031 174.171875 91.097656 173.53125 91.566406 C 173.390625 91.671875 173.230469 91.765625 173.070312 91.84375 C 172.992188 91.882812 172.90625 91.921875 172.75 91.980469 C 172.726562 91.988281 172.652344 92.015625 172.628906 92.027344 C 172.5 92.070312 172.363281 92.105469 172.269531 92.125 C 172.242188 92.128906 172.203125 92.140625 172.179688 92.144531 C 172.035156 92.171875 171.894531 92.191406 171.734375 92.203125 C 170.917969 92.273438 170.109375 92.09375 169.476562 91.703125 L 167.460938 90.46875 C 167.398438 90.425781 167.132812 90.339844 166.773438 90.339844 C 166.566406 90.339844 166.441406 90.371094 166.40625 90.378906 C 165.742188 90.566406 165.0625 90.710938 164.375 90.8125 C 164.054688 90.859375 163.5625 91.152344 163.441406 91.328125 L 162.109375 93.261719 C 161.453125 94.214844 160.214844 94.851562 159.027344 94.851562 C 158.792969 94.851562 158.566406 94.828125 158.34375 94.78125 C 157.550781 94.605469 156.757812 94.390625 155.988281 94.140625 C 155.175781 93.875 154.355469 93.558594 153.554688 93.199219 C 152.304688 92.636719 151.390625 91.15625 151.425781 89.75 L 151.488281 87.433594 C 151.496094 87.21875 151.269531 86.691406 151.039062 86.46875 C 150.539062 85.976562 150.074219 85.457031 149.65625 84.925781 C 149.457031 84.671875 148.960938 84.390625 148.75 84.371094 L 146.402344 84.183594 C 144.996094 84.074219 143.625 83 143.203125 81.683594 C 142.953125 80.902344 142.746094 80.105469 142.582031 79.324219 C 142.402344 78.472656 142.265625 77.605469 142.179688 76.746094 C 142.039062 75.378906 142.867188 73.84375 144.101562 73.179688 " fill-opacity="1" fill-rule="nonzero"/></g><path fill="#156082" d="M 157.632812 77.480469 C 158.234375 78.667969 159.265625 79.550781 160.53125 79.964844 C 161.042969 80.132812 161.566406 80.214844 162.085938 80.214844 C 164.253906 80.214844 166.160156 78.828125 166.835938 76.765625 C 167.25 75.496094 167.140625 74.144531 166.535156 72.953125 C 165.929688 71.761719 164.898438 70.878906 163.632812 70.464844 C 163.125 70.300781 162.605469 70.214844 162.082031 70.214844 C 159.914062 70.214844 158.007812 71.601562 157.335938 73.667969 C 156.917969 74.933594 157.023438 76.289062 157.632812 77.480469 Z M 162.082031 66.902344 C 162.953125 66.902344 163.820312 67.039062 164.660156 67.3125 C 166.769531 68 168.484375 69.46875 169.492188 71.453125 C 170.5 73.433594 170.675781 75.683594 169.988281 77.792969 C 168.867188 81.222656 165.691406 83.53125 162.085938 83.53125 C 161.214844 83.53125 160.347656 83.390625 159.507812 83.117188 C 157.394531 82.425781 155.679688 80.957031 154.675781 78.980469 C 153.667969 77 153.492188 74.75 154.183594 72.640625 C 155.300781 69.207031 158.476562 66.902344 162.082031 66.902344 " fill-opacity="1" fill-rule="nonzero"/></svg>