<svg xmlns="http://www.w3.org/2000/svg" xmlns:xlink="http://www.w3.org/1999/xlink" width="500" zoomAndPan="magnify" viewBox="0 0 375 374.999991" height="500" preserveAspectRatio="xMidYMid meet" version="1.0"><defs><clipPath id="4eb7d9c594"><path d="M 8 62 L 216.847656 62 L 216.847656 313 L 8 313 Z M 8 62 " clip-rule="nonzero"/></clipPath><clipPath id="92335402da"><path d="M 224.902344 141.324219 L 368 141.324219 L 368 312.609375 L 224.902344 312.609375 Z M 224.902344 141.324219 " clip-rule="nonzero"/></clipPath><clipPath id="c4827fd169"><path d="M 237.554688 183.828125 L 293.71875 183.828125 L 293.71875 239.898438 L 237.554688 239.898438 Z M 237.554688 183.828125 " clip-rule="nonzero"/></clipPath><clipPath id="3df0fb4731"><path d="M 280 158.949219 L 320.714844 158.949219 L 320.714844 199.214844 L 280 199.214844 Z M 280 158.949219 " clip-rule="nonzero"/></clipPath><clipPath id="7a84a16a2c"><path d="M 119 126 L 200.734375 126 L 200.734375 207.609375 L 119 207.609375 Z M 119 126 " clip-rule="nonzero"/></clipPath><clipPath id="7e802cab71"><path d="M 79.675781 89.765625 L 138.945312 89.765625 L 138.945312 148.378906 L 79.675781 148.378906 Z M 79.675781 89.765625 " clip-rule="nonzero"/></clipPath></defs><path fill="#ffffff" d="M 120.230469 64.402344 C 169.699219 61.964844 215.351562 111.109375 215.351562 160.644531 C 215.351562 199.253906 192.972656 235.34375 192.972656 235.34375 C 172.269531 264.71875 183.453125 311.441406 183.453125 311.441406 L 86.011719 311.441406 C 89.714844 294.738281 86.644531 280.925781 86.644531 280.925781 C 37.765625 291.296875 32.34375 283.261719 32.34375 283.261719 C 22.867188 279.546875 26.851562 260.683594 26.851562 260.683594 C 27.933594 256.945312 22.492188 249.160156 22.492188 249.160156 C 21.246094 246.671875 25.441406 240.441406 25.441406 240.441406 C 20.921875 239.820312 19.378906 232.34375 19.378906 232.34375 C 23.734375 227.984375 20 218.640625 20 218.640625 C 5.675781 216.425781 10.726562 205.394531 10.726562 205.394531 C 15.816406 196.234375 16.226562 196.773438 24.371094 183.671875 C 36.925781 163.476562 26.789062 135.539062 38.886719 114.738281 C 49.179688 97.035156 59.296875 84.652344 77.753906 74.9375 C 91.058594 67.929688 105.273438 65.136719 120.230469 64.402344 " fill-opacity="1" fill-rule="nonzero"/><g clip-path="url(#4eb7d9c594)"><path fill="#156082" d="M 120.230469 64.402344 L 120.152344 62.886719 C 121.363281 62.828125 122.566406 62.796875 123.769531 62.796875 C 136.042969 62.796875 148.007812 65.863281 159.027344 71.203125 C 175.558594 79.21875 189.996094 92.351562 200.320312 108.085938 C 210.640625 123.820312 216.863281 142.167969 216.867188 160.644531 C 216.863281 180.238281 211.203125 199.078125 205.566406 213.039062 C 199.921875 227 194.289062 236.089844 194.257812 236.140625 L 194.210938 236.214844 C 189.375 243.074219 186.304688 250.945312 184.449219 258.972656 C 182.589844 267.003906 181.953125 275.179688 181.953125 282.601562 C 181.953125 290.625 182.699219 297.765625 183.445312 302.890625 C 183.820312 305.453125 184.191406 307.511719 184.46875 308.925781 C 184.609375 309.632812 184.726562 310.175781 184.804688 310.542969 C 184.84375 310.726562 184.878906 310.863281 184.898438 310.957031 L 184.921875 311.058594 L 184.929688 311.089844 C 185.035156 311.542969 184.933594 312.015625 184.648438 312.378906 C 184.355469 312.742188 183.921875 312.953125 183.453125 312.953125 L 86.011719 312.953125 C 85.550781 312.953125 85.117188 312.75 84.828125 312.390625 C 84.542969 312.03125 84.433594 311.5625 84.53125 311.113281 C 85.894531 304.960938 86.324219 299.195312 86.324219 294.402344 C 86.324219 290.425781 86.03125 287.121094 85.738281 284.816406 C 85.59375 283.664062 85.445312 282.761719 85.339844 282.15625 C 85.285156 281.851562 85.238281 281.621094 85.210938 281.472656 C 85.195312 281.394531 85.183594 281.339844 85.175781 281.304688 L 85.164062 281.265625 L 85.164062 281.253906 L 86.644531 280.925781 L 86.957031 282.40625 C 67.714844 286.488281 55.136719 287.742188 46.890625 287.742188 C 40.5 287.742188 36.699219 286.992188 34.402344 286.171875 C 32.109375 285.355469 31.296875 284.421875 31.089844 284.109375 L 32.34375 283.261719 L 31.792969 284.675781 C 30.265625 284.078125 29.007812 283.125 28.03125 281.976562 C 26.566406 280.253906 25.707031 278.121094 25.191406 275.914062 C 24.675781 273.703125 24.507812 271.398438 24.507812 269.25 C 24.507812 264.441406 25.359375 260.433594 25.371094 260.371094 L 25.398438 260.261719 C 25.449219 260.089844 25.480469 259.859375 25.480469 259.578125 C 25.488281 258.863281 25.257812 257.851562 24.867188 256.785156 C 24.289062 255.1875 23.375 253.46875 22.613281 252.175781 C 22.230469 251.527344 21.886719 250.984375 21.640625 250.605469 C 21.515625 250.417969 21.417969 250.269531 21.351562 250.171875 L 21.277344 250.058594 L 21.253906 250.027344 L 21.140625 249.835938 C 20.839844 249.238281 20.75 248.617188 20.746094 248.027344 C 20.753906 247.035156 21.003906 246.074219 21.332031 245.128906 C 21.828125 243.722656 22.535156 242.363281 23.121094 241.339844 C 23.707031 240.308594 24.171875 239.617188 24.1875 239.597656 L 25.441406 240.441406 L 25.234375 241.941406 C 23.699219 241.730469 22.449219 240.929688 21.511719 239.976562 C 20.097656 238.539062 19.246094 236.734375 18.6875 235.277344 C 18.136719 233.820312 17.90625 232.703125 17.894531 232.652344 C 17.792969 232.152344 17.945312 231.632812 18.308594 231.273438 C 18.910156 230.667969 19.320312 229.933594 19.589844 229.070312 C 19.863281 228.207031 19.976562 227.222656 19.976562 226.214844 C 19.976562 224.488281 19.632812 222.703125 19.28125 221.371094 C 19.105469 220.707031 18.929688 220.152344 18.796875 219.773438 C 18.734375 219.582031 18.679688 219.4375 18.644531 219.339844 L 18.601562 219.230469 L 18.59375 219.207031 L 18.589844 219.203125 L 19.050781 219.023438 L 18.59375 219.203125 L 18.589844 219.203125 L 19.050781 219.023438 L 18.59375 219.203125 L 20 218.640625 L 19.769531 220.140625 C 17.550781 219.796875 15.726562 219.246094 14.21875 218.527344 C 11.964844 217.460938 10.441406 215.980469 9.539062 214.375 C 8.632812 212.777344 8.351562 211.105469 8.351562 209.652344 C 8.359375 206.917969 9.308594 204.878906 9.351562 204.765625 L 9.402344 204.664062 C 11.960938 200.058594 13.378906 197.835938 15.144531 195.171875 C 16.90625 192.515625 19.023438 189.40625 23.085938 182.871094 C 26.089844 178.035156 27.761719 172.707031 28.742188 167.046875 C 30.222656 158.558594 30.125 149.363281 30.78125 140.253906 C 31.4375 131.15625 32.863281 122.097656 37.578125 113.976562 C 42.757812 105.074219 47.921875 97.449219 54.15625 90.808594 C 60.390625 84.164062 67.6875 78.523438 77.046875 73.597656 C 90.605469 66.460938 105.0625 63.628906 120.152344 62.886719 L 120.230469 64.402344 L 120.304688 65.910156 C 105.484375 66.640625 91.511719 69.402344 78.460938 76.277344 C 69.363281 81.066406 62.375 86.476562 56.363281 92.878906 C 50.351562 99.28125 45.3125 106.699219 40.199219 115.5 C 37.292969 120.492188 35.707031 125.941406 34.777344 131.683594 C 33.378906 140.296875 33.5 149.527344 32.800781 158.589844 C 32.097656 167.640625 30.5625 176.570312 25.660156 184.46875 C 21.574219 191.035156 19.414062 194.210938 17.664062 196.847656 C 15.917969 199.484375 14.585938 201.570312 12.054688 206.132812 L 10.726562 205.394531 L 12.105469 206.023438 L 12.105469 206.027344 C 12.054688 206.132812 11.371094 207.777344 11.378906 209.652344 C 11.378906 210.363281 11.46875 211.101562 11.707031 211.820312 C 12.066406 212.902344 12.710938 213.941406 14 214.894531 C 15.285156 215.839844 17.253906 216.683594 20.230469 217.148438 C 20.757812 217.226562 21.203125 217.582031 21.402344 218.078125 C 21.421875 218.121094 21.8125 219.105469 22.207031 220.601562 C 22.605469 222.097656 23.003906 224.097656 23.003906 226.214844 C 23.003906 227.453125 22.867188 228.730469 22.480469 229.96875 C 22.097656 231.207031 21.453125 232.414062 20.449219 233.414062 L 19.378906 232.34375 L 20.863281 232.039062 L 20.609375 232.089844 L 20.863281 232.035156 L 20.863281 232.039062 L 20.609375 232.089844 L 20.863281 232.035156 C 20.867188 232.078125 21.257812 233.855469 22.117188 235.574219 C 22.542969 236.4375 23.085938 237.277344 23.691406 237.875 C 24.308594 238.484375 24.9375 238.84375 25.648438 238.941406 C 26.167969 239.015625 26.613281 239.347656 26.824219 239.824219 C 27.035156 240.300781 26.988281 240.855469 26.699219 241.289062 L 26.691406 241.292969 C 26.621094 241.402344 25.851562 242.566406 25.125 243.992188 C 24.761719 244.703125 24.414062 245.484375 24.160156 246.207031 C 23.910156 246.925781 23.773438 247.601562 23.777344 248.027344 C 23.773438 248.289062 23.820312 248.4375 23.84375 248.484375 L 22.492188 249.160156 L 23.734375 248.289062 C 23.753906 248.324219 24.90625 249.96875 26.078125 252.164062 C 26.667969 253.261719 27.257812 254.496094 27.714844 255.753906 C 28.167969 257.015625 28.503906 258.300781 28.507812 259.578125 C 28.507812 260.085938 28.453125 260.601562 28.304688 261.105469 L 26.851562 260.683594 L 28.332031 260.992188 L 28.324219 261.03125 C 28.246094 261.417969 27.53125 265.074219 27.535156 269.25 C 27.53125 271.894531 27.828125 274.742188 28.675781 277.042969 C 29.09375 278.195312 29.648438 279.207031 30.335938 280.011719 C 31.027344 280.824219 31.851562 281.441406 32.898438 281.851562 C 33.183594 281.964844 33.425781 282.160156 33.597656 282.414062 L 32.730469 283.003906 L 33.542969 282.335938 L 33.597656 282.414062 L 32.730469 283.003906 L 33.542969 282.335938 L 33.265625 282.566406 L 33.53125 282.324219 L 33.542969 282.335938 L 33.265625 282.566406 L 33.53125 282.324219 L 33.554688 282.347656 C 33.664062 282.457031 34.355469 283.050781 36.355469 283.617188 C 38.351562 284.1875 41.648438 284.71875 46.890625 284.714844 C 54.832031 284.71875 67.226562 283.5 86.328125 279.445312 C 87.140625 279.269531 87.941406 279.785156 88.121094 280.597656 C 88.136719 280.675781 89.351562 286.152344 89.351562 294.402344 C 89.351562 299.375 88.914062 305.355469 87.488281 311.769531 L 86.011719 311.441406 L 86.011719 309.925781 L 183.453125 309.925781 L 183.453125 311.441406 L 181.984375 311.792969 C 181.96875 311.71875 178.925781 299.019531 178.925781 282.601562 C 178.925781 275.003906 179.574219 266.609375 181.496094 258.292969 C 183.421875 249.976562 186.617188 241.730469 191.734375 234.472656 L 192.972656 235.34375 L 191.683594 234.546875 L 191.695312 234.523438 C 192.003906 234.027344 197.558594 224.921875 203.019531 211.257812 C 208.484375 197.59375 213.839844 179.359375 213.839844 160.644531 C 213.847656 136.929688 203.144531 113.167969 186.488281 95.382812 C 178.164062 86.488281 168.363281 79.089844 157.707031 73.929688 C 147.046875 68.761719 135.539062 65.824219 123.769531 65.824219 C 122.617188 65.824219 121.460938 65.855469 120.304688 65.910156 L 120.230469 64.402344 " fill-opacity="1" fill-rule="nonzero"/></g><path fill="#156082" d="M 290.984375 142.984375 C 257.148438 141.316406 225.925781 174.929688 225.925781 208.808594 C 225.925781 235.214844 241.234375 259.898438 241.234375 259.898438 C 255.390625 279.992188 247.742188 311.945312 247.742188 311.945312 L 314.386719 311.945312 C 311.855469 300.523438 313.953125 291.074219 313.953125 291.074219 C 347.386719 298.167969 351.09375 292.671875 351.09375 292.671875 C 357.574219 290.132812 354.851562 277.230469 354.851562 277.230469 C 354.109375 274.671875 357.832031 269.347656 357.832031 269.347656 C 358.683594 267.644531 355.8125 263.386719 355.8125 263.386719 C 358.90625 262.960938 359.960938 257.847656 359.960938 257.847656 C 356.980469 254.867188 359.535156 248.472656 359.535156 248.472656 C 369.332031 246.960938 365.878906 239.414062 365.878906 239.414062 C 362.398438 233.148438 362.117188 233.519531 356.546875 224.558594 C 347.960938 210.746094 354.890625 191.636719 346.617188 177.410156 C 339.578125 165.300781 332.660156 156.835938 320.035156 150.1875 C 310.933594 145.398438 301.214844 143.484375 290.984375 142.984375 " fill-opacity="1" fill-rule="nonzero"/><g clip-path="url(#92335402da)"><path fill="#156082" d="M 290.984375 142.984375 L 291.035156 141.945312 C 290.207031 141.90625 289.386719 141.886719 288.5625 141.886719 C 280.167969 141.886719 271.988281 143.980469 264.449219 147.632812 C 253.140625 153.117188 243.269531 162.097656 236.207031 172.859375 C 229.148438 183.621094 224.890625 196.171875 224.890625 208.808594 C 224.890625 222.210938 228.761719 235.09375 232.621094 244.644531 C 236.476562 254.191406 240.332031 260.410156 240.351562 260.441406 L 240.386719 260.492188 C 243.691406 265.1875 245.792969 270.570312 247.0625 276.0625 C 248.332031 281.550781 248.769531 287.144531 248.769531 292.21875 C 248.769531 297.707031 248.257812 302.589844 247.746094 306.097656 C 247.492188 307.851562 247.238281 309.257812 247.046875 310.222656 C 246.949219 310.707031 246.871094 311.078125 246.816406 311.332031 C 246.789062 311.457031 246.769531 311.550781 246.753906 311.613281 L 246.738281 311.683594 L 246.730469 311.703125 C 246.660156 312.015625 246.730469 312.335938 246.925781 312.585938 C 247.125 312.835938 247.421875 312.980469 247.742188 312.980469 L 314.386719 312.980469 C 314.703125 312.980469 315 312.839844 315.195312 312.59375 C 315.394531 312.347656 315.46875 312.027344 315.398438 311.71875 C 314.464844 307.515625 314.171875 303.570312 314.171875 300.292969 C 314.171875 297.570312 314.375 295.308594 314.574219 293.734375 C 314.671875 292.949219 314.773438 292.332031 314.847656 291.917969 C 314.886719 291.707031 314.914062 291.550781 314.9375 291.449219 C 314.945312 291.394531 314.953125 291.355469 314.960938 291.332031 L 314.964844 291.304688 L 314.964844 291.300781 L 313.953125 291.074219 L 313.742188 292.085938 C 326.902344 294.878906 335.503906 295.738281 341.144531 295.738281 C 345.515625 295.738281 348.113281 295.222656 349.683594 294.660156 C 351.253906 294.101562 351.808594 293.464844 351.949219 293.25 L 351.09375 292.671875 L 351.472656 293.636719 C 352.515625 293.230469 353.375 292.578125 354.042969 291.792969 C 355.046875 290.613281 355.632812 289.15625 355.984375 287.648438 C 356.335938 286.132812 356.453125 284.558594 356.453125 283.089844 C 356.453125 279.800781 355.871094 277.058594 355.863281 277.015625 L 355.84375 276.941406 C 355.808594 276.824219 355.789062 276.664062 355.789062 276.472656 C 355.78125 275.984375 355.9375 275.292969 356.207031 274.5625 C 356.601562 273.46875 357.226562 272.292969 357.75 271.410156 C 358.011719 270.96875 358.246094 270.597656 358.414062 270.335938 C 358.5 270.210938 358.566406 270.105469 358.613281 270.039062 L 358.664062 269.964844 L 358.679688 269.941406 L 358.757812 269.8125 C 358.960938 269.402344 359.023438 268.976562 359.023438 268.574219 C 359.019531 267.894531 358.847656 267.238281 358.625 266.589844 C 358.285156 265.628906 357.800781 264.699219 357.402344 264 C 357 263.292969 356.683594 262.820312 356.671875 262.808594 L 355.8125 263.386719 L 355.957031 264.410156 C 357.003906 264.269531 357.859375 263.71875 358.5 263.066406 C 359.46875 262.082031 360.050781 260.851562 360.433594 259.851562 C 360.808594 258.855469 360.964844 258.09375 360.976562 258.058594 C 361.046875 257.714844 360.941406 257.359375 360.695312 257.113281 C 360.28125 256.703125 360 256.199219 359.816406 255.609375 C 359.628906 255.015625 359.550781 254.34375 359.550781 253.65625 C 359.550781 252.476562 359.785156 251.253906 360.027344 250.34375 C 360.148438 249.886719 360.269531 249.507812 360.359375 249.25 C 360.402344 249.121094 360.4375 249.019531 360.464844 248.953125 L 360.492188 248.878906 L 360.496094 248.863281 L 360.5 248.859375 L 360.183594 248.734375 L 360.496094 248.859375 L 360.5 248.859375 L 360.183594 248.734375 L 360.496094 248.859375 L 359.535156 248.472656 L 359.695312 249.5 C 361.210938 249.265625 362.460938 248.890625 363.488281 248.398438 C 365.03125 247.667969 366.074219 246.652344 366.691406 245.558594 C 367.308594 244.464844 367.503906 243.320312 367.503906 242.328125 C 367.496094 240.457031 366.847656 239.0625 366.820312 238.984375 L 366.785156 238.914062 C 365.035156 235.765625 364.066406 234.246094 362.859375 232.425781 C 361.652344 230.605469 360.203125 228.480469 357.425781 224.011719 C 355.371094 220.703125 354.226562 217.058594 353.554688 213.1875 C 352.546875 207.382812 352.613281 201.09375 352.164062 194.863281 C 351.710938 188.640625 350.738281 182.445312 347.511719 176.890625 C 343.96875 170.800781 340.4375 165.585938 336.175781 161.042969 C 331.910156 156.5 326.921875 152.640625 320.515625 149.273438 C 311.246094 144.390625 301.355469 142.453125 291.035156 141.945312 L 290.984375 142.984375 L 290.933594 144.015625 C 301.070312 144.515625 310.625 146.40625 319.554688 151.105469 C 325.773438 154.382812 330.554688 158.082031 334.664062 162.460938 C 338.777344 166.839844 342.222656 171.910156 345.722656 177.933594 C 347.707031 181.347656 348.792969 185.074219 349.429688 189 C 350.386719 194.890625 350.300781 201.207031 350.78125 207.402344 C 351.261719 213.59375 352.3125 219.699219 355.664062 225.101562 C 358.457031 229.59375 359.933594 231.765625 361.132812 233.570312 C 362.328125 235.371094 363.238281 236.800781 364.972656 239.917969 L 365.878906 239.414062 L 364.933594 239.847656 C 364.972656 239.917969 365.4375 241.042969 365.433594 242.328125 C 365.433594 242.8125 365.371094 243.320312 365.207031 243.808594 C 364.964844 244.546875 364.519531 245.261719 363.640625 245.910156 C 362.761719 246.558594 361.414062 247.136719 359.378906 247.453125 C 359.015625 247.507812 358.710938 247.75 358.578125 248.089844 C 358.5625 248.121094 358.296875 248.792969 358.027344 249.816406 C 357.753906 250.839844 357.480469 252.207031 357.480469 253.65625 C 357.480469 254.5 357.574219 255.375 357.839844 256.222656 C 358.101562 257.070312 358.542969 257.894531 359.226562 258.578125 L 359.960938 257.847656 L 358.945312 257.636719 L 359.117188 257.671875 L 358.945312 257.636719 L 359.117188 257.671875 L 358.945312 257.636719 C 358.941406 257.664062 358.675781 258.878906 358.089844 260.058594 C 357.796875 260.644531 357.425781 261.21875 357.011719 261.628906 C 356.589844 262.046875 356.160156 262.292969 355.671875 262.359375 C 355.316406 262.410156 355.011719 262.636719 354.867188 262.964844 C 354.722656 263.289062 354.753906 263.667969 354.953125 263.964844 L 354.957031 263.96875 C 355.007812 264.042969 355.53125 264.839844 356.03125 265.816406 C 356.277344 266.300781 356.515625 266.835938 356.6875 267.328125 C 356.859375 267.820312 356.957031 268.28125 356.953125 268.574219 C 356.953125 268.753906 356.921875 268.855469 356.90625 268.886719 L 357.832031 269.347656 L 356.984375 268.753906 C 356.96875 268.777344 356.179688 269.902344 355.378906 271.402344 C 354.976562 272.152344 354.570312 272.996094 354.257812 273.859375 C 353.949219 274.722656 353.71875 275.597656 353.714844 276.472656 C 353.714844 276.820312 353.753906 277.171875 353.855469 277.519531 L 354.851562 277.230469 L 353.835938 277.441406 L 353.839844 277.464844 C 353.894531 277.730469 354.382812 280.234375 354.382812 283.089844 C 354.386719 284.898438 354.179688 286.847656 353.601562 288.417969 C 353.316406 289.207031 352.9375 289.898438 352.464844 290.449219 C 351.992188 291.003906 351.429688 291.425781 350.714844 291.707031 C 350.519531 291.785156 350.351562 291.917969 350.234375 292.09375 L 350.832031 292.496094 L 350.273438 292.039062 L 350.234375 292.09375 L 350.832031 292.496094 L 350.273438 292.039062 L 350.464844 292.195312 L 350.28125 292.03125 L 350.273438 292.039062 L 350.464844 292.195312 L 350.28125 292.03125 L 350.265625 292.046875 C 350.1875 292.121094 349.71875 292.527344 348.347656 292.914062 C 346.984375 293.304688 344.726562 293.667969 341.144531 293.667969 C 335.710938 293.667969 327.234375 292.835938 314.171875 290.0625 C 313.613281 289.941406 313.070312 290.292969 312.945312 290.847656 C 312.933594 290.902344 312.101562 294.648438 312.101562 300.292969 C 312.101562 303.695312 312.402344 307.78125 313.378906 312.167969 L 314.386719 311.945312 L 314.386719 310.910156 L 247.742188 310.910156 L 247.742188 311.945312 L 248.746094 312.1875 C 248.757812 312.136719 250.839844 303.449219 250.839844 292.21875 C 250.839844 287.023438 250.394531 281.28125 249.082031 275.59375 C 247.761719 269.90625 245.578125 264.265625 242.078125 259.300781 L 241.234375 259.898438 L 242.113281 259.351562 L 242.105469 259.335938 C 241.894531 258.996094 238.097656 252.773438 234.359375 243.425781 C 230.625 234.078125 226.957031 221.609375 226.960938 208.808594 C 226.953125 192.585938 234.277344 176.335938 245.667969 164.171875 C 251.359375 158.089844 258.0625 153.03125 265.351562 149.5 C 272.640625 145.964844 280.511719 143.957031 288.5625 143.957031 C 289.351562 143.957031 290.140625 143.976562 290.933594 144.015625 L 290.984375 142.984375 " fill-opacity="1" fill-rule="nonzero"/></g><g clip-path="url(#c4827fd169)"><path fill="#ffffff" d="M 286.34375 218.234375 L 288.945312 220.699219 C 289.03125 220.785156 289.109375 221.070312 289.085938 221.175781 C 288.8125 221.886719 288.5 222.585938 288.15625 223.261719 C 287.792969 223.972656 287.382812 224.683594 286.945312 225.359375 C 286.882812 225.433594 286.640625 225.578125 286.453125 225.542969 L 282.964844 224.902344 C 281.6875 224.664062 280.058594 225.183594 279.097656 226.101562 C 278.609375 226.570312 278.082031 227.027344 277.535156 227.453125 C 276.457031 228.28125 275.726562 229.777344 275.761719 231.085938 L 275.855469 234.597656 C 275.855469 234.722656 275.707031 234.988281 275.613281 235.046875 C 274.863281 235.382812 274.097656 235.679688 273.339844 235.925781 C 272.625 236.160156 271.882812 236.359375 271.152344 236.523438 L 271.144531 236.523438 C 270.996094 236.523438 270.753906 236.398438 270.6875 236.308594 L 268.699219 233.429688 C 268.21875 232.730469 267.226562 231.554688 266.007812 231.554688 C 265.976562 231.554688 265.9375 231.558594 265.910156 231.558594 C 264.941406 231.609375 263.960938 231.53125 262.964844 231.398438 C 261.644531 231.222656 260.019531 231.777344 259.136719 232.710938 L 256.75 235.230469 C 256.699219 235.277344 256.503906 235.371094 256.273438 235.371094 C 255.566406 235.097656 254.863281 234.78125 254.1875 234.441406 C 253.691406 234.1875 253.179688 233.898438 252.570312 233.519531 L 252.378906 233.40625 C 252.277344 233.34375 252.171875 233.28125 252.105469 233.242188 C 252.085938 233.21875 252.0625 233.191406 252.039062 233.164062 C 251.933594 233.011719 251.898438 232.804688 251.90625 232.734375 L 252.515625 229.417969 C 252.753906 228.125 252.257812 226.535156 251.308594 225.554688 C 250.785156 225.011719 250.289062 224.433594 249.832031 223.835938 C 249.03125 222.785156 247.578125 222.054688 246.292969 222.054688 C 246.277344 222.054688 246.214844 222.054688 246.199219 222.054688 L 242.816406 222.144531 C 242.691406 222.144531 242.429688 222 242.371094 221.90625 C 242.070312 221.21875 241.792969 220.5 241.558594 219.777344 C 241.304688 219.007812 241.097656 218.21875 240.933594 217.433594 C 240.921875 217.308594 241.050781 217.035156 241.152344 216.957031 L 243.878906 215.078125 C 244.964844 214.332031 245.734375 212.851562 245.753906 211.492188 C 245.769531 210.714844 245.828125 209.9375 245.933594 209.175781 C 246.117188 207.824219 245.582031 206.246094 244.628906 205.34375 L 242.234375 203.070312 C 242.144531 202.980469 242.0625 202.6875 242.085938 202.578125 C 242.371094 201.828125 242.703125 201.078125 243.070312 200.351562 C 243.417969 199.667969 243.800781 199.003906 244.195312 198.382812 C 244.253906 198.3125 244.480469 198.203125 244.671875 198.203125 L 244.675781 198.203125 L 247.957031 198.808594 C 249.238281 199.046875 250.863281 198.523438 251.820312 197.605469 C 252.378906 197.066406 252.972656 196.5625 253.585938 196.097656 C 254.679688 195.273438 255.417969 193.78125 255.382812 192.46875 L 255.289062 189.105469 C 255.292969 188.980469 255.4375 188.71875 255.527344 188.664062 C 256.226562 188.355469 256.945312 188.078125 257.660156 187.847656 C 258.421875 187.597656 259.210938 187.386719 260.007812 187.21875 C 260.160156 187.21875 260.410156 187.347656 260.480469 187.4375 L 262.410156 190.246094 C 263.003906 191.101562 263.9375 192.121094 265.039062 192.121094 C 265.03125 192.125 265.101562 192.121094 265.128906 192.121094 C 266.128906 192.070312 267.148438 192.15625 268.179688 192.304688 C 269.496094 192.492188 271.132812 191.941406 272.019531 191.003906 L 274.375 188.519531 C 274.425781 188.464844 274.628906 188.371094 274.867188 188.371094 C 275.636719 188.664062 276.386719 188.992188 277.097656 189.355469 C 277.773438 189.699219 278.4375 190.078125 279.058594 190.480469 C 279.074219 190.496094 279.089844 190.515625 279.105469 190.53125 C 279.105469 190.535156 279.109375 190.535156 279.109375 190.539062 C 279.117188 190.550781 279.121094 190.5625 279.128906 190.570312 C 279.226562 190.730469 279.253906 190.90625 279.246094 190.960938 L 278.613281 194.40625 C 278.371094 195.695312 278.859375 197.285156 279.796875 198.273438 C 280.28125 198.785156 280.742188 199.328125 281.167969 199.886719 C 281.96875 200.941406 283.425781 201.675781 284.707031 201.675781 C 284.722656 201.675781 284.785156 201.675781 284.800781 201.675781 L 288.300781 201.578125 C 288.429688 201.578125 288.699219 201.726562 288.757812 201.824219 C 289.089844 202.566406 289.386719 203.332031 289.636719 204.101562 C 289.871094 204.808594 290.070312 205.546875 290.234375 206.285156 C 290.246094 206.40625 290.121094 206.675781 290.023438 206.75 L 287.089844 208.773438 C 286.011719 209.515625 285.234375 210.984375 285.199219 212.34375 C 285.179688 213.023438 285.125 213.71875 285.035156 214.40625 C 284.851562 215.761719 285.394531 217.335938 286.34375 218.234375 Z M 289.003906 211.550781 L 291.9375 209.53125 C 293.160156 208.691406 293.847656 206.988281 293.535156 205.574219 C 293.34375 204.710938 293.113281 203.863281 292.847656 203.050781 C 292.5625 202.171875 292.21875 201.292969 291.835938 200.4375 C 291.253906 199.144531 289.769531 198.203125 288.300781 198.203125 C 288.285156 198.203125 288.230469 198.203125 288.214844 198.203125 L 284.707031 198.296875 C 284.496094 198.296875 284.027344 198.070312 283.855469 197.84375 C 283.359375 197.191406 282.820312 196.554688 282.25 195.949219 C 282.054688 195.746094 281.894531 195.226562 281.933594 195.023438 L 282.566406 191.566406 C 282.726562 190.6875 282.539062 189.707031 282.046875 188.871094 C 282.03125 188.84375 282.015625 188.816406 281.996094 188.789062 C 281.910156 188.652344 281.820312 188.519531 281.734375 188.410156 C 281.691406 188.359375 281.644531 188.304688 281.613281 188.269531 C 281.53125 188.171875 281.445312 188.082031 281.367188 188.011719 C 281.21875 187.871094 281.0625 187.75 280.898438 187.644531 C 280.164062 187.175781 279.398438 186.738281 278.628906 186.347656 C 277.8125 185.929688 276.949219 185.550781 276.066406 185.214844 C 274.734375 184.707031 272.910156 185.152344 271.925781 186.195312 L 269.566406 188.683594 C 269.472656 188.78125 269.089844 188.949219 268.65625 188.960938 C 267.597656 188.8125 266.542969 188.734375 265.515625 188.734375 C 265.421875 188.632812 265.304688 188.492188 265.191406 188.328125 L 263.261719 185.523438 C 262.441406 184.332031 260.710938 183.621094 259.320312 183.914062 C 258.398438 184.105469 257.488281 184.351562 256.613281 184.636719 C 255.792969 184.902344 254.96875 185.21875 254.167969 185.570312 C 252.847656 186.152344 251.878906 187.707031 251.914062 189.191406 L 252.007812 192.558594 C 252.011719 192.757812 251.773438 193.238281 251.554688 193.402344 C 250.832031 193.945312 250.136719 194.539062 249.480469 195.167969 C 249.328125 195.316406 248.925781 195.527344 248.570312 195.488281 L 245.285156 194.882812 C 243.839844 194.617188 242.128906 195.351562 241.359375 196.550781 C 240.894531 197.273438 240.460938 198.039062 240.0625 198.820312 C 239.636719 199.65625 239.257812 200.515625 238.929688 201.386719 C 238.417969 202.734375 238.84375 204.515625 239.914062 205.523438 L 242.308594 207.796875 C 242.453125 207.933594 242.625 208.441406 242.589844 208.714844 C 242.464844 209.605469 242.394531 210.519531 242.378906 211.4375 C 242.375 211.710938 242.128906 212.183594 241.964844 212.296875 L 239.238281 214.175781 C 238.019531 215.015625 237.328125 216.707031 237.625 218.113281 C 237.816406 219.027344 238.058594 219.941406 238.347656 220.824219 C 238.621094 221.65625 238.933594 222.480469 239.28125 223.265625 C 239.863281 224.585938 241.410156 225.546875 242.90625 225.519531 L 246.292969 225.429688 C 246.503906 225.429688 246.976562 225.660156 247.148438 225.886719 C 247.6875 226.585938 248.269531 227.265625 248.878906 227.898438 C 249.070312 228.097656 249.230469 228.609375 249.195312 228.804688 L 248.585938 232.121094 C 248.390625 233.171875 248.703125 234.375 249.371094 235.234375 C 249.394531 235.265625 249.4375 235.320312 249.476562 235.363281 C 249.566406 235.472656 249.664062 235.582031 249.765625 235.675781 C 249.910156 235.8125 250.066406 235.9375 250.238281 236.050781 C 250.367188 236.136719 250.5 236.214844 250.632812 236.296875 L 250.800781 236.398438 C 251.488281 236.820312 252.078125 237.15625 252.660156 237.453125 C 253.4375 237.84375 254.238281 238.203125 255.050781 238.519531 C 256.382812 239.035156 258.214844 238.59375 259.199219 237.550781 L 261.585938 235.035156 C 261.695312 234.917969 262.097656 234.746094 262.503906 234.746094 C 262.507812 234.746094 262.511719 234.746094 262.515625 234.746094 C 263.554688 234.882812 264.582031 234.941406 265.59375 234.945312 C 265.6875 235.042969 265.804688 235.179688 265.921875 235.347656 L 267.90625 238.226562 C 268.597656 239.226562 269.898438 239.898438 271.144531 239.898438 C 271.390625 239.898438 271.628906 239.871094 271.859375 239.824219 C 272.714844 239.636719 273.566406 239.402344 274.386719 239.136719 C 275.261719 238.851562 276.136719 238.511719 276.996094 238.125 C 278.3125 237.53125 279.273438 235.972656 279.230469 234.503906 L 279.136719 230.992188 C 279.132812 230.785156 279.367188 230.300781 279.597656 230.125 C 280.246094 229.621094 280.863281 229.089844 281.4375 228.539062 C 281.589844 228.390625 281.996094 228.199219 282.351562 228.222656 L 285.839844 228.863281 C 286.042969 228.902344 286.257812 228.921875 286.472656 228.921875 C 287.777344 228.921875 289.101562 228.234375 289.765625 227.214844 C 290.277344 226.425781 290.75 225.609375 291.167969 224.789062 C 291.558594 224.015625 291.917969 223.210938 292.234375 222.398438 C 292.757812 221.050781 292.34375 219.265625 291.269531 218.246094 L 288.664062 215.78125 C 288.515625 215.640625 288.34375 215.136719 288.382812 214.851562 C 288.488281 214.042969 288.554688 213.226562 288.574219 212.429688 C 288.582031 212.148438 288.835938 211.667969 289.003906 211.550781 " fill-opacity="1" fill-rule="nonzero"/></g><path fill="#ffffff" d="M 273.800781 216.066406 C 272.667969 218.289062 270.742188 219.941406 268.378906 220.714844 C 267.433594 221.023438 266.457031 221.179688 265.480469 221.179688 C 261.433594 221.179688 257.867188 218.585938 256.609375 214.730469 C 255.835938 212.363281 256.03125 209.835938 257.164062 207.613281 C 258.292969 205.390625 260.21875 203.738281 262.59375 202.964844 C 263.53125 202.65625 264.507812 202.5 265.488281 202.5 C 269.535156 202.5 273.101562 205.089844 274.355469 208.945312 C 275.128906 211.3125 274.933594 213.839844 273.800781 216.066406 Z M 265.488281 199.125 C 264.148438 199.125 262.820312 199.339844 261.542969 199.757812 C 258.316406 200.808594 255.691406 203.054688 254.152344 206.082031 C 252.613281 209.109375 252.347656 212.554688 253.402344 215.777344 C 255.113281 221.027344 259.964844 224.554688 265.480469 224.554688 C 266.8125 224.554688 268.140625 224.34375 269.425781 223.921875 C 272.648438 222.871094 275.269531 220.625 276.808594 217.59375 C 278.351562 214.566406 278.621094 211.121094 277.566406 207.898438 C 275.855469 202.652344 271 199.125 265.488281 199.125 " fill-opacity="1" fill-rule="nonzero"/><g clip-path="url(#3df0fb4731)"><path fill="#ffffff" d="M 316.984375 182.617188 C 316.839844 183.304688 316.65625 184.003906 316.449219 184.667969 C 316.402344 184.753906 316.21875 184.882812 316.128906 184.898438 L 313.734375 185.089844 C 312.5625 185.183594 311.203125 185.945312 310.421875 186.9375 C 310.089844 187.363281 309.714844 187.78125 309.3125 188.171875 C 308.414062 189.050781 307.808594 190.488281 307.839844 191.664062 L 307.902344 194.015625 C 307.898438 194.121094 307.785156 194.324219 307.726562 194.367188 C 307.019531 194.683594 306.300781 194.964844 305.585938 195.195312 C 304.90625 195.417969 304.207031 195.609375 303.539062 195.757812 L 303.535156 197.441406 L 303.535156 195.757812 C 303.421875 195.757812 303.230469 195.660156 303.175781 195.597656 L 301.820312 193.625 C 301.152344 192.660156 299.820312 191.855469 298.574219 191.675781 C 298.023438 191.59375 297.472656 191.476562 296.9375 191.328125 C 296.542969 191.214844 296.109375 191.15625 295.644531 191.15625 C 295.105469 191.15625 294.070312 191.238281 293.175781 191.785156 L 291.132812 193.042969 C 291.117188 193.050781 291.042969 193.074219 290.929688 193.074219 L 290.789062 193.0625 C 290.777344 193.058594 290.75 193.046875 290.726562 193.039062 C 290.167969 192.632812 289.617188 192.183594 289.085938 191.707031 C 288.523438 191.203125 287.976562 190.65625 287.5 190.132812 C 287.5 190.128906 287.460938 190.046875 287.460938 190.042969 C 287.4375 189.96875 287.425781 189.886719 287.429688 189.816406 C 287.429688 189.742188 287.441406 189.699219 287.441406 189.695312 L 288.5 187.46875 C 289.019531 186.375 289.09375 184.917969 288.679688 183.925781 C 288.5625 183.644531 288.453125 183.359375 288.359375 183.0625 C 288.253906 182.738281 288.160156 182.414062 288.085938 182.089844 C 287.816406 180.976562 286.894531 179.800781 285.839844 179.230469 L 283.628906 178.03125 C 283.542969 177.976562 283.429688 177.785156 283.421875 177.714844 C 283.5 177.003906 283.613281 176.289062 283.761719 175.589844 C 283.914062 174.863281 284.113281 174.117188 284.347656 173.398438 C 284.394531 173.308594 284.585938 173.175781 284.679688 173.160156 L 287.261719 172.953125 C 288.421875 172.859375 289.785156 172.113281 290.570312 171.144531 C 290.863281 170.785156 291.171875 170.441406 291.496094 170.121094 C 292.378906 169.234375 292.976562 167.804688 292.945312 166.636719 L 292.875 164.015625 C 292.878906 163.917969 292.988281 163.71875 293.046875 163.679688 C 293.703125 163.390625 294.375 163.132812 295.054688 162.910156 C 295.777344 162.675781 296.523438 162.476562 297.246094 162.320312 C 297.359375 162.320312 297.566406 162.425781 297.617188 162.492188 L 299.097656 164.636719 C 299.761719 165.597656 301.089844 166.402344 302.335938 166.589844 C 302.777344 166.65625 303.226562 166.75 303.667969 166.867188 C 304.84375 167.179688 306.433594 166.972656 307.410156 166.371094 L 309.601562 165.027344 C 309.621094 165.015625 309.699219 164.992188 309.820312 164.992188 C 309.929688 164.992188 310 165.011719 309.992188 165.003906 C 310.609375 165.449219 311.210938 165.9375 311.78125 166.445312 C 312.316406 166.925781 312.828125 167.433594 313.269531 167.90625 C 313.28125 167.925781 313.300781 167.976562 313.308594 167.992188 C 313.355469 168.140625 313.34375 168.292969 313.332031 168.332031 L 312.253906 170.597656 C 311.738281 171.683594 311.6875 173.175781 312.128906 174.242188 C 312.261719 174.554688 312.378906 174.875 312.484375 175.1875 C 312.574219 175.476562 312.65625 175.769531 312.726562 176.074219 C 312.976562 177.128906 313.890625 178.269531 314.957031 178.84375 L 317.128906 180.019531 C 317.210938 180.074219 317.332031 180.273438 317.339844 180.347656 C 317.261719 181.105469 317.144531 181.867188 316.984375 182.617188 Z M 318.738281 177.050781 L 316.5625 175.875 C 316.332031 175.75 316.0625 175.417969 316.015625 175.308594 C 315.925781 174.921875 315.820312 174.535156 315.691406 174.140625 C 315.554688 173.726562 315.40625 173.324219 315.246094 172.941406 C 315.1875 172.777344 315.1875 172.292969 315.300781 172.046875 L 316.382812 169.78125 C 316.773438 168.953125 316.828125 167.898438 316.5 166.890625 C 316.488281 166.863281 316.460938 166.785156 316.449219 166.757812 C 316.421875 166.679688 316.390625 166.605469 316.382812 166.59375 C 316.339844 166.492188 316.289062 166.390625 316.238281 166.304688 L 316.171875 166.183594 C 316.15625 166.15625 316.140625 166.132812 316.125 166.105469 C 316.023438 165.953125 315.917969 165.808594 315.804688 165.6875 C 315.25 165.078125 314.65625 164.488281 314.035156 163.933594 C 313.378906 163.339844 312.683594 162.78125 311.96875 162.265625 C 310.859375 161.46875 309.027344 161.417969 307.839844 162.144531 L 305.644531 163.496094 C 305.570312 163.539062 305.28125 163.636719 304.890625 163.636719 C 304.6875 163.636719 304.566406 163.609375 304.53125 163.601562 C 303.964844 163.453125 303.394531 163.335938 302.839844 163.253906 C 302.511719 163.203125 302 162.898438 301.875 162.71875 L 300.398438 160.574219 C 299.597656 159.414062 297.925781 158.730469 296.578125 159.015625 C 295.710938 159.195312 294.84375 159.425781 294.007812 159.699219 C 293.222656 159.957031 292.441406 160.253906 291.683594 160.589844 C 290.402344 161.152344 289.460938 162.660156 289.5 164.097656 L 289.570312 166.726562 C 289.578125 166.945312 289.34375 167.496094 289.113281 167.726562 C 288.707031 168.128906 288.316406 168.5625 287.949219 169.019531 C 287.738281 169.28125 287.210938 169.570312 286.992188 169.585938 L 284.40625 169.792969 C 282.980469 169.910156 281.582031 170.996094 281.148438 172.328125 C 280.867188 173.1875 280.636719 174.050781 280.457031 174.890625 C 280.285156 175.699219 280.15625 176.523438 280.0625 177.347656 C 279.914062 178.742188 280.75 180.3125 282.011719 180.996094 L 284.234375 182.199219 C 284.46875 182.328125 284.753906 182.710938 284.800781 182.871094 C 284.898438 183.285156 285.015625 183.699219 285.148438 184.105469 C 285.269531 184.480469 285.40625 184.851562 285.550781 185.191406 C 285.59375 185.34375 285.566406 185.773438 285.449219 186.015625 L 284.390625 188.246094 C 284.183594 188.6875 284.070312 189.183594 284.054688 189.71875 C 284.039062 190.148438 284.097656 190.574219 284.21875 190.992188 C 284.226562 191.019531 284.261719 191.121094 284.269531 191.144531 C 284.324219 191.300781 284.386719 191.453125 284.464844 191.613281 C 284.480469 191.644531 284.527344 191.734375 284.542969 191.761719 C 284.667969 191.980469 284.796875 192.167969 284.949219 192.335938 C 285.546875 193 286.179688 193.632812 286.832031 194.222656 C 287.457031 194.78125 288.105469 195.308594 288.757812 195.785156 C 288.902344 195.890625 289.066406 195.988281 289.226562 196.070312 C 289.308594 196.109375 289.398438 196.144531 289.554688 196.207031 C 289.578125 196.214844 289.652344 196.242188 289.679688 196.253906 C 289.8125 196.296875 289.949219 196.332031 290.046875 196.351562 C 290.074219 196.359375 290.113281 196.367188 290.140625 196.375 C 290.28125 196.402344 290.429688 196.421875 290.589844 196.433594 C 291.421875 196.503906 292.246094 196.320312 292.894531 195.925781 L 294.941406 194.664062 C 295.007812 194.625 295.277344 194.535156 295.644531 194.535156 C 295.855469 194.535156 295.984375 194.566406 296.019531 194.574219 C 296.695312 194.765625 297.390625 194.914062 298.085938 195.015625 C 298.410156 195.0625 298.914062 195.363281 299.039062 195.539062 L 300.394531 197.511719 C 301.0625 198.480469 302.324219 199.132812 303.535156 199.132812 C 303.773438 199.132812 304.003906 199.109375 304.230469 199.058594 C 305.039062 198.882812 305.847656 198.660156 306.628906 198.40625 C 307.460938 198.136719 308.292969 197.816406 309.109375 197.449219 C 310.382812 196.875 311.3125 195.367188 311.277344 193.933594 L 311.214844 191.574219 C 311.207031 191.355469 311.4375 190.820312 311.671875 190.589844 C 312.183594 190.089844 312.65625 189.5625 313.082031 189.019531 C 313.285156 188.761719 313.789062 188.472656 314.003906 188.457031 L 316.398438 188.265625 C 317.828125 188.152344 319.226562 187.054688 319.65625 185.71875 C 319.910156 184.917969 320.121094 184.109375 320.289062 183.316406 C 320.472656 182.449219 320.609375 181.5625 320.699219 180.6875 C 320.839844 179.292969 319.996094 177.730469 318.738281 177.050781 " fill-opacity="1" fill-rule="nonzero"/></g><path fill="#ffffff" d="M 304.957031 181.433594 C 304.34375 182.644531 303.292969 183.546875 302.003906 183.96875 C 301.484375 184.136719 300.949219 184.222656 300.417969 184.222656 C 298.210938 184.222656 296.265625 182.808594 295.582031 180.707031 C 295.160156 179.414062 295.269531 178.035156 295.886719 176.824219 C 296.503906 175.609375 297.550781 174.710938 298.84375 174.289062 C 299.359375 174.121094 299.890625 174.035156 300.421875 174.035156 C 302.632812 174.035156 304.574219 175.445312 305.261719 177.550781 C 305.683594 178.84375 305.574219 180.222656 304.957031 181.433594 Z M 300.421875 170.65625 C 299.535156 170.65625 298.652344 170.800781 297.796875 171.078125 C 295.648438 171.777344 293.902344 173.277344 292.875 175.292969 C 291.851562 177.3125 291.671875 179.605469 292.371094 181.753906 C 293.511719 185.25 296.746094 187.597656 300.417969 187.597656 C 301.304688 187.597656 302.1875 187.457031 303.046875 187.175781 C 305.199219 186.476562 306.945312 184.976562 307.96875 182.964844 C 308.992188 180.949219 309.171875 178.652344 308.46875 176.503906 C 307.332031 173.007812 304.097656 170.65625 300.421875 170.65625 " fill-opacity="1" fill-rule="nonzero"/><g clip-path="url(#7a84a16a2c)"><path fill="#156082" d="M 129.710938 176.070312 L 125.925781 179.65625 C 125.796875 179.785156 125.683594 180.199219 125.71875 180.351562 C 126.117188 181.382812 126.574219 182.40625 127.070312 183.386719 C 127.597656 184.425781 128.195312 185.457031 128.835938 186.441406 C 128.925781 186.546875 129.28125 186.757812 129.554688 186.710938 L 134.632812 185.773438 C 136.492188 185.429688 138.863281 186.183594 140.257812 187.523438 C 140.96875 188.203125 141.738281 188.867188 142.535156 189.488281 C 144.105469 190.695312 145.164062 192.871094 145.113281 194.777344 L 144.980469 199.886719 C 144.980469 200.074219 145.199219 200.457031 145.335938 200.542969 C 146.421875 201.035156 147.535156 201.464844 148.640625 201.824219 C 149.683594 202.164062 150.761719 202.457031 151.828125 202.691406 L 151.835938 202.691406 C 152.054688 202.691406 152.40625 202.511719 152.503906 202.382812 L 155.394531 198.191406 C 156.097656 197.171875 157.539062 195.460938 159.316406 195.460938 C 159.359375 195.460938 159.417969 195.464844 159.457031 195.464844 C 160.871094 195.542969 162.292969 195.425781 163.746094 195.234375 C 165.667969 194.976562 168.03125 195.785156 169.320312 197.144531 L 172.792969 200.808594 C 172.867188 200.882812 173.148438 201.015625 173.484375 201.019531 C 174.511719 200.617188 175.535156 200.160156 176.523438 199.660156 C 177.246094 199.292969 177.992188 198.871094 178.878906 198.324219 L 179.15625 198.15625 C 179.304688 198.066406 179.453125 197.976562 179.554688 197.914062 C 179.582031 197.878906 179.617188 197.839844 179.652344 197.800781 C 179.800781 197.582031 179.859375 197.28125 179.84375 197.179688 L 178.953125 192.347656 C 178.609375 190.464844 179.332031 188.152344 180.714844 186.726562 C 181.472656 185.9375 182.195312 185.09375 182.863281 184.226562 C 184.027344 182.695312 186.148438 181.628906 188.015625 181.628906 C 188.039062 181.628906 188.128906 181.628906 188.152344 181.628906 L 193.078125 181.761719 C 193.257812 181.761719 193.636719 181.550781 193.722656 181.414062 C 194.164062 180.410156 194.566406 179.367188 194.910156 178.3125 C 195.273438 177.195312 195.582031 176.042969 195.820312 174.90625 C 195.835938 174.722656 195.648438 174.320312 195.5 174.210938 L 191.527344 171.472656 C 189.949219 170.386719 188.828125 168.234375 188.800781 166.253906 C 188.777344 165.121094 188.691406 163.988281 188.539062 162.882812 C 188.269531 160.914062 189.050781 158.621094 190.4375 157.304688 L 193.925781 153.996094 C 194.054688 153.863281 194.175781 153.4375 194.140625 153.277344 C 193.722656 152.183594 193.242188 151.089844 192.707031 150.035156 C 192.199219 149.042969 191.644531 148.070312 191.070312 147.171875 C 190.980469 147.066406 190.65625 146.90625 190.375 146.90625 L 190.371094 146.90625 L 185.59375 147.789062 C 183.726562 148.136719 181.359375 147.375 179.96875 146.035156 C 179.15625 145.253906 178.289062 144.515625 177.398438 143.84375 C 175.808594 142.644531 174.734375 140.472656 174.785156 138.558594 L 174.917969 133.660156 C 174.914062 133.480469 174.703125 133.101562 174.574219 133.019531 C 173.554688 132.570312 172.507812 132.171875 171.46875 131.832031 C 170.359375 131.46875 169.207031 131.160156 168.046875 130.917969 C 167.828125 130.917969 167.464844 131.101562 167.363281 131.238281 L 164.550781 135.324219 C 163.6875 136.570312 162.328125 138.054688 160.726562 138.054688 C 160.734375 138.0625 160.636719 138.054688 160.597656 138.050781 C 159.136719 137.980469 157.65625 138.105469 156.152344 138.320312 C 154.234375 138.59375 151.855469 137.796875 150.5625 136.429688 L 147.132812 132.808594 C 147.058594 132.734375 146.765625 132.59375 146.414062 132.59375 C 145.296875 133.019531 144.207031 133.5 143.167969 134.027344 C 142.1875 134.527344 141.21875 135.082031 140.316406 135.664062 C 140.292969 135.691406 140.269531 135.714844 140.246094 135.742188 C 140.246094 135.746094 140.242188 135.746094 140.242188 135.75 C 140.230469 135.765625 140.222656 135.78125 140.210938 135.796875 C 140.070312 136.027344 140.035156 136.289062 140.042969 136.363281 L 140.96875 141.382812 C 141.316406 143.257812 140.605469 145.570312 139.242188 147.007812 C 138.535156 147.753906 137.863281 148.546875 137.242188 149.363281 C 136.078125 150.894531 133.960938 151.960938 132.09375 151.960938 C 132.070312 151.960938 131.980469 151.960938 131.957031 151.960938 L 126.859375 151.824219 C 126.675781 151.824219 126.285156 152.039062 126.195312 152.175781 C 125.710938 153.261719 125.28125 154.375 124.914062 155.492188 C 124.578125 156.523438 124.28125 157.601562 124.046875 158.675781 C 124.03125 158.851562 124.210938 159.242188 124.355469 159.347656 L 128.625 162.292969 C 130.195312 163.375 131.328125 165.511719 131.378906 167.492188 C 131.402344 168.480469 131.484375 169.492188 131.613281 170.496094 C 131.878906 172.46875 131.09375 174.761719 129.710938 176.070312 Z M 125.839844 166.339844 L 121.566406 163.398438 C 119.789062 162.175781 118.789062 159.699219 119.242188 157.640625 C 119.519531 156.382812 119.855469 155.144531 120.242188 153.964844 C 120.660156 152.683594 121.15625 151.40625 121.714844 150.164062 C 122.5625 148.277344 124.726562 146.90625 126.859375 146.90625 C 126.882812 146.90625 126.964844 146.90625 126.988281 146.910156 L 132.09375 147.046875 C 132.398438 147.046875 133.082031 146.710938 133.332031 146.386719 C 134.054688 145.433594 134.84375 144.503906 135.671875 143.628906 C 135.953125 143.332031 136.1875 142.570312 136.132812 142.277344 L 135.207031 137.25 C 134.976562 135.964844 135.25 134.539062 135.964844 133.324219 C 135.988281 133.28125 136.011719 133.242188 136.039062 133.199219 C 136.164062 133 136.292969 132.8125 136.421875 132.65625 C 136.480469 132.574219 136.550781 132.5 136.597656 132.449219 C 136.71875 132.308594 136.84375 132.171875 136.957031 132.070312 C 137.171875 131.867188 137.398438 131.6875 137.636719 131.539062 C 138.707031 130.851562 139.820312 130.214844 140.941406 129.648438 C 142.132812 129.042969 143.386719 128.488281 144.671875 127.996094 C 146.609375 127.261719 149.269531 127.910156 150.703125 129.429688 L 154.132812 133.050781 C 154.269531 133.195312 154.828125 133.4375 155.460938 133.453125 C 157 133.234375 158.539062 133.121094 160.035156 133.121094 C 160.171875 132.972656 160.335938 132.773438 160.503906 132.53125 L 163.3125 128.453125 C 164.507812 126.710938 167.027344 125.679688 169.050781 126.105469 C 170.394531 126.386719 171.71875 126.742188 172.992188 127.160156 C 174.1875 127.546875 175.382812 128.003906 176.554688 128.519531 C 178.476562 129.363281 179.886719 131.628906 179.832031 133.789062 L 179.699219 138.691406 C 179.691406 138.980469 180.035156 139.679688 180.359375 139.921875 C 181.40625 140.710938 182.417969 141.574219 183.375 142.492188 C 183.597656 142.707031 184.183594 143.011719 184.703125 142.953125 L 189.484375 142.074219 C 191.585938 141.691406 194.078125 142.753906 195.195312 144.5 C 195.871094 145.554688 196.507812 146.667969 197.089844 147.808594 C 197.703125 149.023438 198.257812 150.277344 198.738281 151.539062 C 199.476562 153.507812 198.859375 156.097656 197.304688 157.566406 L 193.816406 160.871094 C 193.605469 161.074219 193.355469 161.816406 193.410156 162.214844 C 193.585938 163.511719 193.6875 164.839844 193.714844 166.171875 C 193.71875 166.574219 194.078125 167.257812 194.316406 167.425781 L 198.289062 170.164062 C 200.058594 171.378906 201.066406 173.847656 200.632812 175.894531 C 200.355469 177.222656 200.003906 178.550781 199.582031 179.839844 C 199.1875 181.046875 198.726562 182.246094 198.21875 183.394531 C 197.375 185.316406 195.125 186.714844 192.949219 186.675781 L 188.015625 186.542969 C 187.707031 186.542969 187.023438 186.875 186.769531 187.207031 C 185.988281 188.230469 185.140625 189.214844 184.25 190.140625 C 183.96875 190.429688 183.738281 191.171875 183.789062 191.457031 L 184.675781 196.285156 C 184.960938 197.8125 184.507812 199.566406 183.53125 200.820312 C 183.5 200.863281 183.4375 200.941406 183.378906 201.003906 C 183.25 201.167969 183.105469 201.320312 182.960938 201.460938 C 182.75 201.660156 182.523438 201.839844 182.273438 202.007812 C 182.082031 202.128906 181.890625 202.246094 181.695312 202.363281 L 181.457031 202.507812 C 180.453125 203.128906 179.59375 203.613281 178.746094 204.046875 C 177.617188 204.617188 176.445312 205.140625 175.265625 205.601562 C 173.328125 206.351562 170.660156 205.707031 169.226562 204.191406 L 165.75 200.523438 C 165.589844 200.355469 165.007812 200.105469 164.417969 200.105469 C 164.410156 200.105469 164.40625 200.105469 164.398438 200.105469 C 162.890625 200.304688 161.390625 200.390625 159.917969 200.398438 C 159.78125 200.539062 159.609375 200.734375 159.441406 200.980469 L 156.550781 205.175781 C 155.546875 206.628906 153.652344 207.609375 151.835938 207.609375 C 151.480469 207.609375 151.128906 207.570312 150.796875 207.496094 C 149.550781 207.222656 148.3125 206.886719 147.117188 206.496094 C 145.84375 206.082031 144.566406 205.585938 143.316406 205.027344 C 141.402344 204.164062 140 201.894531 140.066406 199.753906 L 140.199219 194.644531 C 140.207031 194.339844 139.867188 193.636719 139.53125 193.375 C 138.589844 192.648438 137.691406 191.871094 136.855469 191.070312 C 136.628906 190.855469 136.039062 190.574219 135.519531 190.609375 L 130.441406 191.542969 C 130.144531 191.597656 129.835938 191.625 129.519531 191.625 C 127.625 191.625 125.699219 190.628906 124.730469 189.144531 C 123.984375 187.996094 123.296875 186.804688 122.691406 185.613281 C 122.117188 184.484375 121.59375 183.3125 121.136719 182.132812 C 120.371094 180.171875 120.976562 177.570312 122.542969 176.089844 L 126.332031 172.5 C 126.546875 172.292969 126.800781 171.5625 126.742188 171.144531 C 126.585938 169.964844 126.492188 168.78125 126.464844 167.621094 C 126.453125 167.210938 126.082031 166.507812 125.839844 166.339844 " fill-opacity="1" fill-rule="nonzero"/></g><path fill="#156082" d="M 147.96875 172.910156 C 149.617188 176.152344 152.421875 178.554688 155.867188 179.675781 C 157.242188 180.128906 158.660156 180.355469 160.082031 180.355469 C 165.976562 180.355469 171.164062 176.582031 172.996094 170.96875 C 174.121094 167.519531 173.835938 163.839844 172.191406 160.605469 C 170.546875 157.367188 167.742188 154.96875 164.289062 153.839844 C 162.917969 153.394531 161.5 153.164062 160.074219 153.164062 C 154.179688 153.164062 148.988281 156.9375 147.160156 162.546875 C 146.035156 165.992188 146.324219 169.671875 147.96875 172.910156 Z M 160.074219 148.25 C 162.019531 148.25 163.953125 148.558594 165.8125 149.167969 C 170.511719 150.699219 174.332031 153.96875 176.574219 158.378906 C 178.8125 162.785156 179.203125 167.796875 177.667969 172.496094 C 175.175781 180.136719 168.109375 185.269531 160.082031 185.269531 C 158.140625 185.269531 156.210938 184.960938 154.339844 184.351562 C 149.648438 182.820312 145.832031 179.546875 143.589844 175.140625 C 141.347656 170.726562 140.957031 165.714844 142.488281 161.023438 C 144.976562 153.382812 152.046875 148.25 160.074219 148.25 " fill-opacity="1" fill-rule="nonzero"/><g clip-path="url(#7e802cab71)"><path fill="#156082" d="M 85.101562 124.21875 C 85.3125 125.21875 85.582031 126.238281 85.886719 127.203125 C 85.953125 127.328125 86.21875 127.519531 86.351562 127.539062 L 89.835938 127.820312 C 91.542969 127.957031 93.523438 129.0625 94.65625 130.507812 C 95.144531 131.128906 95.6875 131.738281 96.273438 132.308594 C 97.582031 133.585938 98.464844 135.675781 98.417969 137.390625 L 98.328125 140.8125 C 98.335938 140.964844 98.5 141.261719 98.585938 141.324219 C 99.609375 141.785156 100.660156 142.191406 101.699219 142.53125 C 102.6875 142.851562 103.707031 143.128906 104.679688 143.347656 L 104.683594 145.800781 L 104.683594 143.347656 C 104.847656 143.347656 105.128906 143.207031 105.207031 143.113281 L 107.179688 140.246094 C 108.152344 138.835938 110.09375 137.667969 111.90625 137.402344 C 112.710938 137.285156 113.511719 137.117188 114.289062 136.898438 C 114.863281 136.734375 115.496094 136.652344 116.171875 136.652344 C 116.953125 136.652344 118.464844 136.769531 119.765625 137.566406 L 122.734375 139.394531 C 122.761719 139.40625 122.871094 139.4375 123.035156 139.4375 L 123.238281 139.425781 C 123.257812 139.417969 123.296875 139.40625 123.332031 139.390625 C 124.144531 138.796875 124.945312 138.144531 125.71875 137.453125 C 126.535156 136.71875 127.332031 135.921875 128.027344 135.15625 C 128.03125 135.152344 128.085938 135.03125 128.085938 135.027344 C 128.117188 134.921875 128.132812 134.800781 128.132812 134.699219 C 128.128906 134.59375 128.113281 134.527344 128.113281 134.523438 L 126.574219 131.277344 C 125.816406 129.691406 125.710938 127.566406 126.3125 126.125 C 126.480469 125.714844 126.636719 125.296875 126.777344 124.863281 C 126.929688 124.394531 127.0625 123.925781 127.175781 123.449219 C 127.5625 121.828125 128.90625 120.117188 130.441406 119.289062 L 133.664062 117.542969 C 133.785156 117.460938 133.953125 117.183594 133.964844 117.082031 C 133.851562 116.046875 133.6875 115.007812 133.46875 113.988281 C 133.246094 112.933594 132.953125 111.84375 132.617188 110.796875 C 132.546875 110.667969 132.273438 110.472656 132.136719 110.453125 L 128.375 110.148438 C 126.683594 110.015625 124.699219 108.929688 123.554688 107.515625 C 123.132812 106.992188 122.683594 106.492188 122.210938 106.027344 C 120.921875 104.738281 120.054688 102.652344 120.097656 100.953125 L 120.203125 97.140625 C 120.195312 96.996094 120.035156 96.710938 119.957031 96.648438 C 119 96.226562 118.015625 95.851562 117.03125 95.53125 C 115.980469 95.1875 114.890625 94.898438 113.839844 94.671875 C 113.675781 94.671875 113.375 94.824219 113.296875 94.917969 L 111.148438 98.039062 C 110.179688 99.441406 108.242188 100.613281 106.429688 100.886719 C 105.789062 100.984375 105.132812 101.117188 104.488281 101.289062 C 102.777344 101.742188 100.460938 101.441406 99.042969 100.570312 L 95.855469 98.609375 C 95.828125 98.597656 95.707031 98.558594 95.53125 98.558594 C 95.375 98.558594 95.269531 98.589844 95.28125 98.578125 C 94.382812 99.226562 93.507812 99.933594 92.679688 100.675781 C 91.898438 101.375 91.152344 102.117188 90.511719 102.800781 C 90.5 102.828125 90.46875 102.902344 90.457031 102.929688 C 90.386719 103.144531 90.402344 103.367188 90.421875 103.421875 L 91.992188 106.722656 C 92.742188 108.300781 92.816406 110.472656 92.171875 112.023438 C 91.980469 112.480469 91.808594 112.945312 91.660156 113.402344 C 91.523438 113.824219 91.402344 114.25 91.300781 114.691406 C 90.941406 116.226562 89.605469 117.886719 88.058594 118.726562 L 84.898438 120.4375 C 84.773438 120.519531 84.601562 120.804688 84.589844 120.914062 C 84.699219 122.015625 84.871094 123.128906 85.101562 124.21875 Z M 82.550781 116.117188 L 85.71875 114.402344 C 86.054688 114.21875 86.449219 113.738281 86.515625 113.578125 C 86.644531 113.011719 86.800781 112.453125 86.984375 111.878906 C 87.183594 111.277344 87.398438 110.691406 87.636719 110.132812 C 87.722656 109.894531 87.722656 109.1875 87.554688 108.832031 L 85.984375 105.53125 C 85.410156 104.328125 85.335938 102.792969 85.808594 101.324219 C 85.824219 101.28125 85.863281 101.171875 85.882812 101.128906 C 85.925781 101.019531 85.96875 100.910156 85.980469 100.890625 C 86.042969 100.742188 86.117188 100.597656 86.191406 100.46875 L 86.285156 100.296875 C 86.308594 100.257812 86.332031 100.21875 86.355469 100.179688 C 86.503906 99.957031 86.660156 99.746094 86.824219 99.570312 C 87.628906 98.6875 88.492188 97.828125 89.394531 97.015625 C 90.355469 96.15625 91.367188 95.339844 92.40625 94.589844 C 94.019531 93.429688 96.691406 93.359375 98.417969 94.417969 L 101.613281 96.378906 C 101.71875 96.445312 102.144531 96.589844 102.710938 96.589844 C 103.007812 96.589844 103.183594 96.546875 103.238281 96.535156 C 104.058594 96.320312 104.886719 96.148438 105.695312 96.027344 C 106.175781 95.953125 106.917969 95.511719 107.101562 95.25 L 109.25 92.125 C 110.414062 90.441406 112.851562 89.441406 114.8125 89.859375 C 116.074219 90.125 117.335938 90.460938 118.554688 90.855469 C 119.695312 91.230469 120.832031 91.664062 121.9375 92.148438 C 123.804688 92.972656 125.171875 95.167969 125.117188 97.261719 L 125.011719 101.082031 C 125.003906 101.40625 125.34375 102.207031 125.679688 102.542969 C 126.269531 103.128906 126.839844 103.757812 127.375 104.421875 C 127.683594 104.800781 128.445312 105.226562 128.769531 105.25 L 132.527344 105.550781 C 134.605469 105.71875 136.644531 107.300781 137.277344 109.238281 C 137.683594 110.492188 138.019531 111.75 138.277344 112.972656 C 138.527344 114.144531 138.71875 115.347656 138.851562 116.546875 C 139.074219 118.578125 137.855469 120.859375 136.015625 121.859375 L 132.78125 123.609375 C 132.441406 123.796875 132.023438 124.355469 131.957031 124.589844 C 131.816406 125.1875 131.644531 125.792969 131.453125 126.386719 C 131.273438 126.933594 131.074219 127.46875 130.867188 127.964844 C 130.804688 128.191406 130.84375 128.8125 131.011719 129.167969 L 132.550781 132.414062 C 132.855469 133.054688 133.023438 133.777344 133.042969 134.554688 C 133.0625 135.179688 132.984375 135.804688 132.804688 136.414062 C 132.792969 136.449219 132.742188 136.597656 132.730469 136.636719 C 132.652344 136.863281 132.558594 137.082031 132.445312 137.3125 C 132.421875 137.359375 132.355469 137.488281 132.332031 137.53125 C 132.152344 137.847656 131.960938 138.121094 131.738281 138.367188 C 130.871094 139.335938 129.953125 140.257812 129 141.109375 C 128.089844 141.925781 127.144531 142.691406 126.195312 143.390625 C 125.984375 143.542969 125.746094 143.683594 125.511719 143.800781 C 125.394531 143.859375 125.265625 143.914062 125.035156 144 C 125 144.015625 124.890625 144.054688 124.855469 144.066406 C 124.664062 144.132812 124.460938 144.183594 124.320312 144.214844 C 124.28125 144.222656 124.222656 144.234375 124.1875 144.242188 C 123.976562 144.285156 123.761719 144.3125 123.53125 144.335938 C 122.316406 144.433594 121.117188 144.167969 120.175781 143.589844 L 117.191406 141.757812 C 117.09375 141.695312 116.703125 141.566406 116.171875 141.566406 C 115.863281 141.566406 115.675781 141.613281 115.625 141.625 C 114.644531 141.902344 113.632812 142.121094 112.617188 142.269531 C 112.140625 142.335938 111.410156 142.773438 111.230469 143.03125 L 109.253906 145.902344 C 108.28125 147.3125 106.445312 148.261719 104.683594 148.261719 C 104.339844 148.261719 104 148.226562 103.671875 148.15625 C 102.492188 147.894531 101.320312 147.574219 100.179688 147.207031 C 98.972656 146.8125 97.757812 146.34375 96.570312 145.808594 C 94.714844 144.976562 93.359375 142.777344 93.414062 140.695312 L 93.503906 137.257812 C 93.515625 136.9375 93.179688 136.15625 92.839844 135.824219 C 92.097656 135.097656 91.40625 134.328125 90.789062 133.539062 C 90.492188 133.160156 89.753906 132.742188 89.445312 132.71875 L 85.957031 132.441406 C 83.878906 132.273438 81.839844 130.679688 81.21875 128.730469 C 80.847656 127.570312 80.535156 126.390625 80.292969 125.234375 C 80.027344 123.972656 79.824219 122.683594 79.699219 121.410156 C 79.492188 119.378906 80.722656 117.105469 82.550781 116.117188 " fill-opacity="1" fill-rule="nonzero"/></g><path fill="#156082" d="M 102.613281 122.496094 C 103.507812 124.261719 105.035156 125.570312 106.914062 126.183594 C 107.671875 126.429688 108.445312 126.554688 109.21875 126.554688 C 112.433594 126.554688 115.265625 124.496094 116.261719 121.433594 C 116.875 119.558594 116.71875 117.550781 115.820312 115.785156 C 114.921875 114.015625 113.394531 112.707031 111.515625 112.09375 C 110.761719 111.847656 109.988281 111.722656 109.214844 111.722656 C 106 111.722656 103.171875 113.78125 102.171875 116.84375 C 101.558594 118.722656 101.714844 120.730469 102.613281 122.496094 Z M 109.214844 106.808594 C 110.507812 106.808594 111.792969 107.015625 113.039062 107.421875 C 116.164062 108.441406 118.707031 110.621094 120.203125 113.558594 C 121.695312 116.496094 121.957031 119.832031 120.9375 122.960938 C 119.277344 128.050781 114.566406 131.46875 109.21875 131.46875 C 107.929688 131.46875 106.644531 131.261719 105.394531 130.855469 C 102.261719 129.835938 99.714844 127.65625 98.230469 124.722656 C 96.738281 121.789062 96.476562 118.445312 97.5 115.320312 C 99.15625 110.226562 103.863281 106.808594 109.214844 106.808594 " fill-opacity="1" fill-rule="nonzero"/></svg>