<svg xmlns="http://www.w3.org/2000/svg" xmlns:xlink="http://www.w3.org/1999/xlink" width="500" zoomAndPan="magnify" viewBox="0 0 375 374.999991" height="500" preserveAspectRatio="xMidYMid meet" version="1.0"><defs><clipPath id="d0198fcf1c"><path d="M 21.183594 179.339844 L 128.238281 179.339844 L 128.238281 337.835938 L 21.183594 337.835938 Z M 21.183594 179.339844 " clip-rule="nonzero"/></clipPath><clipPath id="bc30b1c23c"><path d="M 38.433594 179.339844 L 110.988281 179.339844 C 115.5625 179.339844 119.953125 181.160156 123.1875 184.394531 C 126.421875 187.628906 128.238281 192.015625 128.238281 196.589844 L 128.238281 320.25 C 128.238281 324.824219 126.421875 329.210938 123.1875 332.449219 C 119.953125 335.683594 115.5625 337.5 110.988281 337.5 L 38.433594 337.5 C 33.859375 337.5 29.46875 335.683594 26.234375 332.449219 C 23 329.210938 21.183594 324.824219 21.183594 320.25 L 21.183594 196.589844 C 21.183594 192.015625 23 187.628906 26.234375 184.394531 C 29.46875 181.160156 33.859375 179.339844 38.433594 179.339844 Z M 38.433594 179.339844 " clip-rule="nonzero"/></clipPath><clipPath id="e7c46923f4"><path d="M 133.972656 101.019531 L 241.027344 101.019531 L 241.027344 337.714844 L 133.972656 337.714844 Z M 133.972656 101.019531 " clip-rule="nonzero"/></clipPath><clipPath id="8b9f63926f"><path d="M 151.222656 101.019531 L 223.777344 101.019531 C 228.351562 101.019531 232.742188 102.839844 235.976562 106.074219 C 239.210938 109.308594 241.027344 113.695312 241.027344 118.269531 L 241.027344 320.25 C 241.027344 324.824219 239.210938 329.210938 235.976562 332.449219 C 232.742188 335.683594 228.351562 337.5 223.777344 337.5 L 151.222656 337.5 C 146.648438 337.5 142.257812 335.683594 139.023438 332.449219 C 135.789062 329.210938 133.972656 324.824219 133.972656 320.25 L 133.972656 118.269531 C 133.972656 113.695312 135.789062 109.308594 139.023438 106.074219 C 142.257812 102.839844 146.648438 101.019531 151.222656 101.019531 Z M 151.222656 101.019531 " clip-rule="nonzero"/></clipPath><clipPath id="e6740f6c2d"><path d="M 246.761719 21.183594 L 353.816406 21.183594 L 353.816406 337.75 L 246.761719 337.75 Z M 246.761719 21.183594 " clip-rule="nonzero"/></clipPath><clipPath id="a302164bb4"><path d="M 264.011719 21.183594 L 336.566406 21.183594 C 341.140625 21.183594 345.53125 23 348.765625 26.234375 C 352 29.46875 353.816406 33.859375 353.816406 38.433594 L 353.816406 320.25 C 353.816406 324.824219 352 329.210938 348.765625 332.449219 C 345.53125 335.683594 341.140625 337.5 336.566406 337.5 L 264.011719 337.5 C 259.4375 337.5 255.046875 335.683594 251.8125 332.449219 C 248.578125 329.210938 246.761719 324.824219 246.761719 320.25 L 246.761719 38.433594 C 246.761719 33.859375 248.578125 29.46875 251.8125 26.234375 C 255.046875 23 259.4375 21.183594 264.011719 21.183594 Z M 264.011719 21.183594 " clip-rule="nonzero"/></clipPath></defs><g clip-path="url(#d0198fcf1c)"><g clip-path="url(#bc30b1c23c)"><path fill="#231f20" d="M 21.183594 179.339844 L 128.238281 179.339844 L 128.238281 337.417969 L 21.183594 337.417969 Z M 21.183594 179.339844 " fill-opacity="1" fill-rule="nonzero"/></g></g><g clip-path="url(#e7c46923f4)"><g clip-path="url(#8b9f63926f)"><path fill="#27569a" d="M 133.972656 101.019531 L 241.027344 101.019531 L 241.027344 337.296875 L 133.972656 337.296875 Z M 133.972656 101.019531 " fill-opacity="1" fill-rule="nonzero"/></g></g><g clip-path="url(#e6740f6c2d)"><g clip-path="url(#a302164bb4)"><path fill="#65c42f" d="M 246.761719 21.183594 L 353.816406 21.183594 L 353.816406 337.332031 L 246.761719 337.332031 Z M 246.761719 21.183594 " fill-opacity="1" fill-rule="nonzero"/></g></g></svg>