<svg xmlns="http://www.w3.org/2000/svg" xmlns:xlink="http://www.w3.org/1999/xlink" width="500" zoomAndPan="magnify" viewBox="0 0 375 374.999991" height="500" preserveAspectRatio="xMidYMid meet" version="1.0"><defs><clipPath id="5ba7d2a819"><path d="M 21.183594 21.183594 L 354.183594 21.183594 L 354.183594 354.183594 L 21.183594 354.183594 Z M 21.183594 21.183594 " clip-rule="nonzero"/></clipPath><clipPath id="aef4eeee64"><path d="M 197 147.441406 L 257 147.441406 L 257 227.691406 L 197 227.691406 Z M 197 147.441406 " clip-rule="nonzero"/></clipPath><clipPath id="d73c79944a"><path d="M 192 147.441406 L 262 147.441406 L 262 227.691406 L 192 227.691406 Z M 192 147.441406 " clip-rule="nonzero"/></clipPath><clipPath id="5a18c6b5d6"><path d="M 172 147.441406 L 232 147.441406 L 232 227.691406 L 172 227.691406 Z M 172 147.441406 " clip-rule="nonzero"/></clipPath><clipPath id="3b9111ce34"><path d="M 167 147.441406 L 237 147.441406 L 237 227.691406 L 167 227.691406 Z M 167 147.441406 " clip-rule="nonzero"/></clipPath><clipPath id="efb38de55f"><path d="M 229 160 L 307.328125 160 L 307.328125 215 L 229 215 Z M 229 160 " clip-rule="nonzero"/></clipPath><clipPath id="b1ccf590e8"><path d="M 67.328125 157 L 116 157 L 116 217 L 67.328125 217 Z M 67.328125 157 " clip-rule="nonzero"/></clipPath></defs><g clip-path="url(#5ba7d2a819)"><path fill="#ffb300" d="M 354.183594 187.683594 C 354.183594 190.40625 354.117188 193.128906 353.980469 195.851562 C 353.847656 198.574219 353.648438 201.289062 353.382812 204.003906 C 353.113281 206.714844 352.78125 209.417969 352.378906 212.113281 C 351.980469 214.808594 351.515625 217.492188 350.984375 220.164062 C 350.453125 222.835938 349.855469 225.496094 349.191406 228.140625 C 348.53125 230.78125 347.804688 233.40625 347.011719 236.015625 C 346.222656 238.621094 345.367188 241.210938 344.449219 243.773438 C 343.53125 246.339844 342.550781 248.882812 341.507812 251.398438 C 340.464844 253.917969 339.363281 256.40625 338.195312 258.871094 C 337.03125 261.332031 335.808594 263.765625 334.523438 266.171875 C 333.238281 268.574219 331.894531 270.945312 330.496094 273.28125 C 329.09375 275.617188 327.636719 277.917969 326.121094 280.183594 C 324.609375 282.449219 323.039062 284.679688 321.417969 286.867188 C 319.792969 289.054688 318.117188 291.203125 316.390625 293.308594 C 314.660156 295.414062 312.882812 297.476562 311.050781 299.496094 C 309.222656 301.515625 307.34375 303.488281 305.414062 305.414062 C 303.488281 307.34375 301.515625 309.222656 299.496094 311.050781 C 297.476562 312.878906 295.414062 314.660156 293.308594 316.390625 C 291.203125 318.117188 289.054688 319.792969 286.867188 321.417969 C 284.679688 323.039062 282.449219 324.609375 280.183594 326.121094 C 277.917969 327.636719 275.617188 329.09375 273.28125 330.496094 C 270.945312 331.894531 268.574219 333.238281 266.171875 334.523438 C 263.765625 335.808594 261.332031 337.03125 258.871094 338.195312 C 256.40625 339.363281 253.917969 340.464844 251.398438 341.507812 C 248.882812 342.550781 246.339844 343.53125 243.773438 344.449219 C 241.210938 345.367188 238.621094 346.222656 236.015625 347.011719 C 233.40625 347.804688 230.78125 348.53125 228.140625 349.191406 C 225.496094 349.855469 222.835938 350.453125 220.164062 350.984375 C 217.492188 351.515625 214.808594 351.980469 212.113281 352.378906 C 209.417969 352.78125 206.714844 353.113281 204.003906 353.378906 C 201.289062 353.648438 198.574219 353.847656 195.851562 353.980469 C 193.128906 354.117188 190.40625 354.183594 187.683594 354.183594 C 184.957031 354.183594 182.234375 354.117188 179.511719 353.980469 C 176.792969 353.847656 174.074219 353.648438 171.363281 353.378906 C 168.652344 353.113281 165.949219 352.78125 163.253906 352.378906 C 160.554688 351.980469 157.871094 351.515625 155.199219 350.984375 C 152.527344 350.453125 149.871094 349.855469 147.226562 349.191406 C 144.582031 348.53125 141.957031 347.804688 139.351562 347.011719 C 136.742188 346.222656 134.15625 345.367188 131.589844 344.449219 C 129.023438 343.53125 126.484375 342.550781 123.964844 341.507812 C 121.449219 340.464844 118.957031 339.363281 116.496094 338.195312 C 114.03125 337.03125 111.597656 335.808594 109.195312 334.523438 C 106.792969 333.238281 104.421875 331.894531 102.085938 330.496094 C 99.746094 329.09375 97.445312 327.636719 95.179688 326.121094 C 92.914062 324.609375 90.6875 323.039062 88.5 321.417969 C 86.308594 319.792969 84.164062 318.117188 82.054688 316.390625 C 79.949219 314.660156 77.886719 312.878906 75.867188 311.050781 C 73.847656 309.222656 71.875 307.34375 69.949219 305.414062 C 68.023438 303.488281 66.144531 301.515625 64.3125 299.496094 C 62.484375 297.476562 60.703125 295.414062 58.976562 293.308594 C 57.246094 291.203125 55.570312 289.054688 53.949219 286.867188 C 52.324219 284.679688 50.757812 282.449219 49.242188 280.183594 C 47.730469 277.917969 46.273438 275.617188 44.871094 273.28125 C 43.46875 270.945312 42.128906 268.574219 40.84375 266.171875 C 39.558594 263.765625 38.332031 261.332031 37.167969 258.871094 C 36.003906 256.40625 34.898438 253.917969 33.855469 251.398438 C 32.8125 248.882812 31.832031 246.339844 30.914062 243.773438 C 29.996094 241.210938 29.144531 238.621094 28.351562 236.015625 C 27.5625 233.40625 26.835938 230.78125 26.171875 228.140625 C 25.511719 225.496094 24.914062 222.835938 24.382812 220.164062 C 23.851562 217.492188 23.382812 214.808594 22.984375 212.113281 C 22.585938 209.417969 22.25 206.714844 21.984375 204.003906 C 21.71875 201.289062 21.515625 198.574219 21.382812 195.851562 C 21.25 193.128906 21.183594 190.40625 21.183594 187.683594 C 21.183594 184.957031 21.25 182.234375 21.382812 179.511719 C 21.515625 176.792969 21.71875 174.074219 21.984375 171.363281 C 22.25 168.652344 22.585938 165.949219 22.984375 163.25 C 23.382812 160.554688 23.851562 157.871094 24.382812 155.199219 C 24.914062 152.527344 25.511719 149.871094 26.171875 147.226562 C 26.835938 144.582031 27.5625 141.957031 28.351562 139.351562 C 29.144531 136.742188 29.996094 134.15625 30.914062 131.589844 C 31.832031 129.023438 32.8125 126.484375 33.855469 123.964844 C 34.898438 121.449219 36.003906 118.957031 37.167969 116.496094 C 38.332031 114.03125 39.558594 111.597656 40.84375 109.195312 C 42.128906 106.792969 43.46875 104.421875 44.871094 102.085938 C 46.273438 99.746094 47.730469 97.445312 49.242188 95.179688 C 50.757812 92.914062 52.324219 90.6875 53.949219 88.5 C 55.570312 86.308594 57.246094 84.164062 58.976562 82.054688 C 60.703125 79.949219 62.484375 77.886719 64.3125 75.867188 C 66.144531 73.847656 68.023438 71.875 69.949219 69.949219 C 71.875 68.023438 73.847656 66.144531 75.867188 64.3125 C 77.886719 62.484375 79.949219 60.703125 82.054688 58.976562 C 84.164062 57.246094 86.308594 55.570312 88.5 53.949219 C 90.6875 52.324219 92.914062 50.757812 95.179688 49.242188 C 97.445312 47.730469 99.746094 46.273438 102.085938 44.871094 C 104.421875 43.46875 106.792969 42.128906 109.195312 40.84375 C 111.597656 39.558594 114.03125 38.332031 116.496094 37.167969 C 118.957031 36.003906 121.449219 34.898438 123.964844 33.855469 C 126.484375 32.8125 129.023438 31.832031 131.589844 30.914062 C 134.15625 29.996094 136.742188 29.144531 139.351562 28.351562 C 141.957031 27.5625 144.582031 26.835938 147.226562 26.171875 C 149.871094 25.511719 152.527344 24.914062 155.199219 24.382812 C 157.871094 23.851562 160.554688 23.382812 163.253906 22.984375 C 165.949219 22.585938 168.652344 22.25 171.363281 21.984375 C 174.074219 21.71875 176.792969 21.515625 179.511719 21.382812 C 182.234375 21.25 184.957031 21.183594 187.683594 21.183594 C 190.40625 21.183594 193.128906 21.25 195.851562 21.382812 C 198.574219 21.515625 201.289062 21.71875 204.003906 21.984375 C 206.714844 22.25 209.417969 22.585938 212.113281 22.984375 C 214.808594 23.382812 217.492188 23.851562 220.164062 24.382812 C 222.835938 24.914062 225.496094 25.511719 228.140625 26.171875 C 230.78125 26.835938 233.40625 27.5625 236.015625 28.351562 C 238.621094 29.144531 241.210938 29.996094 243.773438 30.914062 C 246.339844 31.832031 248.882812 32.8125 251.398438 33.855469 C 253.917969 34.898438 256.40625 36.003906 258.871094 37.167969 C 261.332031 38.332031 263.765625 39.558594 266.171875 40.84375 C 268.574219 42.128906 270.945312 43.46875 273.28125 44.871094 C 275.617188 46.273438 277.917969 47.730469 280.183594 49.242188 C 282.449219 50.757812 284.679688 52.324219 286.867188 53.949219 C 289.054688 55.570312 291.203125 57.246094 293.308594 58.976562 C 295.414062 60.703125 297.476562 62.484375 299.496094 64.3125 C 301.515625 66.144531 303.488281 68.023438 305.414062 69.949219 C 307.34375 71.875 309.222656 73.847656 311.050781 75.867188 C 312.882812 77.886719 314.660156 79.949219 316.390625 82.054688 C 318.117188 84.164062 319.792969 86.308594 321.417969 88.5 C 323.039062 90.6875 324.609375 92.914062 326.121094 95.179688 C 327.636719 97.445312 329.09375 99.746094 330.496094 102.085938 C 331.894531 104.421875 333.238281 106.792969 334.523438 109.195312 C 335.808594 111.597656 337.03125 114.03125 338.195312 116.496094 C 339.363281 118.957031 340.464844 121.449219 341.507812 123.964844 C 342.550781 126.484375 343.53125 129.023438 344.449219 131.589844 C 345.367188 134.15625 346.222656 136.742188 347.011719 139.351562 C 347.804688 141.957031 348.53125 144.582031 349.191406 147.226562 C 349.855469 149.871094 350.453125 152.527344 350.984375 155.199219 C 351.515625 157.871094 351.980469 160.554688 352.378906 163.25 C 352.78125 165.949219 353.113281 168.652344 353.382812 171.363281 C 353.648438 174.074219 353.847656 176.792969 353.980469 179.511719 C 354.117188 182.234375 354.183594 184.957031 354.183594 187.683594 Z M 354.183594 187.683594 " fill-opacity="1" fill-rule="nonzero"/></g><path fill="#ffca28" d="M 344.53125 187.683594 C 344.53125 190.25 344.46875 192.816406 344.339844 195.378906 C 344.214844 197.941406 344.027344 200.5 343.773438 203.054688 C 343.523438 205.609375 343.210938 208.15625 342.832031 210.695312 C 342.457031 213.234375 342.015625 215.765625 341.515625 218.28125 C 341.015625 220.800781 340.453125 223.304688 339.828125 225.792969 C 339.207031 228.285156 338.523438 230.757812 337.777344 233.214844 C 337.03125 235.667969 336.226562 238.105469 335.363281 240.523438 C 334.496094 242.941406 333.574219 245.335938 332.589844 247.707031 C 331.609375 250.078125 330.570312 252.421875 329.472656 254.742188 C 328.375 257.0625 327.21875 259.355469 326.011719 261.621094 C 324.800781 263.882812 323.535156 266.117188 322.214844 268.320312 C 320.894531 270.519531 319.523438 272.6875 318.097656 274.824219 C 316.671875 276.957031 315.191406 279.054688 313.664062 281.117188 C 312.136719 283.179688 310.554688 285.203125 308.925781 287.1875 C 307.300781 289.171875 305.621094 291.113281 303.898438 293.015625 C 302.175781 294.917969 300.40625 296.777344 298.589844 298.589844 C 296.777344 300.40625 294.917969 302.175781 293.015625 303.898438 C 291.113281 305.621094 289.171875 307.300781 287.1875 308.925781 C 285.203125 310.554688 283.179688 312.132812 281.117188 313.664062 C 279.054688 315.191406 276.957031 316.671875 274.824219 318.097656 C 272.6875 319.523438 270.519531 320.894531 268.320312 322.214844 C 266.117188 323.535156 263.882812 324.800781 261.621094 326.011719 C 259.355469 327.21875 257.0625 328.375 254.742188 329.472656 C 252.421875 330.570312 250.078125 331.609375 247.707031 332.589844 C 245.335938 333.574219 242.941406 334.496094 240.523438 335.363281 C 238.105469 336.226562 235.667969 337.03125 233.214844 337.777344 C 230.757812 338.523438 228.285156 339.207031 225.792969 339.828125 C 223.304688 340.453125 220.800781 341.015625 218.28125 341.515625 C 215.765625 342.015625 213.234375 342.457031 210.695312 342.832031 C 208.15625 343.210938 205.609375 343.523438 203.054688 343.773438 C 200.5 344.027344 197.941406 344.214844 195.378906 344.339844 C 192.816406 344.46875 190.25 344.53125 187.683594 344.53125 C 185.117188 344.53125 182.550781 344.46875 179.988281 344.339844 C 177.421875 344.214844 174.863281 344.027344 172.308594 343.773438 C 169.753906 343.523438 167.207031 343.210938 164.667969 342.832031 C 162.128906 342.457031 159.601562 342.015625 157.082031 341.515625 C 154.566406 341.015625 152.0625 340.453125 149.570312 339.828125 C 147.082031 339.207031 144.609375 338.523438 142.152344 337.777344 C 139.695312 337.03125 137.257812 336.226562 134.84375 335.363281 C 132.425781 334.496094 130.03125 333.574219 127.660156 332.589844 C 125.289062 331.609375 122.941406 330.570312 120.621094 329.472656 C 118.300781 328.375 116.007812 327.21875 113.746094 326.011719 C 111.480469 324.800781 109.25 323.535156 107.046875 322.214844 C 104.84375 320.894531 102.675781 319.523438 100.542969 318.097656 C 98.410156 316.671875 96.308594 315.191406 94.25 313.664062 C 92.1875 312.132812 90.164062 310.554688 88.179688 308.925781 C 86.195312 307.300781 84.253906 305.621094 82.351562 303.898438 C 80.449219 302.175781 78.589844 300.40625 76.773438 298.589844 C 74.960938 296.777344 73.191406 294.917969 71.464844 293.015625 C 69.742188 291.113281 68.066406 289.171875 66.4375 287.1875 C 64.808594 285.203125 63.230469 283.179688 61.703125 281.117188 C 60.171875 279.054688 58.695312 276.957031 57.269531 274.824219 C 55.84375 272.6875 54.46875 270.519531 53.148438 268.320312 C 51.832031 266.117188 50.566406 263.882812 49.355469 261.621094 C 48.144531 259.355469 46.992188 257.0625 45.894531 254.742188 C 44.796875 252.421875 43.757812 250.078125 42.773438 247.707031 C 41.792969 245.335938 40.867188 242.941406 40.003906 240.523438 C 39.140625 238.105469 38.332031 235.667969 37.589844 233.214844 C 36.84375 230.757812 36.160156 228.285156 35.535156 225.792969 C 34.910156 223.304688 34.347656 220.800781 33.847656 218.28125 C 33.347656 215.765625 32.910156 213.234375 32.53125 210.695312 C 32.15625 208.15625 31.839844 205.609375 31.589844 203.054688 C 31.339844 200.5 31.148438 197.941406 31.023438 195.378906 C 30.898438 192.816406 30.835938 190.25 30.835938 187.683594 C 30.835938 185.117188 30.898438 182.550781 31.023438 179.988281 C 31.148438 177.421875 31.339844 174.863281 31.589844 172.308594 C 31.839844 169.753906 32.15625 167.207031 32.53125 164.667969 C 32.910156 162.128906 33.347656 159.601562 33.847656 157.082031 C 34.347656 154.566406 34.910156 152.0625 35.535156 149.570312 C 36.160156 147.082031 36.84375 144.609375 37.589844 142.152344 C 38.332031 139.695312 39.140625 137.257812 40.003906 134.84375 C 40.867188 132.425781 41.792969 130.03125 42.773438 127.660156 C 43.757812 125.289062 44.796875 122.941406 45.894531 120.621094 C 46.992188 118.300781 48.144531 116.007812 49.355469 113.746094 C 50.566406 111.480469 51.832031 109.25 53.148438 107.046875 C 54.46875 104.84375 55.84375 102.675781 57.269531 100.542969 C 58.695312 98.410156 60.171875 96.308594 61.703125 94.25 C 63.230469 92.1875 64.808594 90.164062 66.4375 88.179688 C 68.066406 86.195312 69.742188 84.253906 71.464844 82.351562 C 73.191406 80.449219 74.960938 78.589844 76.773438 76.773438 C 78.589844 74.960938 80.449219 73.191406 82.351562 71.464844 C 84.253906 69.742188 86.195312 68.066406 88.179688 66.4375 C 90.164062 64.808594 92.1875 63.230469 94.25 61.703125 C 96.308594 60.171875 98.410156 58.695312 100.542969 57.269531 C 102.675781 55.84375 104.84375 54.46875 107.046875 53.148438 C 109.25 51.828125 111.480469 50.566406 113.746094 49.355469 C 116.007812 48.144531 118.300781 46.992188 120.621094 45.894531 C 122.941406 44.796875 125.289062 43.757812 127.660156 42.773438 C 130.03125 41.792969 132.425781 40.867188 134.84375 40.003906 C 137.257812 39.136719 139.695312 38.332031 142.152344 37.589844 C 144.609375 36.84375 147.082031 36.160156 149.570312 35.535156 C 152.0625 34.910156 154.566406 34.347656 157.082031 33.847656 C 159.601562 33.347656 162.128906 32.910156 164.667969 32.53125 C 167.207031 32.15625 169.753906 31.839844 172.308594 31.589844 C 174.863281 31.339844 177.421875 31.148438 179.988281 31.023438 C 182.550781 30.898438 185.117188 30.835938 187.683594 30.835938 C 190.25 30.835938 192.816406 30.898438 195.378906 31.023438 C 197.941406 31.148438 200.5 31.339844 203.054688 31.589844 C 205.609375 31.839844 208.15625 32.15625 210.695312 32.53125 C 213.234375 32.910156 215.765625 33.347656 218.28125 33.847656 C 220.800781 34.347656 223.304688 34.910156 225.792969 35.535156 C 228.285156 36.160156 230.757812 36.84375 233.214844 37.589844 C 235.667969 38.332031 238.105469 39.136719 240.523438 40.003906 C 242.941406 40.867188 245.335938 41.792969 247.707031 42.773438 C 250.078125 43.757812 252.421875 44.796875 254.742188 45.894531 C 257.0625 46.992188 259.355469 48.144531 261.621094 49.355469 C 263.882812 50.566406 266.117188 51.828125 268.320312 53.148438 C 270.519531 54.46875 272.6875 55.84375 274.824219 57.269531 C 276.957031 58.695312 279.054688 60.171875 281.117188 61.703125 C 283.179688 63.230469 285.203125 64.808594 287.1875 66.4375 C 289.171875 68.066406 291.113281 69.742188 293.015625 71.464844 C 294.917969 73.191406 296.777344 74.960938 298.589844 76.773438 C 300.40625 78.589844 302.175781 80.449219 303.898438 82.351562 C 305.621094 84.253906 307.300781 86.195312 308.925781 88.179688 C 310.554688 90.164062 312.136719 92.1875 313.664062 94.25 C 315.191406 96.308594 316.671875 98.410156 318.097656 100.542969 C 319.523438 102.675781 320.894531 104.84375 322.214844 107.046875 C 323.535156 109.25 324.800781 111.480469 326.011719 113.746094 C 327.21875 116.007812 328.375 118.300781 329.472656 120.621094 C 330.570312 122.941406 331.609375 125.289062 332.589844 127.660156 C 333.574219 130.03125 334.496094 132.425781 335.363281 134.84375 C 336.226562 137.257812 337.03125 139.695312 337.777344 142.152344 C 338.523438 144.609375 339.207031 147.082031 339.828125 149.570312 C 340.453125 152.0625 341.015625 154.566406 341.515625 157.082031 C 342.015625 159.601562 342.457031 162.128906 342.832031 164.667969 C 343.210938 167.207031 343.523438 169.753906 343.773438 172.308594 C 344.027344 174.863281 344.214844 177.421875 344.339844 179.988281 C 344.46875 182.550781 344.53125 185.117188 344.53125 187.683594 Z M 344.53125 187.683594 " fill-opacity="1" fill-rule="nonzero"/><path fill="#ffa000" d="M 320.398438 187.683594 C 320.398438 189.855469 320.347656 192.023438 320.238281 194.195312 C 320.132812 196.363281 319.972656 198.53125 319.761719 200.691406 C 319.546875 202.851562 319.28125 205.007812 318.964844 207.15625 C 318.644531 209.304688 318.273438 211.445312 317.851562 213.574219 C 317.425781 215.703125 316.949219 217.824219 316.421875 219.929688 C 315.894531 222.039062 315.316406 224.128906 314.683594 226.207031 C 314.054688 228.285156 313.375 230.347656 312.640625 232.394531 C 311.910156 234.4375 311.128906 236.464844 310.296875 238.472656 C 309.464844 240.476562 308.585938 242.464844 307.65625 244.425781 C 306.730469 246.390625 305.753906 248.328125 304.730469 250.246094 C 303.703125 252.160156 302.632812 254.050781 301.519531 255.914062 C 300.402344 257.777344 299.238281 259.609375 298.03125 261.417969 C 296.828125 263.222656 295.574219 264.996094 294.28125 266.742188 C 292.988281 268.488281 291.652344 270.199219 290.273438 271.878906 C 288.898438 273.554688 287.476562 275.199219 286.019531 276.808594 C 284.5625 278.417969 283.0625 279.992188 281.527344 281.527344 C 279.992188 283.0625 278.417969 284.5625 276.808594 286.019531 C 275.199219 287.476562 273.554688 288.898438 271.878906 290.273438 C 270.199219 291.652344 268.488281 292.988281 266.742188 294.28125 C 264.996094 295.574219 263.222656 296.828125 261.417969 298.03125 C 259.609375 299.238281 257.777344 300.402344 255.914062 301.519531 C 254.050781 302.632812 252.160156 303.703125 250.246094 304.730469 C 248.328125 305.753906 246.390625 306.730469 244.425781 307.65625 C 242.464844 308.585938 240.476562 309.464844 238.472656 310.296875 C 236.464844 311.128906 234.4375 311.910156 232.394531 312.640625 C 230.347656 313.375 228.285156 314.054688 226.207031 314.683594 C 224.128906 315.316406 222.039062 315.894531 219.929688 316.421875 C 217.824219 316.949219 215.703125 317.425781 213.574219 317.851562 C 211.445312 318.273438 209.304688 318.644531 207.15625 318.964844 C 205.007812 319.28125 202.851562 319.546875 200.691406 319.761719 C 198.53125 319.972656 196.363281 320.132812 194.195312 320.238281 C 192.023438 320.347656 189.855469 320.398438 187.683594 320.398438 C 185.511719 320.398438 183.339844 320.347656 181.171875 320.238281 C 179 320.132812 176.835938 319.972656 174.675781 319.761719 C 172.511719 319.546875 170.359375 319.28125 168.207031 318.964844 C 166.058594 318.644531 163.921875 318.273438 161.789062 317.851562 C 159.660156 317.425781 157.542969 316.949219 155.433594 316.421875 C 153.328125 315.894531 151.234375 315.316406 149.15625 314.683594 C 147.078125 314.054688 145.015625 313.375 142.972656 312.640625 C 140.925781 311.910156 138.902344 311.128906 136.894531 310.296875 C 134.886719 309.464844 132.902344 308.585938 130.9375 307.65625 C 128.976562 306.730469 127.035156 305.753906 125.121094 304.730469 C 123.203125 303.703125 121.316406 302.632812 119.453125 301.519531 C 117.589844 300.402344 115.753906 299.238281 113.949219 298.03125 C 112.144531 296.828125 110.367188 295.574219 108.621094 294.28125 C 106.878906 292.988281 105.167969 291.652344 103.488281 290.273438 C 101.808594 288.898438 100.164062 287.476562 98.554688 286.019531 C 96.945312 284.5625 95.375 283.0625 93.835938 281.527344 C 92.300781 279.992188 90.804688 278.417969 89.34375 276.808594 C 87.886719 275.199219 86.46875 273.554688 85.089844 271.878906 C 83.710938 270.199219 82.375 268.488281 81.082031 266.742188 C 79.789062 264.996094 78.539062 263.222656 77.332031 261.417969 C 76.125 259.609375 74.964844 257.777344 73.847656 255.914062 C 72.730469 254.050781 71.660156 252.160156 70.636719 250.246094 C 69.613281 248.328125 68.636719 246.390625 67.707031 244.425781 C 66.777344 242.464844 65.898438 240.476562 65.066406 238.472656 C 64.238281 236.464844 63.457031 234.4375 62.722656 232.394531 C 61.992188 230.347656 61.308594 228.285156 60.679688 226.207031 C 60.050781 224.128906 59.46875 222.039062 58.941406 219.929688 C 58.414062 217.824219 57.9375 215.703125 57.515625 213.574219 C 57.089844 211.445312 56.71875 209.304688 56.402344 207.15625 C 56.082031 205.007812 55.816406 202.851562 55.605469 200.691406 C 55.390625 198.53125 55.230469 196.363281 55.125 194.195312 C 55.019531 192.023438 54.964844 189.855469 54.964844 187.683594 C 54.964844 185.511719 55.019531 183.339844 55.125 181.171875 C 55.230469 179 55.390625 176.835938 55.605469 174.675781 C 55.816406 172.511719 56.082031 170.355469 56.402344 168.207031 C 56.71875 166.058594 57.089844 163.921875 57.515625 161.789062 C 57.9375 159.660156 58.414062 157.542969 58.941406 155.433594 C 59.46875 153.328125 60.050781 151.234375 60.679688 149.15625 C 61.308594 147.078125 61.992188 145.015625 62.722656 142.972656 C 63.457031 140.925781 64.238281 138.902344 65.066406 136.894531 C 65.898438 134.886719 66.777344 132.902344 67.707031 130.9375 C 68.636719 128.976562 69.613281 127.035156 70.636719 125.121094 C 71.660156 123.203125 72.730469 121.316406 73.847656 119.453125 C 74.964844 117.589844 76.125 115.753906 77.332031 113.949219 C 78.539062 112.144531 79.789062 110.367188 81.082031 108.621094 C 82.375 106.878906 83.710938 105.167969 85.089844 103.488281 C 86.46875 101.808594 87.886719 100.164062 89.34375 98.554688 C 90.804688 96.945312 92.300781 95.375 93.835938 93.835938 C 95.375 92.300781 96.945312 90.804688 98.554688 89.34375 C 100.164062 87.886719 101.808594 86.46875 103.488281 85.089844 C 105.167969 83.710938 106.878906 82.375 108.621094 81.082031 C 110.367188 79.789062 112.144531 78.539062 113.949219 77.332031 C 115.753906 76.125 117.589844 74.964844 119.453125 73.847656 C 121.316406 72.730469 123.203125 71.660156 125.121094 70.636719 C 127.035156 69.613281 128.976562 68.636719 130.9375 67.707031 C 132.902344 66.777344 134.886719 65.898438 136.894531 65.066406 C 138.902344 64.238281 140.925781 63.453125 142.972656 62.722656 C 145.015625 61.992188 147.078125 61.308594 149.15625 60.679688 C 151.234375 60.050781 153.328125 59.46875 155.433594 58.941406 C 157.542969 58.414062 159.660156 57.9375 161.789062 57.515625 C 163.921875 57.089844 166.058594 56.71875 168.207031 56.402344 C 170.359375 56.082031 172.511719 55.816406 174.675781 55.605469 C 176.835938 55.390625 179 55.230469 181.171875 55.125 C 183.339844 55.019531 185.511719 54.964844 187.683594 54.964844 C 189.855469 54.964844 192.023438 55.019531 194.195312 55.125 C 196.363281 55.230469 198.53125 55.390625 200.691406 55.605469 C 202.851562 55.816406 205.007812 56.082031 207.15625 56.402344 C 209.304688 56.71875 211.445312 57.089844 213.574219 57.515625 C 215.703125 57.9375 217.824219 58.414062 219.929688 58.941406 C 222.039062 59.46875 224.128906 60.050781 226.207031 60.679688 C 228.285156 61.308594 230.347656 61.992188 232.394531 62.722656 C 234.4375 63.453125 236.464844 64.238281 238.472656 65.066406 C 240.476562 65.898438 242.464844 66.777344 244.425781 67.707031 C 246.390625 68.636719 248.328125 69.613281 250.246094 70.636719 C 252.160156 71.660156 254.050781 72.730469 255.914062 73.847656 C 257.777344 74.964844 259.609375 76.125 261.417969 77.332031 C 263.222656 78.539062 264.996094 79.789062 266.742188 81.082031 C 268.488281 82.375 270.199219 83.710938 271.878906 85.089844 C 273.554688 86.46875 275.199219 87.886719 276.808594 89.34375 C 278.417969 90.804688 279.992188 92.300781 281.527344 93.835938 C 283.0625 95.375 284.5625 96.945312 286.019531 98.554688 C 287.476562 100.164062 288.898438 101.808594 290.273438 103.488281 C 291.652344 105.167969 292.988281 106.878906 294.28125 108.621094 C 295.574219 110.367188 296.828125 112.144531 298.03125 113.949219 C 299.238281 115.753906 300.402344 117.589844 301.519531 119.453125 C 302.632812 121.316406 303.703125 123.203125 304.730469 125.121094 C 305.753906 127.035156 306.730469 128.976562 307.65625 130.9375 C 308.585938 132.902344 309.464844 134.886719 310.296875 136.894531 C 311.128906 138.902344 311.910156 140.925781 312.640625 142.972656 C 313.375 145.015625 314.054688 147.078125 314.683594 149.15625 C 315.316406 151.234375 315.894531 153.328125 316.421875 155.433594 C 316.949219 157.542969 317.425781 159.660156 317.851562 161.789062 C 318.273438 163.921875 318.644531 166.058594 318.964844 168.207031 C 319.28125 170.355469 319.546875 172.511719 319.761719 174.675781 C 319.972656 176.835938 320.132812 179 320.238281 181.171875 C 320.347656 183.339844 320.398438 185.511719 320.398438 187.683594 Z M 320.398438 187.683594 " fill-opacity="1" fill-rule="nonzero"/><g clip-path="url(#aef4eeee64)"><path fill="#65c42f" d="M 197.800781 227.167969 L 213.238281 227.167969 L 256.632812 147.96875 L 241.238281 147.96875 L 197.800781 227.167969 " fill-opacity="1" fill-rule="nonzero"/></g><g clip-path="url(#d73c79944a)"><path stroke-linecap="butt" transform="matrix(0.294197, 0, 0, 0.295131, 64.186867, 35.706948)" fill="none" stroke-linejoin="miter" d="M 454.164867 648.732945 L 506.638221 648.732945 L 654.139862 380.379928 L 601.812562 380.379928 Z M 454.164867 648.732945 " stroke="#65c42f" stroke-width="3.161" stroke-opacity="1" stroke-miterlimit="3.864"/></g><g clip-path="url(#5a18c6b5d6)"><path fill="#00acef" d="M 172.4375 227.167969 L 187.878906 227.167969 L 231.265625 147.96875 L 215.867188 147.96875 L 172.4375 227.167969 " fill-opacity="1" fill-rule="nonzero"/></g><g clip-path="url(#3b9111ce34)"><path stroke-linecap="butt" transform="matrix(0.294197, 0, 0, 0.295131, 64.186867, 35.706948)" fill="none" stroke-linejoin="miter" d="M 367.952953 648.732945 L 420.439584 648.732945 L 567.91467 380.379928 L 515.574093 380.379928 Z M 367.952953 648.732945 " stroke="#00acef" stroke-width="3.161" stroke-opacity="1" stroke-miterlimit="3.864"/></g><path fill="#231f20" d="M 122.203125 160.085938 L 122.203125 214.964844 L 136.324219 214.964844 L 154.53125 183.300781 L 154.53125 214.964844 L 169.101562 214.964844 L 199.367188 160.085938 L 185.835938 160.085938 L 168.910156 189.875 L 168.910156 160.085938 L 153.507812 160.085938 L 136.324219 189.277344 L 136.324219 160.085938 L 122.203125 160.085938 " fill-opacity="1" fill-rule="nonzero"/><g clip-path="url(#efb38de55f)"><path fill="#231f20" d="M 229.992188 214.964844 L 243.6875 214.964844 L 260.457031 185.605469 L 260.457031 214.964844 L 275.167969 214.964844 L 293.027344 185.691406 L 293.027344 214.964844 L 307.328125 214.964844 L 307.328125 160.085938 L 293.027344 160.085938 L 275.167969 191.75 L 275.167969 160.085938 L 260.113281 160.085938 L 229.992188 214.964844 " fill-opacity="1" fill-rule="nonzero"/></g><g clip-path="url(#b1ccf590e8)"><path fill="#231f20" d="M 81.921875 196.1875 C 82.023438 201.367188 86.277344 205.53125 91.511719 205.53125 C 96.785156 205.53125 101.0625 202.878906 101.0625 199.601562 C 101.0625 197.703125 100 195.421875 95.660156 194.308594 C 95.660156 194.308594 92.472656 193.324219 90.425781 192.71875 C 87.484375 191.855469 85.75 191.609375 82.855469 190.597656 C 80.933594 189.929688 79.914062 189.425781 78.003906 188.679688 C 72.117188 185.535156 68.832031 180.410156 69.199219 174.597656 C 68.691406 165.039062 79.273438 157.78125 91.703125 157.78125 C 104.132812 157.78125 114.207031 165.3125 114.207031 174.597656 L 114.207031 176.132812 L 99.53125 176.132812 L 99.574219 175.066406 C 99.574219 171.976562 96.050781 169.476562 91.703125 169.476562 L 90.746094 169.519531 C 86.929688 169.519531 83.832031 171.246094 83.832031 173.378906 L 83.832031 173.996094 C 83.832031 175.554688 85.195312 176.972656 87.238281 177.792969 C 89.574219 178.734375 90.769531 179.035156 93.148438 179.71875 C 95.824219 180.484375 97.359375 180.835938 100 181.722656 C 102.8125 182.667969 107.105469 184.449219 107.105469 184.449219 C 111.90625 186.546875 115.734375 191.515625 115.734375 196.234375 C 116.417969 208.648438 107.824219 216.246094 91.53125 216.246094 C 75.324219 216.246094 67.328125 208.839844 67.328125 196.183594 L 81.921875 196.1875 " fill-opacity="1" fill-rule="nonzero"/></g></svg>