<svg xmlns="http://www.w3.org/2000/svg" xmlns:xlink="http://www.w3.org/1999/xlink" width="500" zoomAndPan="magnify" viewBox="0 0 375 374.999991" height="500" preserveAspectRatio="xMidYMid meet" version="1.0"><defs><clipPath id="aa720d1422"><path d="M 24.882812 126 L 80 126 L 80 188 L 24.882812 188 Z M 24.882812 126 " clip-rule="nonzero"/></clipPath><clipPath id="11d26e5368"><path d="M 295 187 L 350.382812 187 L 350.382812 249 L 295 249 Z M 295 187 " clip-rule="nonzero"/></clipPath><clipPath id="3640b1022f"><path d="M 126 295 L 188 295 L 188 350.382812 L 126 350.382812 Z M 126 295 " clip-rule="nonzero"/></clipPath><clipPath id="d29fd1ad1b"><path d="M 187 24.882812 L 249 24.882812 L 249 80 L 187 80 Z M 187 24.882812 " clip-rule="nonzero"/></clipPath></defs><path fill="#cd7f32" d="M 206.230469 255.328125 C 168.796875 265.644531 130.082031 243.648438 119.765625 206.226562 C 109.457031 168.792969 131.445312 130.082031 168.875 119.769531 C 206.304688 109.457031 245.011719 131.4375 255.328125 168.871094 C 265.644531 206.304688 243.65625 245.015625 206.230469 255.328125 Z M 152.171875 59.148438 C 81.253906 78.691406 39.605469 152.019531 59.152344 222.929688 C 78.691406 293.851562 152.015625 335.496094 222.941406 315.953125 C 293.851562 296.410156 335.488281 223.082031 315.953125 152.167969 C 296.40625 81.253906 223.085938 39.609375 152.171875 59.148438 " fill-opacity="1" fill-rule="nonzero"/><path fill="#a6682a" d="M 206.042969 255.367188 C 168.671875 265.566406 130.066406 243.597656 119.765625 206.226562 C 109.476562 168.855469 131.375 130.21875 168.703125 119.832031 L 157.863281 80.492188 C 98.816406 96.878906 64.15625 157.972656 80.445312 217.066406 C 96.722656 276.160156 157.792969 310.886719 216.886719 294.703125 L 206.042969 255.367188 " fill-opacity="1" fill-rule="nonzero"/><path fill="#c6a381" d="M 168.703125 119.832031 C 206.265625 109.582031 245.019531 131.503906 255.324219 168.878906 C 265.621094 206.246094 243.554688 244.921875 206.042969 255.367188 L 216.886719 294.703125 C 276.238281 278.242188 311.128906 217.074219 294.855469 157.984375 C 278.574219 98.886719 217.265625 64.230469 157.863281 80.492188 L 168.703125 119.832031 " fill-opacity="1" fill-rule="nonzero"/><path fill="#cd7f32" d="M 184.539062 64.960938 L 127.347656 80.722656 L 122.792969 37.339844 L 166.222656 25.371094 L 184.539062 64.960938 " fill-opacity="1" fill-rule="nonzero"/><path fill="#cd7f32" d="M 247.757812 294.378906 L 190.566406 310.140625 L 208.875 349.726562 L 252.308594 337.757812 L 247.757812 294.378906 " fill-opacity="1" fill-rule="nonzero"/><path fill="#cd7f32" d="M 64.960938 190.558594 L 80.722656 247.757812 L 37.34375 252.304688 L 25.375 208.871094 L 64.960938 190.558594 " fill-opacity="1" fill-rule="nonzero"/><path fill="#cd7f32" d="M 294.378906 127.339844 L 310.140625 184.539062 L 349.726562 166.230469 L 337.753906 122.792969 L 294.378906 127.339844 " fill-opacity="1" fill-rule="nonzero"/><path fill="#cd7f32" d="M 120.613281 84.792969 L 80.210938 128.25 L 53.574219 93.714844 L 84.25 60.734375 L 120.613281 84.792969 " fill-opacity="1" fill-rule="nonzero"/><path fill="#cd7f32" d="M 294.886719 246.851562 L 254.484375 290.304688 L 290.855469 314.375 L 321.53125 281.382812 L 294.886719 246.851562 " fill-opacity="1" fill-rule="nonzero"/><path fill="#cd7f32" d="M 81.695312 249.4375 L 123.132812 291.898438 L 87.359375 316.847656 L 55.890625 284.617188 L 81.695312 249.4375 " fill-opacity="1" fill-rule="nonzero"/><path fill="#cd7f32" d="M 251.960938 83.203125 L 293.410156 125.648438 L 319.203125 90.484375 L 287.738281 58.253906 L 251.960938 83.203125 " fill-opacity="1" fill-rule="nonzero"/><g clip-path="url(#aa720d1422)"><path fill="#cd7f32" d="M 79.292969 129.960938 L 64.929688 187.523438 L 24.917969 170.167969 L 35.8125 126.460938 L 79.292969 129.960938 " fill-opacity="1" fill-rule="nonzero"/></g><g clip-path="url(#11d26e5368)"><path fill="#cd7f32" d="M 310.179688 187.574219 L 295.800781 245.136719 L 339.28125 248.636719 L 350.191406 204.929688 L 310.179688 187.574219 " fill-opacity="1" fill-rule="nonzero"/></g><g clip-path="url(#3640b1022f)"><path fill="#cd7f32" d="M 129.953125 295.8125 L 187.519531 310.175781 L 170.164062 350.191406 L 126.460938 339.289062 L 129.953125 295.8125 " fill-opacity="1" fill-rule="nonzero"/></g><g clip-path="url(#d29fd1ad1b)"><path fill="#cd7f32" d="M 187.582031 64.929688 L 245.140625 79.296875 L 248.636719 35.816406 L 204.9375 24.90625 L 187.582031 64.929688 " fill-opacity="1" fill-rule="nonzero"/></g><path fill="#efb772" d="M 206.230469 255.328125 C 168.796875 265.644531 130.082031 243.648438 119.765625 206.226562 C 109.457031 168.792969 131.445312 130.082031 168.875 119.769531 C 206.304688 109.457031 245.011719 131.4375 255.328125 168.871094 C 265.644531 206.304688 243.65625 245.015625 206.230469 255.328125 Z M 165.757812 108.472656 C 122.078125 120.503906 96.433594 165.667969 108.46875 209.347656 C 120.503906 253.007812 165.667969 278.664062 209.34375 266.628906 C 253.019531 254.597656 278.667969 209.433594 266.632812 165.761719 C 254.597656 122.089844 209.433594 96.4375 165.757812 108.472656 " fill-opacity="1" fill-rule="nonzero"/></svg>